RecursiveSans-StrictHeavy.ufo
<glyph name="exclam" format="1">
  <advance width="350"/>
  <unicode hex="0021"/>
  <outline>
    <contour>
      <point x="248" y="321" type="line"/>
      <point x="265" y="382"/>
      <point x="282" y="441"/>
      <point x="299" y="502" type="curve"/>
      <point x="299" y="689" type="line" smooth="yes"/>
      <point x="299" y="696"/>
      <point x="294" y="700"/>
      <point x="288" y="700" type="curve" smooth="yes"/>
      <point x="184" y="700"/>
      <point x="105" y="700"/>
      <point x="51" y="700" type="curve"/>
      <point x="51" y="662"/>
      <point x="51" y="627"/>
      <point x="51" y="590" type="curve" smooth="yes"/>
      <point x="51" y="502" type="line"/>
      <point x="98" y="327"/>
      <point x="99" y="328"/>
      <point x="103" y="324" type="curve" smooth="yes"/>
      <point x="105" y="322"/>
      <point x="107" y="321"/>
      <point x="111" y="321" type="curve"/>
    </contour>
    <contour>
      <point x="299" y="-13" type="curve"/>
      <point x="299" y="226" type="line" smooth="yes"/>
      <point x="299" y="232"/>
      <point x="294" y="237"/>
      <point x="288" y="237" type="curve" smooth="yes"/>
      <point x="204" y="237"/>
      <point x="135" y="237"/>
      <point x="51" y="237" type="curve"/>
      <point x="51" y="-2" type="line" smooth="yes"/>
      <point x="51" y="-8"/>
      <point x="56" y="-13"/>
      <point x="62" y="-13" type="curve" smooth="yes"/>
      <point x="146" y="-13"/>
      <point x="215" y="-13"/>
    </contour>
  </outline>
</glyph>
<glyph name="quotedbl" format="1">
  <advance width="600"/>
  <unicode hex="0022"/>
  <outline>
    <contour>
      <point x="244" y="450" type="curve"/>
      <point x="267" y="737" type="line" smooth="yes"/>
      <point x="268" y="746"/>
      <point x="263" y="750"/>
      <point x="257" y="750" type="curve" smooth="yes"/>
      <point x="197" y="750"/>
      <point x="132" y="750"/>
      <point x="60" y="750" type="curve"/>
      <point x="63" y="714"/>
      <point x="65" y="683"/>
      <point x="68" y="648" type="curve" smooth="yes"/>
      <point x="83" y="461" type="line" smooth="yes"/>
      <point x="84" y="454"/>
      <point x="89" y="450"/>
      <point x="95" y="450" type="curve" smooth="yes"/>
      <point x="146" y="450"/>
      <point x="193" y="450"/>
    </contour>
    <contour>
      <point x="516" y="450" type="curve"/>
      <point x="539" y="737" type="line" smooth="yes"/>
      <point x="540" y="746"/>
      <point x="535" y="750"/>
      <point x="529" y="750" type="curve" smooth="yes"/>
      <point x="469" y="750"/>
      <point x="404" y="750"/>
      <point x="332" y="750" type="curve"/>
      <point x="355" y="461" type="line"/>
      <point x="356" y="454"/>
      <point x="361" y="450"/>
      <point x="367" y="450" type="curve" smooth="yes"/>
      <point x="418" y="450"/>
      <point x="465" y="450"/>
    </contour>
  </outline>
</glyph>
<glyph name="percent" format="1">
  <advance width="600"/>
  <unicode hex="0025"/>
  <outline>
    <contour>
      <point x="104" y="662" type="curve"/>
      <point x="134" y="662"/>
      <point x="163" y="634"/>
      <point x="163" y="583" type="curve" smooth="yes"/>
      <point x="163" y="553" type="line" smooth="yes"/>
      <point x="163" y="533"/>
      <point x="156" y="534"/>
      <point x="135" y="534" type="curve" smooth="yes"/>
      <point x="122" y="534"/>
      <point x="116" y="539"/>
      <point x="99" y="551" type="curve"/>
      <point x="78" y="514"/>
      <point x="99" y="356"/>
      <point x="160" y="356" type="curve" smooth="yes"/>
      <point x="253" y="356"/>
      <point x="318" y="419"/>
      <point x="318" y="518" type="curve" smooth="yes"/>
      <point x="318" y="561" type="line" smooth="yes"/>
      <point x="318" y="646"/>
      <point x="250" y="710"/>
      <point x="166" y="710" type="curve" smooth="yes"/>
      <point x="139" y="710"/>
      <point x="104" y="684"/>
    </contour>
    <contour>
      <point x="191" y="456" type="curve"/>
      <point x="173" y="456"/>
      <point x="164" y="468"/>
      <point x="164" y="483" type="curve" smooth="yes"/>
      <point x="164" y="523" type="line" smooth="yes"/>
      <point x="164" y="537"/>
      <point x="173" y="549"/>
      <point x="191" y="549" type="curve" smooth="yes"/>
      <point x="213" y="549"/>
      <point x="218" y="547"/>
      <point x="242" y="533" type="curve"/>
      <point x="266" y="563"/>
      <point x="222" y="710"/>
      <point x="166" y="710" type="curve" smooth="yes"/>
      <point x="76" y="710"/>
      <point x="10" y="643"/>
      <point x="10" y="547" type="curve" smooth="yes"/>
      <point x="10" y="505" type="line" smooth="yes"/>
      <point x="10" y="411"/>
      <point x="69" y="356"/>
      <point x="160" y="356" type="curve" smooth="yes"/>
      <point x="168" y="356"/>
      <point x="191" y="398"/>
    </contour>
    <contour>
      <point x="376" y="296" type="curve"/>
      <point x="406" y="296"/>
      <point x="435" y="268"/>
      <point x="435" y="217" type="curve" smooth="yes"/>
      <point x="435" y="187" type="line" smooth="yes"/>
      <point x="435" y="167"/>
      <point x="428" y="168"/>
      <point x="407" y="168" type="curve" smooth="yes"/>
      <point x="394" y="168"/>
      <point x="388" y="173"/>
      <point x="371" y="185" type="curve"/>
      <point x="350" y="148"/>
      <point x="371" y="-10"/>
      <point x="432" y="-10" type="curve" smooth="yes"/>
      <point x="525" y="-10"/>
      <point x="590" y="53"/>
      <point x="590" y="152" type="curve" smooth="yes"/>
      <point x="590" y="195" type="line" smooth="yes"/>
      <point x="590" y="280"/>
      <point x="522" y="344"/>
      <point x="438" y="344" type="curve" smooth="yes"/>
      <point x="411" y="344"/>
      <point x="376" y="318"/>
    </contour>
    <contour>
      <point x="463" y="90" type="curve"/>
      <point x="445" y="90"/>
      <point x="436" y="102"/>
      <point x="436" y="117" type="curve" smooth="yes"/>
      <point x="436" y="157" type="line" smooth="yes"/>
      <point x="436" y="171"/>
      <point x="445" y="183"/>
      <point x="463" y="183" type="curve" smooth="yes"/>
      <point x="485" y="183"/>
      <point x="490" y="181"/>
      <point x="514" y="167" type="curve"/>
      <point x="538" y="197"/>
      <point x="494" y="344"/>
      <point x="438" y="344" type="curve" smooth="yes"/>
      <point x="348" y="344"/>
      <point x="282" y="277"/>
      <point x="282" y="181" type="curve" smooth="yes"/>
      <point x="282" y="139" type="line" smooth="yes"/>
      <point x="282" y="45"/>
      <point x="341" y="-10"/>
      <point x="432" y="-10" type="curve" smooth="yes"/>
      <point x="440" y="-10"/>
      <point x="463" y="32"/>
    </contour>
    <contour>
      <point x="351" y="391" type="curve"/>
      <point x="390" y="391"/>
      <point x="428" y="391"/>
      <point x="467" y="391" type="curve" smooth="yes"/>
      <point x="472" y="391"/>
      <point x="475" y="392"/>
      <point x="478" y="399" type="curve" smooth="yes"/>
      <point x="516" y="498"/>
      <point x="554" y="597"/>
      <point x="593" y="697" type="curve" smooth="yes"/>
      <point x="596" y="705"/>
      <point x="593" y="710"/>
      <point x="585" y="710" type="curve" smooth="yes"/>
      <point x="511" y="710"/>
      <point x="473" y="710"/>
      <point x="382" y="710" type="curve"/>
      <point x="372" y="604"/>
      <point x="361" y="497"/>
    </contour>
    <contour>
      <point x="251" y="310" type="curve"/>
      <point x="212" y="310"/>
      <point x="174" y="310"/>
      <point x="135" y="310" type="curve" smooth="yes"/>
      <point x="130" y="310"/>
      <point x="127" y="309"/>
      <point x="124" y="302" type="curve" smooth="yes"/>
      <point x="86" y="203"/>
      <point x="48" y="104"/>
      <point x="9" y="4" type="curve" smooth="yes"/>
      <point x="6" y="-4"/>
      <point x="9" y="-9"/>
      <point x="17" y="-9" type="curve" smooth="yes"/>
      <point x="91" y="-9"/>
      <point x="129" y="-9"/>
      <point x="220" y="-9" type="curve"/>
      <point x="230" y="97"/>
      <point x="241" y="204"/>
    </contour>
  </outline>
</glyph>
<glyph name="parenleft" format="1">
  <advance width="400"/>
  <unicode hex="0028"/>
  <outline>
    <contour>
      <point x="152" y="738" type="curve" smooth="yes"/>
      <point x="69" y="655"/>
      <point x="31" y="579"/>
      <point x="31" y="403" type="curve" smooth="yes"/>
      <point x="31" y="234" type="line" smooth="yes"/>
      <point x="31" y="58"/>
      <point x="69" y="-18"/>
      <point x="152" y="-101" type="curve" smooth="yes"/>
      <point x="161" y="-110"/>
      <point x="167" y="-113"/>
      <point x="177" y="-113" type="curve" smooth="yes"/>
      <point x="253" y="-113"/>
      <point x="329" y="-113"/>
      <point x="405" y="-113" type="curve"/>
      <point x="405" y="-93" type="line"/>
      <point x="279" y="17"/>
      <point x="261" y="78"/>
      <point x="261" y="234" type="curve" smooth="yes"/>
      <point x="261" y="403" type="line" smooth="yes"/>
      <point x="261" y="559"/>
      <point x="279" y="620"/>
      <point x="405" y="730" type="curve"/>
      <point x="405" y="750" type="line"/>
      <point x="329" y="750"/>
      <point x="253" y="750"/>
      <point x="177" y="750" type="curve" smooth="yes"/>
      <point x="167" y="750"/>
      <point x="161" y="747"/>
    </contour>
  </outline>
</glyph>
<glyph name="parenright" format="1">
  <advance width="400"/>
  <unicode hex="0029"/>
  <outline>
    <contour>
      <point x="248" y="-77" type="curve" smooth="yes"/>
      <point x="331" y="6"/>
      <point x="369" y="82"/>
      <point x="369" y="258" type="curve" smooth="yes"/>
      <point x="369" y="427" type="line" smooth="yes"/>
      <point x="369" y="603"/>
      <point x="331" y="679"/>
      <point x="248" y="762" type="curve" smooth="yes"/>
      <point x="239" y="771"/>
      <point x="233" y="774"/>
      <point x="223" y="774" type="curve" smooth="yes"/>
      <point x="147" y="774"/>
      <point x="71" y="774"/>
      <point x="-5" y="774" type="curve"/>
      <point x="-5" y="754" type="line"/>
      <point x="121" y="644"/>
      <point x="139" y="583"/>
      <point x="139" y="427" type="curve" smooth="yes"/>
      <point x="139" y="258" type="line" smooth="yes"/>
      <point x="139" y="102"/>
      <point x="121" y="41"/>
      <point x="-5" y="-69" type="curve"/>
      <point x="-5" y="-89" type="line"/>
      <point x="71" y="-89"/>
      <point x="147" y="-89"/>
      <point x="223" y="-89" type="curve" smooth="yes"/>
      <point x="233" y="-89"/>
      <point x="239" y="-86"/>
    </contour>
  </outline>
</glyph>
<glyph name="plus" format="1">
  <advance width="600"/>
  <unicode hex="002B"/>
  <outline>
    <contour>
      <point x="60" y="374" type="line"/>
      <point x="60" y="328"/>
      <point x="60" y="283"/>
      <point x="60" y="237" type="curve" smooth="yes"/>
      <point x="60" y="234"/>
      <point x="61" y="231"/>
      <point x="63" y="229" type="curve" smooth="yes"/>
      <point x="65" y="227"/>
      <point x="68" y="226"/>
      <point x="71" y="226" type="curve"/>
      <point x="540" y="226" type="line"/>
      <point x="540" y="272"/>
      <point x="540" y="317"/>
      <point x="540" y="363" type="curve" smooth="yes"/>
      <point x="540" y="369"/>
      <point x="535" y="374"/>
      <point x="529" y="374" type="curve"/>
    </contour>
    <contour>
      <point x="375" y="62" type="curve"/>
      <point x="375" y="527" type="line" smooth="yes"/>
      <point x="375" y="530"/>
      <point x="374" y="533"/>
      <point x="372" y="535" type="curve" smooth="yes"/>
      <point x="370" y="537"/>
      <point x="367" y="538"/>
      <point x="364" y="538" type="curve" smooth="yes"/>
      <point x="319" y="538"/>
      <point x="280" y="538"/>
      <point x="225" y="538" type="curve"/>
      <point x="225" y="510"/>
      <point x="225" y="476"/>
      <point x="225" y="440" type="curve" smooth="yes"/>
      <point x="225" y="73" type="line" smooth="yes"/>
      <point x="225" y="67"/>
      <point x="230" y="62"/>
      <point x="236" y="62" type="curve" smooth="yes"/>
      <point x="286" y="62"/>
      <point x="325" y="62"/>
    </contour>
  </outline>
</glyph>
<glyph name="comma" format="1">
  <advance width="350"/>
  <unicode hex="002C"/>
  <outline>
    <contour>
      <point x="202" y="-190" type="curve" smooth="yes"/>
      <point x="206" y="-190"/>
      <point x="210" y="-189"/>
      <point x="212" y="-183" type="curve"/>
      <point x="252" y="-64"/>
      <point x="306" y="85"/>
      <point x="334" y="167" type="curve"/>
      <point x="336" y="175"/>
      <point x="334" y="180"/>
      <point x="326" y="180" type="curve" smooth="yes"/>
      <point x="232" y="180"/>
      <point x="176" y="180"/>
      <point x="67" y="180" type="curve"/>
      <point x="43" y="57"/>
      <point x="19" y="-67"/>
      <point x="-5" y="-190" type="curve"/>
      <point x="49" y="-190"/>
      <point x="111" y="-190"/>
    </contour>
  </outline>
</glyph>
<glyph name="three" format="1">
  <advance width="600"/>
  <unicode hex="0033"/>
  <outline>
    <contour>
      <point x="256" y="505" type="curve" smooth="yes"/>
      <point x="340" y="505"/>
      <point x="353" y="485"/>
      <point x="353" y="470" type="curve" smooth="yes"/>
      <point x="353" y="449"/>
      <point x="353" y="447"/>
      <point x="353" y="432" type="curve"/>
      <point x="458" y="431"/>
      <point x="562" y="445"/>
      <point x="562" y="525" type="curve" smooth="yes"/>
      <point x="562" y="542" type="line" smooth="yes"/>
      <point x="562" y="675"/>
      <point x="457" y="720"/>
      <point x="272" y="720" type="curve" smooth="yes"/>
      <point x="146" y="720"/>
      <point x="58" y="709"/>
      <point x="48" y="699" type="curve" smooth="yes"/>
      <point x="46" y="697"/>
      <point x="45" y="694"/>
      <point x="45" y="691" type="curve" smooth="yes"/>
      <point x="45" y="616"/>
      <point x="45" y="557"/>
      <point x="45" y="487" type="curve"/>
      <point x="65" y="487" type="line"/>
      <point x="119" y="500"/>
      <point x="180" y="505"/>
    </contour>
    <contour>
      <point x="144" y="340" type="curve" smooth="yes"/>
      <point x="375" y="340"/>
      <point x="562" y="335"/>
      <point x="562" y="525" type="curve" smooth="yes"/>
      <point x="562" y="548"/>
      <point x="444" y="580"/>
      <point x="353" y="580" type="curve"/>
      <point x="353" y="545"/>
      <point x="353" y="508"/>
      <point x="353" y="470" type="curve" smooth="yes"/>
      <point x="353" y="452"/>
      <point x="341" y="443"/>
      <point x="133" y="443" type="curve"/>
      <point x="133" y="411"/>
      <point x="133" y="383"/>
      <point x="133" y="352" type="curve" smooth="yes"/>
      <point x="133" y="346"/>
      <point x="138" y="340"/>
    </contour>
    <contour>
      <point x="144" y="255" type="curve" smooth="yes"/>
      <point x="353" y="255"/>
      <point x="364" y="248"/>
      <point x="364" y="229" type="curve" smooth="yes"/>
      <point x="364" y="198"/>
      <point x="364" y="195"/>
      <point x="364" y="145" type="curve"/>
      <point x="502" y="145"/>
      <point x="572" y="151"/>
      <point x="572" y="210" type="curve" smooth="yes"/>
      <point x="572" y="378"/>
      <point x="364" y="362"/>
      <point x="133" y="362" type="curve"/>
      <point x="133" y="321"/>
      <point x="133" y="299"/>
      <point x="133" y="266" type="curve" smooth="yes"/>
      <point x="133" y="258"/>
      <point x="136" y="255"/>
    </contour>
    <contour>
      <point x="256" y="195" type="curve" smooth="yes"/>
      <point x="164" y="195"/>
      <point x="120" y="200"/>
      <point x="55" y="213" type="curve"/>
      <point x="35" y="213" type="line"/>
      <point x="35" y="143"/>
      <point x="35" y="85"/>
      <point x="35" y="9" type="curve" smooth="yes"/>
      <point x="35" y="6"/>
      <point x="36" y="3"/>
      <point x="38" y="1" type="curve" smooth="yes"/>
      <point x="48" y="-9"/>
      <point x="136" y="-20"/>
      <point x="263" y="-20" type="curve" smooth="yes"/>
      <point x="434" y="-20"/>
      <point x="572" y="26"/>
      <point x="572" y="182" type="curve" smooth="yes"/>
      <point x="572" y="210" type="line" smooth="yes"/>
      <point x="572" y="287"/>
      <point x="480" y="296"/>
      <point x="364" y="294" type="curve"/>
      <point x="364" y="270"/>
      <point x="364" y="263"/>
      <point x="364" y="229" type="curve" smooth="yes"/>
      <point x="364" y="216"/>
      <point x="345" y="195"/>
    </contour>
  </outline>
</glyph>
<glyph name="six" format="1">
  <advance width="600"/>
  <unicode hex="0036"/>
  <outline>
    <contour>
      <point x="164" y="182" type="curve"/>
      <point x="164" y="27"/>
      <point x="233" y="-22"/>
      <point x="306" y="-22" type="curve"/>
      <point x="469" y="-22"/>
      <point x="574" y="72"/>
      <point x="574" y="196" type="curve" smooth="yes"/>
      <point x="574" y="260" type="line" smooth="yes"/>
      <point x="574" y="335"/>
      <point x="540" y="339"/>
      <point x="359" y="339" type="curve"/>
      <point x="359" y="302"/>
      <point x="359" y="290"/>
      <point x="359" y="258" type="curve" smooth="yes"/>
      <point x="359" y="216" type="line" smooth="yes"/>
      <point x="359" y="195"/>
      <point x="347" y="182"/>
      <point x="304" y="182" type="curve" smooth="yes"/>
      <point x="217" y="182"/>
      <point x="195" y="182"/>
    </contour>
    <contour>
      <point x="233" y="520" type="curve"/>
      <point x="267" y="520"/>
      <point x="305" y="520"/>
      <point x="350" y="520" type="curve" smooth="yes"/>
      <point x="422" y="520"/>
      <point x="465" y="514"/>
      <point x="511" y="502" type="curve"/>
      <point x="531" y="502" type="line"/>
      <point x="531" y="557"/>
      <point x="531" y="616"/>
      <point x="531" y="691" type="curve" smooth="yes"/>
      <point x="531" y="694"/>
      <point x="530" y="697"/>
      <point x="528" y="699" type="curve" smooth="yes"/>
      <point x="515" y="712"/>
      <point x="433" y="720"/>
      <point x="344" y="720" type="curve" smooth="yes"/>
      <point x="268" y="720"/>
      <point x="233" y="656"/>
    </contour>
    <contour>
      <point x="31" y="417" type="curve" smooth="yes"/>
      <point x="31" y="250" type="line" smooth="yes"/>
      <point x="31" y="73"/>
      <point x="127" y="-22"/>
      <point x="306" y="-22" type="curve" smooth="yes"/>
      <point x="309" y="-22"/>
      <point x="361" y="22"/>
      <point x="304" y="182" type="curve"/>
      <point x="262" y="182"/>
      <point x="246" y="198"/>
      <point x="246" y="244" type="curve" smooth="yes"/>
      <point x="246" y="407" type="line" smooth="yes"/>
      <point x="246" y="482"/>
      <point x="254" y="520"/>
      <point x="350" y="520" type="curve"/>
      <point x="404" y="687"/>
      <point x="349" y="720"/>
      <point x="344" y="720" type="curve" smooth="yes"/>
      <point x="146" y="720"/>
      <point x="31" y="610"/>
    </contour>
    <contour>
      <point x="391" y="453" type="curve" smooth="yes"/>
      <point x="325" y="453"/>
      <point x="281" y="436"/>
      <point x="241" y="396" type="curve" smooth="yes"/>
      <point x="213" y="368"/>
      <point x="198" y="313"/>
      <point x="198" y="260" type="curve"/>
      <point x="250" y="277"/>
      <point x="287" y="280"/>
      <point x="322" y="280" type="curve" smooth="yes"/>
      <point x="352" y="280"/>
      <point x="359" y="274"/>
      <point x="359" y="249" type="curve" smooth="yes"/>
      <point x="359" y="244"/>
      <point x="359" y="231"/>
      <point x="359" y="190" type="curve"/>
      <point x="547" y="190"/>
      <point x="574" y="232"/>
      <point x="574" y="260" type="curve" smooth="yes"/>
      <point x="574" y="381"/>
      <point x="501" y="453"/>
    </contour>
  </outline>
</glyph>
<glyph name="seven" format="1">
  <advance width="600"/>
  <unicode hex="0037"/>
  <outline>
    <contour>
      <point x="418" y="475" type="line" smooth="yes"/>
      <point x="480" y="475"/>
      <point x="536" y="478"/>
      <point x="570" y="500" type="curve"/>
      <point x="570" y="689" type="line"/>
      <point x="570" y="695"/>
      <point x="565" y="700"/>
      <point x="559" y="700" type="curve"/>
      <point x="30" y="700" type="line"/>
      <point x="30" y="624" type="line" smooth="yes"/>
      <point x="30" y="531"/>
      <point x="52" y="475"/>
      <point x="86" y="475" type="curve" smooth="yes"/>
    </contour>
    <contour>
      <point x="370" y="0" type="line"/>
      <point x="558" y="463"/>
      <point x="570" y="495"/>
      <point x="570" y="500" type="curve" smooth="yes"/>
      <point x="570" y="560"/>
      <point x="507" y="584"/>
      <point x="414" y="585" type="curve"/>
      <point x="123" y="37"/>
      <point x="120" y="28"/>
      <point x="120" y="11" type="curve" smooth="yes"/>
      <point x="120" y="6"/>
      <point x="125" y="0"/>
      <point x="130" y="0" type="curve" smooth="yes"/>
    </contour>
    <contour>
      <point x="235" y="430" type="curve"/>
      <point x="235" y="497"/>
      <point x="235" y="561"/>
      <point x="235" y="629" type="curve"/>
      <point x="235" y="674"/>
      <point x="183" y="700"/>
      <point x="44" y="700" type="curve" smooth="yes"/>
      <point x="30" y="700" type="line"/>
      <point x="30" y="612"/>
      <point x="30" y="528"/>
      <point x="30" y="440" type="curve"/>
      <point x="30" y="434"/>
      <point x="35" y="430"/>
      <point x="41" y="430" type="curve" smooth="yes"/>
      <point x="105" y="430"/>
      <point x="171" y="430"/>
    </contour>
  </outline>
</glyph>
<glyph name="nine" format="1">
  <advance width="600"/>
  <unicode hex="0039"/>
  <outline>
    <contour>
      <point x="437" y="516" type="curve"/>
      <point x="437" y="671"/>
      <point x="363" y="720"/>
      <point x="285" y="720" type="curve"/>
      <point x="131" y="720"/>
      <point x="27" y="622"/>
      <point x="27" y="502" type="curve" smooth="yes"/>
      <point x="27" y="438" type="line" smooth="yes"/>
      <point x="27" y="363"/>
      <point x="61" y="359"/>
      <point x="242" y="359" type="curve"/>
      <point x="242" y="396"/>
      <point x="242" y="408"/>
      <point x="242" y="440" type="curve" smooth="yes"/>
      <point x="242" y="482" type="line" smooth="yes"/>
      <point x="242" y="503"/>
      <point x="254" y="516"/>
      <point x="297" y="516" type="curve" smooth="yes"/>
      <point x="384" y="516"/>
      <point x="406" y="516"/>
    </contour>
    <contour>
      <point x="428" y="178" type="curve"/>
      <point x="376" y="178"/>
      <point x="316" y="178"/>
      <point x="246" y="178" type="curve" smooth="yes"/>
      <point x="176" y="178"/>
      <point x="135" y="184"/>
      <point x="90" y="196" type="curve"/>
      <point x="70" y="196" type="line"/>
      <point x="70" y="142"/>
      <point x="70" y="84"/>
      <point x="70" y="11" type="curve" smooth="yes"/>
      <point x="70" y="8"/>
      <point x="71" y="5"/>
      <point x="73" y="3" type="curve" smooth="yes"/>
      <point x="87" y="-11"/>
      <point x="169" y="-22"/>
      <point x="262" y="-22" type="curve" smooth="yes"/>
      <point x="375" y="-22"/>
      <point x="428" y="42"/>
    </contour>
    <contour>
      <point x="570" y="271" type="curve" smooth="yes"/>
      <point x="570" y="448" type="line" smooth="yes"/>
      <point x="570" y="625"/>
      <point x="471" y="720"/>
      <point x="285" y="720" type="curve" smooth="yes"/>
      <point x="266" y="720"/>
      <point x="237" y="686"/>
      <point x="297" y="516" type="curve"/>
      <point x="339" y="516"/>
      <point x="355" y="500"/>
      <point x="355" y="454" type="curve" smooth="yes"/>
      <point x="355" y="291" type="line" smooth="yes"/>
      <point x="355" y="216"/>
      <point x="347" y="178"/>
      <point x="246" y="178" type="curve"/>
      <point x="221" y="10"/>
      <point x="246" y="-22"/>
      <point x="262" y="-22" type="curve" smooth="yes"/>
      <point x="459" y="-22"/>
      <point x="570" y="81"/>
    </contour>
    <contour>
      <point x="210" y="245" type="curve" smooth="yes"/>
      <point x="276" y="245"/>
      <point x="320" y="262"/>
      <point x="360" y="302" type="curve" smooth="yes"/>
      <point x="388" y="330"/>
      <point x="403" y="385"/>
      <point x="403" y="438" type="curve"/>
      <point x="351" y="421"/>
      <point x="314" y="418"/>
      <point x="279" y="418" type="curve" smooth="yes"/>
      <point x="249" y="418"/>
      <point x="242" y="424"/>
      <point x="242" y="449" type="curve" smooth="yes"/>
      <point x="242" y="454"/>
      <point x="242" y="467"/>
      <point x="242" y="508" type="curve"/>
      <point x="54" y="508"/>
      <point x="27" y="466"/>
      <point x="27" y="438" type="curve" smooth="yes"/>
      <point x="27" y="317"/>
      <point x="100" y="245"/>
    </contour>
  </outline>
</glyph>
<glyph name="colon" format="1">
  <advance width="300"/>
  <unicode hex="003A"/>
  <outline>
    <contour>
      <point x="274" y="312" type="curve"/>
      <point x="274" y="551" type="line" smooth="yes"/>
      <point x="274" y="557"/>
      <point x="269" y="562"/>
      <point x="263" y="562" type="curve" smooth="yes"/>
      <point x="179" y="562"/>
      <point x="110" y="562"/>
      <point x="26" y="562" type="curve"/>
      <point x="26" y="323" type="line" smooth="yes"/>
      <point x="26" y="317"/>
      <point x="31" y="312"/>
      <point x="37" y="312" type="curve" smooth="yes"/>
      <point x="121" y="312"/>
      <point x="190" y="312"/>
    </contour>
    <contour>
      <point x="274" y="-13" type="curve"/>
      <point x="274" y="226" type="line" smooth="yes"/>
      <point x="274" y="232"/>
      <point x="269" y="237"/>
      <point x="263" y="237" type="curve" smooth="yes"/>
      <point x="179" y="237"/>
      <point x="110" y="237"/>
      <point x="26" y="237" type="curve"/>
      <point x="26" y="-2" type="line" smooth="yes"/>
      <point x="26" y="-8"/>
      <point x="31" y="-13"/>
      <point x="37" y="-13" type="curve" smooth="yes"/>
      <point x="121" y="-13"/>
      <point x="190" y="-13"/>
    </contour>
  </outline>
</glyph>
<glyph name="semicolon" format="1">
  <advance width="350"/>
  <unicode hex="003B"/>
  <outline>
    <contour>
      <point x="149" y="312" type="curve"/>
      <point x="149" y="551" type="line" smooth="yes"/>
      <point x="149" y="557"/>
      <point x="144" y="562"/>
      <point x="138" y="562" type="curve" smooth="yes"/>
      <point x="54" y="562"/>
      <point x="-15" y="562"/>
      <point x="-99" y="562" type="curve"/>
      <point x="-99" y="323" type="line" smooth="yes"/>
      <point x="-99" y="317"/>
      <point x="-94" y="312"/>
      <point x="-88" y="312" type="curve" smooth="yes"/>
      <point x="-4" y="312"/>
      <point x="65" y="312"/>
    </contour>
    <contour>
      <point x="41" y="-271" type="curve" smooth="yes"/>
      <point x="45" y="-271"/>
      <point x="49" y="-270"/>
      <point x="51" y="-264" type="curve"/>
      <point x="91" y="-145"/>
      <point x="145" y="4"/>
      <point x="173" y="86" type="curve"/>
      <point x="175" y="94"/>
      <point x="173" y="99"/>
      <point x="165" y="99" type="curve" smooth="yes"/>
      <point x="71" y="99"/>
      <point x="15" y="99"/>
      <point x="-94" y="99" type="curve"/>
      <point x="-118" y="-24"/>
      <point x="-142" y="-148"/>
      <point x="-166" y="-271" type="curve"/>
      <point x="-112" y="-271"/>
      <point x="-50" y="-271"/>
    </contour>
  </outline>
</glyph>
<glyph name="at" format="1">
  <advance width="600"/>
  <unicode hex="0040"/>
  <outline>
    <contour>
      <point x="424" y="492" type="curve" smooth="yes"/>
      <point x="405" y="522"/>
      <point x="353" y="558"/>
      <point x="288" y="558" type="curve" smooth="yes"/>
      <point x="249" y="558"/>
      <point x="228" y="547"/>
      <point x="210" y="529" type="curve" smooth="yes"/>
      <point x="194" y="513"/>
      <point x="203" y="503"/>
      <point x="347" y="394" type="curve"/>
      <point x="347" y="409"/>
      <point x="355" y="412"/>
      <point x="368" y="412" type="curve" smooth="yes"/>
      <point x="394" y="412"/>
      <point x="423" y="408"/>
      <point x="448" y="397" type="curve"/>
      <point x="441" y="451"/>
      <point x="435" y="474"/>
    </contour>
    <contour>
      <point x="449" y="194" type="curve"/>
      <point x="423" y="157"/>
      <point x="400" y="139"/>
      <point x="368" y="139" type="curve" smooth="yes"/>
      <point x="353" y="139"/>
      <point x="347" y="147"/>
      <point x="347" y="162" type="curve" smooth="yes"/>
      <point x="347" y="394" type="line" smooth="yes"/>
      <point x="347" y="429"/>
      <point x="350" y="444"/>
      <point x="366" y="476" type="curve"/>
      <point x="246" y="550"/>
      <point x="227" y="546"/>
      <point x="210" y="529" type="curve" smooth="yes"/>
      <point x="185" y="504"/>
      <point x="177" y="476"/>
      <point x="177" y="435" type="curve" smooth="yes"/>
      <point x="177" y="97" type="line" smooth="yes"/>
      <point x="177" y="29"/>
      <point x="224" y="-11"/>
      <point x="288" y="-11" type="curve" smooth="yes"/>
      <point x="361" y="-11"/>
      <point x="415" y="15"/>
      <point x="459" y="95" type="curve" smooth="yes"/>
      <point x="465" y="106"/>
      <point x="464" y="109"/>
    </contour>
    <contour>
      <point x="562" y="-1" type="line"/>
      <point x="562" y="36"/>
      <point x="562" y="73"/>
      <point x="562" y="109" type="curve"/>
      <point x="562" y="525" type="line" smooth="yes"/>
      <point x="562" y="684"/>
      <point x="432" y="749"/>
      <point x="295" y="749" type="curve" smooth="yes"/>
      <point x="289" y="749"/>
      <point x="268" y="714"/>
      <point x="284" y="669" type="curve"/>
      <point x="361" y="669"/>
      <point x="392" y="633"/>
      <point x="392" y="559" type="curve" smooth="yes"/>
      <point x="392" y="103" type="line" smooth="yes"/>
      <point x="392" y="100"/>
      <point x="495" y="-1"/>
      <point x="508" y="-1" type="curve" smooth="yes"/>
    </contour>
    <contour>
      <point x="38" y="478" type="curve" smooth="yes"/>
      <point x="38" y="119" type="line" smooth="yes"/>
      <point x="38" y="-2"/>
      <point x="57" y="-72"/>
      <point x="102" y="-117" type="curve" smooth="yes"/>
      <point x="161" y="-176"/>
      <point x="314" y="-156"/>
      <point x="338" y="-113" type="curve"/>
      <point x="161" y="-113"/>
      <point x="124" y="-41"/>
      <point x="124" y="83" type="curve" smooth="yes"/>
      <point x="124" y="494" type="line" smooth="yes"/>
      <point x="124" y="593"/>
      <point x="180" y="669"/>
      <point x="284" y="669" type="curve" smooth="yes"/>
      <point x="347" y="669"/>
      <point x="377" y="654"/>
      <point x="404" y="634" type="curve"/>
      <point x="419" y="643"/>
      <point x="422" y="649"/>
      <point x="422" y="672" type="curve" smooth="yes"/>
      <point x="422" y="710"/>
      <point x="369" y="749"/>
      <point x="295" y="749" type="curve" smooth="yes"/>
      <point x="137" y="749"/>
      <point x="38" y="630"/>
    </contour>
    <contour>
      <point x="313" y="-193" type="curve" smooth="yes"/>
      <point x="384" y="-193"/>
      <point x="475" y="-175"/>
      <point x="486" y="-165" type="curve" smooth="yes"/>
      <point x="488" y="-163"/>
      <point x="489" y="-160"/>
      <point x="489" y="-157" type="curve" smooth="yes"/>
      <point x="489" y="-88" type="line"/>
      <point x="466" y="-88" type="line"/>
      <point x="434" y="-103"/>
      <point x="381" y="-113"/>
      <point x="338" y="-113" type="curve" smooth="yes"/>
      <point x="203" y="-113"/>
      <point x="167" y="-85"/>
      <point x="106" y="-12" type="curve"/>
      <point x="72" y="-46"/>
      <point x="94" y="-109"/>
      <point x="102" y="-117" type="curve"/>
      <point x="155" y="-170"/>
      <point x="220" y="-193"/>
    </contour>
  </outline>
</glyph>
<glyph name="A" format="1">
  <advance width="600"/>
  <unicode hex="0041"/>
  <outline>
    <contour>
      <point x="210" y="0" type="curve"/>
      <point x="240" y="189"/>
      <point x="270" y="379"/>
      <point x="300" y="568" type="curve"/>
      <point x="316" y="660"/>
      <point x="348" y="678"/>
      <point x="454" y="700" type="curve"/>
      <point x="136" y="700" type="line"/>
      <point x="93" y="471"/>
      <point x="50" y="242"/>
      <point x="7" y="13" type="curve"/>
      <point x="5" y="3"/>
      <point x="11" y="0"/>
      <point x="15" y="0" type="curve" smooth="yes"/>
      <point x="80" y="0"/>
      <point x="145" y="0"/>
    </contour>
    <contour>
      <point x="596" y="0" type="curve"/>
      <point x="553" y="229"/>
      <point x="509" y="460"/>
      <point x="466" y="689" type="curve"/>
      <point x="465" y="694"/>
      <point x="464" y="695"/>
      <point x="462" y="697" type="curve" smooth="yes"/>
      <point x="459" y="700"/>
      <point x="458" y="700"/>
      <point x="454" y="700" type="curve"/>
      <point x="284" y="700"/>
      <point x="250" y="686"/>
      <point x="250" y="515" type="curve"/>
      <point x="266" y="515"/>
      <point x="289" y="515"/>
      <point x="301" y="515" type="curve" smooth="yes"/>
      <point x="305" y="515"/>
      <point x="308" y="514"/>
      <point x="309" y="509" type="curve"/>
      <point x="335" y="343"/>
      <point x="362" y="177"/>
      <point x="388" y="11" type="curve"/>
      <point x="389" y="6"/>
      <point x="390" y="4"/>
      <point x="391" y="3" type="curve" smooth="yes"/>
      <point x="393" y="1"/>
      <point x="395" y="0"/>
      <point x="399" y="0" type="curve" smooth="yes"/>
      <point x="465" y="0"/>
      <point x="530" y="0"/>
    </contour>
    <contour>
      <point x="140" y="290" type="line"/>
      <point x="140" y="111" type="line" smooth="yes"/>
      <point x="140" y="108"/>
      <point x="141" y="105"/>
      <point x="143" y="103" type="curve" smooth="yes"/>
      <point x="145" y="101"/>
      <point x="148" y="100"/>
      <point x="151" y="100" type="curve"/>
      <point x="460" y="100" type="line"/>
      <point x="460" y="279"/>
      <point x="455" y="290"/>
      <point x="449" y="290" type="curve" smooth="yes"/>
    </contour>
    <contour>
      <point x="300" y="711" type="move" name="top"/>
    </contour>
    <contour>
      <point x="597" y="0" type="move" name="ogonek"/>
    </contour>
    <contour>
      <point x="300" y="701" type="move" name="ring"/>
    </contour>
    <contour>
      <point x="300" y="-1" type="move" name="bottom"/>
    </contour>
  </outline>
</glyph>
<glyph name="E" format="1">
  <advance width="550"/>
  <unicode hex="0045"/>
  <outline>
    <contour>
      <point x="9" y="700" type="line"/>
      <point x="9" y="640"/>
      <point x="9" y="581"/>
      <point x="9" y="521" type="curve" smooth="yes"/>
      <point x="9" y="518"/>
      <point x="10" y="515"/>
      <point x="12" y="513" type="curve" smooth="yes"/>
      <point x="14" y="511"/>
      <point x="17" y="510"/>
      <point x="20" y="510" type="curve" smooth="yes"/>
      <point x="520" y="510" type="line"/>
      <point x="520" y="570"/>
      <point x="520" y="629"/>
      <point x="520" y="689" type="curve" smooth="yes"/>
      <point x="520" y="692"/>
      <point x="519" y="695"/>
      <point x="517" y="697" type="curve" smooth="yes"/>
      <point x="515" y="699"/>
      <point x="512" y="700"/>
      <point x="509" y="700" type="curve" smooth="yes"/>
    </contour>
    <contour>
      <point x="264" y="100" type="curve"/>
      <point x="264" y="639" type="line" smooth="yes"/>
      <point x="264" y="645"/>
      <point x="259" y="650"/>
      <point x="39" y="650" type="curve"/>
      <point x="39" y="111" type="line"/>
      <point x="39" y="105"/>
      <point x="44" y="100"/>
    </contour>
    <contour>
      <point x="39" y="190" type="line"/>
      <point x="39" y="11" type="line" smooth="yes"/>
      <point x="39" y="5"/>
      <point x="44" y="0"/>
      <point x="50" y="0" type="curve" smooth="yes"/>
      <point x="520" y="0" type="line"/>
      <point x="520" y="60"/>
      <point x="520" y="119"/>
      <point x="520" y="179" type="curve" smooth="yes"/>
      <point x="520" y="185"/>
      <point x="515" y="190"/>
      <point x="509" y="190" type="curve" smooth="yes"/>
    </contour>
    <contour>
      <point x="149" y="435" type="line"/>
      <point x="149" y="269"/>
      <point x="154" y="265"/>
      <point x="160" y="265" type="curve" smooth="yes"/>
      <point x="460" y="265" type="line"/>
      <point x="460" y="318"/>
      <point x="460" y="371"/>
      <point x="460" y="424" type="curve" smooth="yes"/>
      <point x="460" y="427"/>
      <point x="459" y="430"/>
      <point x="457" y="432" type="curve" smooth="yes"/>
      <point x="455" y="434"/>
      <point x="452" y="435"/>
      <point x="449" y="435" type="curve" smooth="yes"/>
    </contour>
    <contour>
      <point x="264" y="711" type="move" name="top"/>
    </contour>
    <contour>
      <point x="521" y="0" type="move" name="ogonek"/>
    </contour>
    <contour>
      <point x="264" y="-1" type="move" name="bottom"/>
    </contour>
  </outline>
</glyph>
<glyph name="F" format="1">
  <advance width="550"/>
  <unicode hex="0046"/>
  <outline>
    <contour>
      <point x="284" y="0" type="curve"/>
      <point x="284" y="28"/>
      <point x="284" y="62"/>
      <point x="284" y="98" type="curve" smooth="yes"/>
      <point x="284" y="632" type="line"/>
      <point x="284" y="643"/>
      <point x="206" y="649"/>
      <point x="59" y="649" type="curve"/>
      <point x="59" y="11" type="line" smooth="yes"/>
      <point x="59" y="5"/>
      <point x="64" y="0"/>
      <point x="70" y="0" type="curve" smooth="yes"/>
      <point x="141" y="0"/>
      <point x="213" y="0"/>
    </contour>
    <contour>
      <point x="9" y="700" type="line"/>
      <point x="9" y="634"/>
      <point x="9" y="567"/>
      <point x="9" y="501" type="curve" smooth="yes"/>
      <point x="9" y="498"/>
      <point x="10" y="495"/>
      <point x="12" y="493" type="curve" smooth="yes"/>
      <point x="14" y="491"/>
      <point x="17" y="490"/>
      <point x="20" y="490" type="curve"/>
      <point x="520" y="490" type="line"/>
      <point x="520" y="536"/>
      <point x="520" y="643"/>
      <point x="520" y="689" type="curve" smooth="yes"/>
      <point x="520" y="692"/>
      <point x="519" y="695"/>
      <point x="517" y="697" type="curve" smooth="yes"/>
      <point x="515" y="699"/>
      <point x="512" y="700"/>
      <point x="509" y="700" type="curve"/>
    </contour>
    <contour>
      <point x="169" y="400" type="line"/>
      <point x="169" y="276"/>
      <point x="171" y="200"/>
      <point x="180" y="200" type="curve"/>
      <point x="460" y="200" type="line"/>
      <point x="460" y="246"/>
      <point x="460" y="343"/>
      <point x="460" y="389" type="curve"/>
      <point x="460" y="392"/>
      <point x="459" y="395"/>
      <point x="457" y="397" type="curve" smooth="yes"/>
      <point x="455" y="399"/>
      <point x="452" y="400"/>
      <point x="449" y="400" type="curve"/>
    </contour>
  </outline>
</glyph>
<glyph name="H" format="1">
  <advance width="650"/>
  <unicode hex="0048"/>
  <outline>
    <contour>
      <point x="35" y="700" type="curve"/>
      <point x="35" y="667"/>
      <point x="35" y="633"/>
      <point x="35" y="600" type="curve" smooth="yes"/>
      <point x="35" y="11" type="line" smooth="yes"/>
      <point x="35" y="5"/>
      <point x="40" y="0"/>
      <point x="46" y="0" type="curve" smooth="yes"/>
      <point x="117" y="0"/>
      <point x="189" y="0"/>
      <point x="260" y="0" type="curve"/>
      <point x="260" y="689" type="line" smooth="yes"/>
      <point x="260" y="692"/>
      <point x="259" y="695"/>
      <point x="257" y="697" type="curve" smooth="yes"/>
      <point x="255" y="699"/>
      <point x="252" y="700"/>
      <point x="249" y="700" type="curve" smooth="yes"/>
      <point x="178" y="700"/>
      <point x="106" y="700"/>
    </contour>
    <contour>
      <point x="615" y="0" type="curve"/>
      <point x="615" y="33"/>
      <point x="615" y="67"/>
      <point x="615" y="100" type="curve" smooth="yes"/>
      <point x="615" y="689" type="line" smooth="yes"/>
      <point x="615" y="695"/>
      <point x="610" y="700"/>
      <point x="604" y="700" type="curve" smooth="yes"/>
      <point x="533" y="700"/>
      <point x="461" y="700"/>
      <point x="390" y="700" type="curve"/>
      <point x="390" y="11" type="line" smooth="yes"/>
      <point x="390" y="8"/>
      <point x="391" y="5"/>
      <point x="393" y="3" type="curve" smooth="yes"/>
      <point x="395" y="1"/>
      <point x="398" y="0"/>
      <point x="401" y="0" type="curve" smooth="yes"/>
      <point x="472" y="0"/>
      <point x="544" y="0"/>
    </contour>
    <contour>
      <point x="135" y="460" type="line"/>
      <point x="135" y="261" type="line" smooth="yes"/>
      <point x="135" y="258"/>
      <point x="136" y="255"/>
      <point x="138" y="253" type="curve" smooth="yes"/>
      <point x="140" y="251"/>
      <point x="143" y="250"/>
      <point x="146" y="250" type="curve"/>
      <point x="510" y="250" type="line"/>
      <point x="510" y="455"/>
      <point x="505" y="460"/>
      <point x="499" y="460" type="curve" smooth="yes"/>
    </contour>
    <contour>
      <point x="325" y="711" type="move" name="top"/>
    </contour>
  </outline>
</glyph>
<glyph name="I" format="1">
  <advance width="500"/>
  <unicode hex="0049"/>
  <outline>
    <contour>
      <point x="362" y="50" type="curve"/>
      <point x="362" y="639" type="line" smooth="yes"/>
      <point x="362" y="645"/>
      <point x="357" y="650"/>
      <point x="138" y="650" type="curve"/>
      <point x="138" y="61" type="line" smooth="yes"/>
      <point x="138" y="55"/>
      <point x="143" y="50"/>
    </contour>
    <contour>
      <point x="30" y="700" type="line"/>
      <point x="30" y="654"/>
      <point x="30" y="547"/>
      <point x="30" y="501" type="curve"/>
      <point x="30" y="498"/>
      <point x="31" y="495"/>
      <point x="33" y="493" type="curve" smooth="yes"/>
      <point x="35" y="491"/>
      <point x="38" y="490"/>
      <point x="41" y="490" type="curve" smooth="yes"/>
      <point x="470" y="490" type="line"/>
      <point x="470" y="536"/>
      <point x="470" y="643"/>
      <point x="470" y="689" type="curve" smooth="yes"/>
      <point x="470" y="695"/>
      <point x="465" y="700"/>
      <point x="459" y="700" type="curve" smooth="yes"/>
    </contour>
    <contour>
      <point x="30" y="210" type="line"/>
      <point x="30" y="164"/>
      <point x="30" y="57"/>
      <point x="30" y="11" type="curve"/>
      <point x="30" y="8"/>
      <point x="31" y="5"/>
      <point x="33" y="3" type="curve" smooth="yes"/>
      <point x="35" y="1"/>
      <point x="38" y="0"/>
      <point x="41" y="0" type="curve" smooth="yes"/>
      <point x="470" y="0" type="line"/>
      <point x="470" y="46"/>
      <point x="470" y="153"/>
      <point x="470" y="199" type="curve" smooth="yes"/>
      <point x="470" y="205"/>
      <point x="465" y="210"/>
      <point x="459" y="210" type="curve" smooth="yes"/>
    </contour>
    <contour>
      <point x="250" y="711" type="move" name="top"/>
    </contour>
    <contour>
      <point x="471" y="0" type="move" name="ogonek"/>
    </contour>
    <contour>
      <point x="250" y="-1" type="move" name="bottom"/>
    </contour>
  </outline>
</glyph>
<glyph name="L" format="1">
  <advance width="550"/>
  <unicode hex="004C"/>
  <outline>
    <contour>
      <point x="270" y="100" type="curve"/>
      <point x="270" y="689" type="line" smooth="yes"/>
      <point x="270" y="692"/>
      <point x="269" y="695"/>
      <point x="267" y="697" type="curve" smooth="yes"/>
      <point x="265" y="699"/>
      <point x="262" y="700"/>
      <point x="259" y="700" type="curve" smooth="yes"/>
      <point x="184" y="700"/>
      <point x="110" y="700"/>
      <point x="35" y="700" type="curve"/>
      <point x="35" y="667"/>
      <point x="35" y="633"/>
      <point x="35" y="600" type="curve" smooth="yes"/>
      <point x="35" y="111" type="line" smooth="yes"/>
      <point x="35" y="105"/>
      <point x="40" y="100"/>
    </contour>
    <contour>
      <point x="35" y="220" type="line"/>
      <point x="35" y="11" type="line" smooth="yes"/>
      <point x="35" y="5"/>
      <point x="40" y="0"/>
      <point x="46" y="0" type="curve" smooth="yes"/>
      <point x="520" y="0" type="line"/>
      <point x="520" y="70"/>
      <point x="520" y="139"/>
      <point x="520" y="209" type="curve" smooth="yes"/>
      <point x="520" y="215"/>
      <point x="515" y="220"/>
      <point x="509" y="220" type="curve" smooth="yes"/>
    </contour>
    <contour>
      <point x="427" y="550" type="move" name="caronslovak"/>
    </contour>
    <contour>
      <point x="157" y="711" type="move" name="top"/>
    </contour>
    <contour>
      <point x="427" y="400" type="move" name="dot"/>
    </contour>
    <contour>
      <point x="277" y="-1" type="move" name="bottom"/>
    </contour>
  </outline>
</glyph>
<glyph name="M" format="1">
  <advance width="800"/>
  <unicode hex="004D"/>
  <outline>
    <contour>
      <point x="255" y="0" type="curve"/>
      <point x="255" y="51"/>
      <point x="255" y="102"/>
      <point x="255" y="153" type="curve" smooth="yes"/>
      <point x="241" y="331"/>
      <point x="226" y="511"/>
      <point x="212" y="689" type="curve" smooth="yes"/>
      <point x="212" y="692"/>
      <point x="211" y="695"/>
      <point x="209" y="697" type="curve" smooth="yes"/>
      <point x="207" y="699"/>
      <point x="204" y="700"/>
      <point x="201" y="700" type="curve" smooth="yes"/>
      <point x="159" y="700"/>
      <point x="77" y="700"/>
      <point x="35" y="700" type="curve"/>
      <point x="35" y="662"/>
      <point x="35" y="625"/>
      <point x="35" y="587" type="curve" smooth="yes"/>
      <point x="35" y="395"/>
      <point x="35" y="203"/>
      <point x="35" y="11" type="curve" smooth="yes"/>
      <point x="35" y="8"/>
      <point x="36" y="5"/>
      <point x="38" y="3" type="curve" smooth="yes"/>
      <point x="40" y="1"/>
      <point x="43" y="0"/>
      <point x="46" y="0" type="curve" smooth="yes"/>
      <point x="91" y="0"/>
      <point x="210" y="0"/>
    </contour>
    <contour>
      <point x="765" y="0" type="curve"/>
      <point x="765" y="37"/>
      <point x="765" y="75"/>
      <point x="765" y="112" type="curve" smooth="yes"/>
      <point x="765" y="304"/>
      <point x="765" y="497"/>
      <point x="765" y="689" type="curve"/>
      <point x="765" y="692"/>
      <point x="764" y="695"/>
      <point x="762" y="697" type="curve" smooth="yes"/>
      <point x="760" y="699"/>
      <point x="757" y="700"/>
      <point x="754" y="700" type="curve" smooth="yes"/>
      <point x="587" y="700" type="line"/>
      <point x="587" y="683"/>
      <point x="586" y="665"/>
      <point x="586" y="648" type="curve"/>
      <point x="572" y="483"/>
      <point x="559" y="319"/>
      <point x="545" y="154" type="curve" smooth="yes"/>
      <point x="545" y="110"/>
      <point x="545" y="64"/>
      <point x="545" y="20" type="curve" smooth="yes"/>
      <point x="545" y="8"/>
      <point x="547" y="5"/>
      <point x="549" y="3" type="curve" smooth="yes"/>
      <point x="551" y="1"/>
      <point x="553" y="0"/>
      <point x="557" y="0" type="curve" smooth="yes"/>
      <point x="603" y="0"/>
      <point x="719" y="0"/>
    </contour>
    <contour>
      <point x="315" y="687" type="curve" smooth="yes"/>
      <point x="312" y="697"/>
      <point x="307" y="700"/>
      <point x="299" y="700" type="curve"/>
      <point x="131" y="700" type="line"/>
      <point x="141" y="674"/>
      <point x="151" y="647"/>
      <point x="161" y="621" type="curve" smooth="yes"/>
      <point x="219" y="450"/>
      <point x="278" y="278"/>
      <point x="336" y="107" type="curve"/>
      <point x="337" y="103"/>
      <point x="343" y="100"/>
      <point x="347" y="100" type="curve" smooth="yes"/>
      <point x="355" y="100"/>
      <point x="323" y="147"/>
      <point x="440" y="294" type="curve"/>
      <point x="398" y="425"/>
      <point x="357" y="556"/>
    </contour>
    <contour>
      <point x="484" y="700" type="curve"/>
      <point x="443" y="565"/>
      <point x="403" y="429"/>
      <point x="362" y="294" type="curve"/>
      <point x="317" y="140"/>
      <point x="354" y="110"/>
      <point x="347" y="100" type="curve"/>
      <point x="459" y="100" type="line"/>
      <point x="527" y="295"/>
      <point x="596" y="492"/>
      <point x="664" y="687" type="curve" smooth="yes"/>
      <point x="666" y="696"/>
      <point x="664" y="700"/>
      <point x="656" y="700" type="curve" smooth="yes"/>
      <point x="598" y="700"/>
      <point x="540" y="700"/>
    </contour>
  </outline>
</glyph>
<glyph name="P" format="1">
  <advance width="600"/>
  <unicode hex="0050"/>
  <outline>
    <contour>
      <point x="261" y="0" type="curve"/>
      <point x="261" y="31"/>
      <point x="261" y="65"/>
      <point x="261" y="101" type="curve" smooth="yes"/>
      <point x="261" y="639" type="line" smooth="yes"/>
      <point x="261" y="645"/>
      <point x="256" y="650"/>
      <point x="35" y="650" type="curve"/>
      <point x="35" y="11" type="line" smooth="yes"/>
      <point x="35" y="8"/>
      <point x="36" y="5"/>
      <point x="38" y="3" type="curve" smooth="yes"/>
      <point x="40" y="1"/>
      <point x="43" y="0"/>
      <point x="46" y="0" type="curve" smooth="yes"/>
      <point x="118" y="0"/>
      <point x="189" y="0"/>
    </contour>
    <contour>
      <point x="5" y="700" type="curve"/>
      <point x="5" y="637"/>
      <point x="5" y="574"/>
      <point x="5" y="511" type="curve"/>
      <point x="5" y="508"/>
      <point x="6" y="505"/>
      <point x="8" y="503" type="curve" smooth="yes"/>
      <point x="10" y="501"/>
      <point x="13" y="500"/>
      <point x="16" y="500" type="curve" smooth="yes"/>
      <point x="30" y="500"/>
      <point x="78" y="500"/>
      <point x="92" y="500" type="curve" smooth="yes"/>
      <point x="155" y="500"/>
      <point x="231" y="500"/>
      <point x="293" y="500" type="curve" smooth="yes"/>
      <point x="337" y="500"/>
      <point x="372" y="500"/>
      <point x="443" y="500" type="curve"/>
      <point x="443" y="639"/>
      <point x="421" y="700"/>
      <point x="341" y="700" type="curve" smooth="yes"/>
      <point x="273" y="700"/>
      <point x="82" y="700"/>
    </contour>
    <contour>
      <point x="575" y="396" type="curve" smooth="yes"/>
      <point x="575" y="456" type="line" smooth="yes"/>
      <point x="575" y="612"/>
      <point x="485" y="700"/>
      <point x="341" y="700" type="curve"/>
      <point x="317" y="700"/>
      <point x="293" y="693"/>
      <point x="293" y="500" type="curve"/>
      <point x="323" y="500"/>
      <point x="345" y="497"/>
      <point x="345" y="449" type="curve" smooth="yes"/>
      <point x="345" y="396" type="line" smooth="yes"/>
      <point x="345" y="358"/>
      <point x="325" y="340"/>
      <point x="289" y="340" type="curve" smooth="yes"/>
      <point x="251" y="340"/>
      <point x="213" y="340"/>
      <point x="175" y="340" type="curve"/>
      <point x="175" y="287"/>
      <point x="175" y="228"/>
      <point x="175" y="161" type="curve" smooth="yes"/>
      <point x="175" y="155"/>
      <point x="180" y="150"/>
      <point x="186" y="150" type="curve" smooth="yes"/>
      <point x="355" y="150" type="line" smooth="yes"/>
      <point x="491" y="150"/>
      <point x="575" y="243"/>
    </contour>
  </outline>
</glyph>
<glyph name="Q" format="1">
  <advance width="650"/>
  <unicode hex="0051"/>
  <outline>
    <contour>
      <point x="325" y="720" type="curve" smooth="yes"/>
      <point x="141" y="720"/>
      <point x="30" y="616"/>
      <point x="30" y="446" type="curve" smooth="yes"/>
      <point x="30" y="254" type="line" smooth="yes"/>
      <point x="30" y="83"/>
      <point x="141" y="-20"/>
      <point x="325" y="-20" type="curve" smooth="yes"/>
      <point x="325" y="-20"/>
      <point x="358" y="11"/>
      <point x="325" y="180" type="curve"/>
      <point x="279" y="180"/>
      <point x="255" y="202"/>
      <point x="255" y="250" type="curve" smooth="yes"/>
      <point x="255" y="450" type="line" smooth="yes"/>
      <point x="255" y="492"/>
      <point x="283" y="520"/>
      <point x="325" y="520" type="curve" smooth="yes"/>
      <point x="390" y="520"/>
      <point x="447" y="520"/>
      <point x="482" y="520" type="curve"/>
      <point x="482" y="648"/>
      <point x="425" y="720"/>
    </contour>
    <contour>
      <point x="325" y="-20" type="curve" smooth="yes"/>
      <point x="509" y="-20"/>
      <point x="620" y="84"/>
      <point x="620" y="254" type="curve" smooth="yes"/>
      <point x="620" y="446" type="line" smooth="yes"/>
      <point x="620" y="617"/>
      <point x="509" y="720"/>
      <point x="325" y="720" type="curve" smooth="yes"/>
      <point x="325" y="720"/>
      <point x="292" y="689"/>
      <point x="325" y="520" type="curve"/>
      <point x="371" y="520"/>
      <point x="395" y="498"/>
      <point x="395" y="450" type="curve" smooth="yes"/>
      <point x="395" y="250" type="line" smooth="yes"/>
      <point x="395" y="208"/>
      <point x="367" y="180"/>
      <point x="325" y="180" type="curve" smooth="yes"/>
      <point x="260" y="180"/>
      <point x="203" y="180"/>
      <point x="168" y="180" type="curve"/>
      <point x="168" y="52"/>
      <point x="225" y="-20"/>
    </contour>
    <contour>
      <point x="487" y="147" type="line"/>
      <point x="327" y="66"/>
      <point x="307" y="51"/>
      <point x="319" y="32" type="curve" smooth="yes"/>
      <point x="392" y="-87" type="line" smooth="yes"/>
      <point x="437" y="-160"/>
      <point x="481" y="-177"/>
      <point x="576" y="-177" type="curve" smooth="yes"/>
      <point x="609" y="-177" type="line" smooth="yes"/>
      <point x="616" y="-177"/>
      <point x="620" y="-173"/>
      <point x="620" y="-166" type="curve" smooth="yes"/>
      <point x="620" y="-100"/>
      <point x="620" y="-49"/>
      <point x="620" y="17" type="curve"/>
      <point x="595" y="17" type="line"/>
      <point x="591" y="17"/>
      <point x="587" y="17"/>
      <point x="583" y="17" type="curve" smooth="yes"/>
      <point x="569" y="17"/>
      <point x="562" y="24"/>
      <point x="553" y="38" type="curve" smooth="yes"/>
    </contour>
  </outline>
</glyph>
<glyph name="S" format="1">
  <advance width="600"/>
  <unicode hex="0053"/>
  <outline>
    <contour>
      <point x="315" y="720" type="curve" smooth="yes"/>
      <point x="154" y="720"/>
      <point x="35" y="637"/>
      <point x="35" y="512" type="curve" smooth="yes"/>
      <point x="35" y="472" type="line" smooth="yes"/>
      <point x="35" y="441"/>
      <point x="41" y="438"/>
      <point x="245" y="397" type="curve"/>
      <point x="245" y="438"/>
      <point x="245" y="468"/>
      <point x="245" y="495" type="curve" smooth="yes"/>
      <point x="245" y="527"/>
      <point x="286" y="530"/>
      <point x="332" y="530" type="curve" smooth="yes"/>
      <point x="369" y="530"/>
      <point x="396" y="521"/>
      <point x="430" y="500" type="curve"/>
      <point x="558" y="636"/>
      <point x="560" y="646"/>
      <point x="560" y="657" type="curve" smooth="yes"/>
      <point x="560" y="668"/>
      <point x="559" y="671"/>
      <point x="554" y="676" type="curve" smooth="yes"/>
      <point x="536" y="694"/>
      <point x="452" y="720"/>
    </contour>
    <contour>
      <point x="385" y="427" type="curve" smooth="yes"/>
      <point x="287" y="447" type="line" smooth="yes"/>
      <point x="251" y="454"/>
      <point x="245" y="466"/>
      <point x="245" y="485" type="curve" smooth="yes"/>
      <point x="245" y="510"/>
      <point x="245" y="537"/>
      <point x="245" y="574" type="curve"/>
      <point x="43" y="517"/>
      <point x="35" y="504"/>
      <point x="35" y="472" type="curve" smooth="yes"/>
      <point x="35" y="376"/>
      <point x="71" y="310"/>
      <point x="233" y="276" type="curve" smooth="yes"/>
      <point x="319" y="258" type="line" smooth="yes"/>
      <point x="351" y="251"/>
      <point x="360" y="237"/>
      <point x="360" y="224" type="curve" smooth="yes"/>
      <point x="360" y="201"/>
      <point x="360" y="179"/>
      <point x="360" y="148" type="curve"/>
      <point x="541" y="187"/>
      <point x="570" y="204"/>
      <point x="570" y="226" type="curve"/>
      <point x="570" y="338"/>
      <point x="523" y="399"/>
    </contour>
    <contour>
      <point x="276" y="-20" type="curve" smooth="yes"/>
      <point x="456" y="-20"/>
      <point x="570" y="47"/>
      <point x="570" y="166" type="curve" smooth="yes"/>
      <point x="570" y="226" type="line" smooth="yes"/>
      <point x="570" y="243"/>
      <point x="540" y="248"/>
      <point x="360" y="275" type="curve"/>
      <point x="360" y="250"/>
      <point x="360" y="231"/>
      <point x="360" y="213" type="curve" smooth="yes"/>
      <point x="360" y="195"/>
      <point x="348" y="180"/>
      <point x="282" y="180" type="curve" smooth="yes"/>
      <point x="189" y="180"/>
      <point x="118" y="200"/>
      <point x="50" y="237" type="curve"/>
      <point x="30" y="237" type="line"/>
      <point x="30" y="188"/>
      <point x="30" y="107"/>
      <point x="30" y="42" type="curve" smooth="yes"/>
      <point x="30" y="39"/>
      <point x="31" y="36"/>
      <point x="33" y="34" type="curve" smooth="yes"/>
      <point x="68" y="-1"/>
      <point x="175" y="-20"/>
    </contour>
    <contour>
      <point x="560" y="485" type="curve"/>
      <point x="560" y="657" type="line" smooth="yes"/>
      <point x="560" y="673"/>
      <point x="547" y="682"/>
      <point x="365" y="682" type="curve"/>
      <point x="365" y="665"/>
      <point x="365" y="642"/>
      <point x="365" y="617" type="curve" smooth="yes"/>
      <point x="365" y="496" type="line" smooth="yes"/>
      <point x="365" y="489"/>
      <point x="367" y="488"/>
      <point x="368" y="487" type="curve" smooth="yes"/>
      <point x="369" y="486"/>
      <point x="371" y="485"/>
      <point x="375" y="485" type="curve" smooth="yes"/>
      <point x="437" y="485"/>
      <point x="498" y="485"/>
    </contour>
    <contour>
      <point x="300" y="711" type="move" name="top"/>
    </contour>
    <contour>
      <point x="300" y="-1" type="move" name="bottom"/>
    </contour>
  </outline>
</glyph>
<glyph name="T" format="1">
  <advance width="600"/>
  <unicode hex="0054"/>
  <outline>
    <contour>
      <point x="30" y="700" type="line"/>
      <point x="30" y="634"/>
      <point x="30" y="567"/>
      <point x="30" y="501" type="curve" smooth="yes"/>
      <point x="30" y="498"/>
      <point x="31" y="495"/>
      <point x="33" y="493" type="curve" smooth="yes"/>
      <point x="35" y="491"/>
      <point x="38" y="490"/>
      <point x="41" y="490" type="curve" smooth="yes"/>
      <point x="570" y="490" type="line"/>
      <point x="570" y="556"/>
      <point x="570" y="623"/>
      <point x="570" y="689" type="curve" smooth="yes"/>
      <point x="570" y="695"/>
      <point x="565" y="700"/>
      <point x="559" y="700" type="curve" smooth="yes"/>
    </contour>
    <contour>
      <point x="413" y="0" type="curve"/>
      <point x="413" y="31"/>
      <point x="413" y="65"/>
      <point x="413" y="101" type="curve" smooth="yes"/>
      <point x="413" y="639" type="line" smooth="yes"/>
      <point x="413" y="645"/>
      <point x="408" y="650"/>
      <point x="187" y="650" type="curve"/>
      <point x="187" y="11" type="line" smooth="yes"/>
      <point x="187" y="8"/>
      <point x="188" y="5"/>
      <point x="190" y="3" type="curve" smooth="yes"/>
      <point x="192" y="1"/>
      <point x="195" y="0"/>
      <point x="198" y="0" type="curve" smooth="yes"/>
      <point x="270" y="0"/>
      <point x="341" y="0"/>
    </contour>
    <contour>
      <point x="300" y="711" type="move" name="top"/>
    </contour>
    <contour>
      <point x="300" y="-1" type="move" name="bottom"/>
    </contour>
  </outline>
</glyph>
<glyph name="U" format="1">
  <advance width="650"/>
  <unicode hex="0055"/>
  <outline>
    <contour>
      <point x="35" y="700" type="curve"/>
      <point x="35" y="672"/>
      <point x="35" y="638"/>
      <point x="35" y="602" type="curve" smooth="yes"/>
      <point x="35" y="164" type="line"/>
      <point x="35" y="134"/>
      <point x="52" y="128"/>
      <point x="260" y="101" type="curve"/>
      <point x="260" y="147"/>
      <point x="260" y="194"/>
      <point x="260" y="240" type="curve"/>
      <point x="260" y="689" type="line"/>
      <point x="260" y="695"/>
      <point x="255" y="700"/>
      <point x="249" y="700" type="curve"/>
      <point x="178" y="700"/>
      <point x="106" y="700"/>
    </contour>
    <contour>
      <point x="188" y="-10" type="curve" smooth="yes"/>
      <point x="300" y="-10"/>
      <point x="367" y="46"/>
      <point x="408" y="113" type="curve" smooth="yes"/>
      <point x="427" y="145"/>
      <point x="430" y="187"/>
      <point x="410" y="257" type="curve"/>
      <point x="384" y="216"/>
      <point x="344" y="200"/>
      <point x="298" y="200" type="curve" smooth="yes"/>
      <point x="271" y="200"/>
      <point x="260" y="210"/>
      <point x="260" y="240" type="curve"/>
      <point x="118" y="240"/>
      <point x="35" y="194"/>
      <point x="35" y="164" type="curve" smooth="yes"/>
      <point x="35" y="49"/>
      <point x="91" y="-10"/>
    </contour>
    <contour>
      <point x="615" y="0" type="curve"/>
      <point x="615" y="28"/>
      <point x="615" y="62"/>
      <point x="615" y="98" type="curve" smooth="yes"/>
      <point x="615" y="689" type="line" smooth="yes"/>
      <point x="615" y="695"/>
      <point x="610" y="700"/>
      <point x="604" y="700" type="curve" smooth="yes"/>
      <point x="551" y="700"/>
      <point x="444" y="700"/>
      <point x="390" y="700" type="curve"/>
      <point x="390" y="11" type="line" smooth="yes"/>
      <point x="390" y="8"/>
      <point x="391" y="5"/>
      <point x="393" y="3" type="curve" smooth="yes"/>
      <point x="395" y="1"/>
      <point x="398" y="0"/>
      <point x="401" y="0" type="curve" smooth="yes"/>
      <point x="450" y="0"/>
      <point x="556" y="0"/>
    </contour>
    <contour>
      <point x="325" y="711" type="move" name="top"/>
    </contour>
    <contour>
      <point x="616" y="0" type="move" name="ogonek"/>
    </contour>
    <contour>
      <point x="325" y="711" type="move" name="ring"/>
    </contour>
    <contour>
      <point x="325" y="-1" type="move" name="bottom"/>
    </contour>
  </outline>
</glyph>
<glyph name="V" format="1">
  <advance width="650"/>
  <unicode hex="0056"/>
  <outline>
    <contour>
      <point x="220" y="700" type="curve"/>
      <point x="12" y="700" type="line"/>
      <point x="61" y="475"/>
      <point x="111" y="241"/>
      <point x="160" y="15" type="curve"/>
      <point x="162" y="5"/>
      <point x="171" y="0"/>
      <point x="181" y="0" type="curve"/>
      <point x="246" y="0"/>
      <point x="422" y="63"/>
      <point x="422" y="186" type="curve"/>
      <point x="384" y="186"/>
      <point x="354" y="186"/>
      <point x="326" y="186" type="curve" smooth="yes"/>
      <point x="319" y="186"/>
      <point x="317" y="187"/>
      <point x="316" y="195" type="curve"/>
      <point x="291" y="352"/>
      <point x="264" y="518"/>
      <point x="237" y="683" type="curve"/>
      <point x="235" y="694"/>
      <point x="229" y="700"/>
    </contour>
    <contour>
      <point x="621" y="700" type="curve"/>
      <point x="416" y="700" type="line"/>
      <point x="385" y="503"/>
      <point x="353" y="300"/>
      <point x="322" y="101" type="curve"/>
      <point x="311" y="32"/>
      <point x="221" y="16"/>
      <point x="181" y="0" type="curve"/>
      <point x="487" y="0" type="line"/>
      <point x="536" y="225"/>
      <point x="585" y="455"/>
      <point x="634" y="681" type="curve"/>
      <point x="636" y="691"/>
      <point x="632" y="700"/>
    </contour>
  </outline>
</glyph>
<glyph name="X" format="1">
  <advance width="650"/>
  <unicode hex="0058"/>
  <outline>
    <contour>
      <point x="367" y="0" type="curve" smooth="yes"/>
      <point x="441" y="0"/>
      <point x="516" y="0"/>
      <point x="590" y="0" type="curve"/>
      <point x="538" y="130"/>
      <point x="486" y="259"/>
      <point x="433" y="389" type="curve" smooth="yes"/>
      <point x="427" y="403"/>
      <point x="350" y="384"/>
      <point x="344" y="401" type="curve" smooth="yes"/>
      <point x="312" y="497"/>
      <point x="283" y="594"/>
      <point x="251" y="690" type="curve" smooth="yes"/>
      <point x="249" y="697"/>
      <point x="241" y="700"/>
      <point x="232" y="700" type="curve" smooth="yes"/>
      <point x="10" y="700" type="line"/>
      <point x="62" y="568"/>
      <point x="114" y="436"/>
      <point x="166" y="305" type="curve" smooth="yes"/>
      <point x="172" y="291"/>
      <point x="257" y="305"/>
      <point x="262" y="288" type="curve" smooth="yes"/>
      <point x="292" y="195"/>
      <point x="319" y="103"/>
      <point x="348" y="12" type="curve" smooth="yes"/>
      <point x="351" y="2"/>
      <point x="359" y="0"/>
    </contour>
    <contour>
      <point x="576" y="700" type="curve" smooth="yes"/>
      <point x="365" y="700" type="line"/>
      <point x="335" y="590"/>
      <point x="306" y="481"/>
      <point x="276" y="371" type="curve"/>
      <point x="269" y="351"/>
      <point x="300" y="291"/>
      <point x="413" y="220" type="curve"/>
      <point x="470" y="374"/>
      <point x="528" y="527"/>
      <point x="585" y="681" type="curve"/>
      <point x="588" y="687"/>
      <point x="589" y="693"/>
      <point x="586" y="696" type="curve" smooth="yes"/>
      <point x="584" y="699"/>
      <point x="580" y="700"/>
    </contour>
    <contour>
      <point x="21" y="0" type="curve"/>
      <point x="238" y="0" type="line"/>
      <point x="266" y="106"/>
      <point x="294" y="213"/>
      <point x="322" y="319" type="curve"/>
      <point x="331" y="344"/>
      <point x="293" y="395"/>
      <point x="182" y="457" type="curve"/>
      <point x="125" y="311"/>
      <point x="68" y="166"/>
      <point x="10" y="20" type="curve" smooth="yes"/>
      <point x="8" y="14"/>
      <point x="8" y="7"/>
      <point x="12" y="3" type="curve" smooth="yes"/>
      <point x="14" y="1"/>
      <point x="17" y="0"/>
    </contour>
  </outline>
</glyph>
<glyph name="asciicircum" format="1">
  <advance width="600"/>
  <unicode hex="005E"/>
  <outline>
    <contour>
      <point x="214" y="334" type="line"/>
      <point x="245" y="431"/>
      <point x="269" y="504"/>
      <point x="301" y="602" type="curve"/>
      <point x="329" y="690"/>
      <point x="358" y="726"/>
      <point x="414" y="750" type="curve"/>
      <point x="154" y="750" type="line"/>
      <point x="101" y="607"/>
      <point x="30" y="417"/>
      <point x="11" y="370" type="curve" smooth="yes"/>
      <point x="6" y="354"/>
      <point x="5" y="349"/>
      <point x="5" y="345" type="curve" smooth="yes"/>
      <point x="5" y="338"/>
      <point x="10" y="334"/>
      <point x="17" y="334" type="curve"/>
    </contour>
    <contour>
      <point x="595" y="334" type="curve"/>
      <point x="545" y="475"/>
      <point x="506" y="590"/>
      <point x="456" y="732" type="curve" smooth="yes"/>
      <point x="454" y="743"/>
      <point x="444" y="750"/>
      <point x="432" y="750" type="curve" smooth="yes"/>
      <point x="377" y="750" type="line" smooth="yes"/>
      <point x="306" y="750"/>
      <point x="194" y="699"/>
      <point x="197" y="544" type="curve"/>
      <point x="248" y="544"/>
      <point x="280" y="544"/>
      <point x="305" y="544" type="curve" smooth="yes"/>
      <point x="318" y="544"/>
      <point x="325" y="539"/>
      <point x="329" y="526" type="curve" smooth="yes"/>
      <point x="346" y="463"/>
      <point x="360" y="413"/>
      <point x="378" y="348" type="curve" smooth="yes"/>
      <point x="381" y="337"/>
      <point x="387" y="334"/>
      <point x="398" y="334" type="curve" smooth="yes"/>
      <point x="466" y="334"/>
      <point x="527" y="334"/>
    </contour>
  </outline>
</glyph>
<glyph name="c" format="1">
  <advance width="500"/>
  <unicode hex="0063"/>
  <outline>
    <contour>
      <point x="319" y="568" type="curve" smooth="yes"/>
      <point x="114" y="568"/>
      <point x="20" y="464"/>
      <point x="20" y="328" type="curve" smooth="yes"/>
      <point x="20" y="223" type="line" smooth="yes"/>
      <point x="20" y="63"/>
      <point x="127" y="-17"/>
      <point x="319" y="-17" type="curve" smooth="yes"/>
      <point x="350" y="-17"/>
      <point x="358" y="3"/>
      <point x="327" y="183" type="curve"/>
      <point x="270" y="183"/>
      <point x="245" y="210"/>
      <point x="245" y="253" type="curve" smooth="yes"/>
      <point x="245" y="298" type="line" smooth="yes"/>
      <point x="245" y="345"/>
      <point x="271" y="368"/>
      <point x="327" y="368" type="curve" smooth="yes"/>
      <point x="382" y="368"/>
      <point x="416" y="359"/>
      <point x="460" y="344" type="curve"/>
      <point x="480" y="344" type="line"/>
      <point x="480" y="406"/>
      <point x="480" y="467"/>
      <point x="480" y="529" type="curve"/>
      <point x="480" y="532"/>
      <point x="479" y="535"/>
      <point x="477" y="537" type="curve" smooth="yes"/>
      <point x="462" y="552"/>
      <point x="387" y="568"/>
    </contour>
    <contour>
      <point x="319" y="-17" type="curve" smooth="yes"/>
      <point x="387" y="-17"/>
      <point x="463" y="-1"/>
      <point x="477" y="13" type="curve" smooth="yes"/>
      <point x="479" y="15"/>
      <point x="480" y="18"/>
      <point x="480" y="21" type="curve"/>
      <point x="480" y="82"/>
      <point x="480" y="144"/>
      <point x="480" y="206" type="curve"/>
      <point x="460" y="206" type="line"/>
      <point x="416" y="191"/>
      <point x="382" y="183"/>
      <point x="327" y="183" type="curve" smooth="yes"/>
      <point x="250" y="183"/>
      <point x="211" y="191"/>
      <point x="168" y="221" type="curve"/>
      <point x="109" y="69"/>
      <point x="195" y="-17"/>
    </contour>
    <contour>
      <point x="290" y="561" type="move" name="top"/>
    </contour>
    <contour>
      <point x="290" y="-1" type="move" name="bottom"/>
    </contour>
  </outline>
</glyph>
<glyph name="i" format="1">
  <advance width="350"/>
  <unicode hex="0069"/>
  <outline>
    <contour>
      <point x="20" y="550" type="curve"/>
      <point x="20" y="504"/>
      <point x="20" y="392"/>
      <point x="20" y="346" type="curve" smooth="yes"/>
      <point x="20" y="340"/>
      <point x="25" y="335"/>
      <point x="31" y="335" type="curve" smooth="yes"/>
      <point x="82" y="335"/>
      <point x="144" y="335"/>
      <point x="195" y="335" type="curve"/>
      <point x="195" y="394"/>
      <point x="173" y="550"/>
      <point x="120" y="550" type="curve" smooth="yes"/>
      <point x="90" y="550"/>
      <point x="50" y="550"/>
    </contour>
    <contour>
      <point x="310" y="0" type="curve"/>
      <point x="310" y="54"/>
      <point x="310" y="108"/>
      <point x="310" y="162" type="curve" smooth="yes"/>
      <point x="310" y="539" type="line" smooth="yes"/>
      <point x="310" y="545"/>
      <point x="305" y="550"/>
      <point x="299" y="550" type="curve" smooth="yes"/>
      <point x="85" y="550" type="line"/>
      <point x="85" y="11" type="line" smooth="yes"/>
      <point x="85" y="5"/>
      <point x="90" y="0"/>
      <point x="96" y="0" type="curve" smooth="yes"/>
      <point x="197" y="0"/>
      <point x="239" y="0"/>
    </contour>
    <contour>
      <point x="315" y="615" type="curve"/>
      <point x="315" y="759" type="line" smooth="yes"/>
      <point x="315" y="765"/>
      <point x="310" y="770"/>
      <point x="304" y="770" type="curve" smooth="yes"/>
      <point x="248" y="770"/>
      <point x="121" y="770"/>
      <point x="65" y="770" type="curve"/>
      <point x="65" y="626" type="line" smooth="yes"/>
      <point x="65" y="620"/>
      <point x="70" y="615"/>
      <point x="76" y="615" type="curve" smooth="yes"/>
      <point x="132" y="615"/>
      <point x="259" y="615"/>
    </contour>
    <contour>
      <point x="311" y="0" type="move" name="ogonek"/>
    </contour>
    <contour>
      <point x="199" y="-1" type="move" name="bottom"/>
    </contour>
  </outline>
</glyph>
<glyph name="j" format="1">
  <advance width="350"/>
  <unicode hex="006A"/>
  <outline>
    <contour>
      <point x="30" y="550" type="curve"/>
      <point x="30" y="504"/>
      <point x="30" y="392"/>
      <point x="30" y="346" type="curve" smooth="yes"/>
      <point x="30" y="340"/>
      <point x="35" y="335"/>
      <point x="41" y="335" type="curve" smooth="yes"/>
      <point x="185" y="335"/>
      <point x="76" y="335"/>
      <point x="220" y="335" type="curve"/>
      <point x="220" y="394"/>
      <point x="198" y="550"/>
      <point x="145" y="550" type="curve" smooth="yes"/>
      <point x="16" y="550"/>
      <point x="159" y="550"/>
    </contour>
    <contour>
      <point x="305" y="-6" type="curve" smooth="yes"/>
      <point x="305" y="539" type="line" smooth="yes"/>
      <point x="305" y="542"/>
      <point x="304" y="545"/>
      <point x="302" y="547" type="curve" smooth="yes"/>
      <point x="300" y="549"/>
      <point x="297" y="550"/>
      <point x="294" y="550" type="curve" smooth="yes"/>
      <point x="80" y="550" type="line"/>
      <point x="80" y="2" type="line" smooth="yes"/>
      <point x="80" y="-63"/>
      <point x="80" y="-115"/>
      <point x="80" y="-180" type="curve"/>
      <point x="232" y="-180"/>
      <point x="305" y="-128"/>
    </contour>
    <contour>
      <point x="47" y="-34" type="curve" smooth="yes"/>
      <point x="36" y="-34"/>
      <point x="29" y="-33"/>
      <point x="15" y="-27" type="curve"/>
      <point x="-5" y="-27" type="line"/>
      <point x="-5" y="-85"/>
      <point x="-5" y="-163"/>
      <point x="-5" y="-225" type="curve" smooth="yes"/>
      <point x="-5" y="-228"/>
      <point x="-4" y="-231"/>
      <point x="-2" y="-233" type="curve" smooth="yes"/>
      <point x="6" y="-241"/>
      <point x="42" y="-250"/>
      <point x="79" y="-250" type="curve" smooth="yes"/>
      <point x="226" y="-250"/>
      <point x="305" y="-162"/>
      <point x="305" y="-6" type="curve" smooth="yes"/>
      <point x="305" y="20"/>
      <point x="288" y="26"/>
      <point x="80" y="2" type="curve"/>
      <point x="80" y="-25"/>
      <point x="69" y="-34"/>
    </contour>
    <contour>
      <point x="310" y="615" type="curve"/>
      <point x="310" y="759" type="line" smooth="yes"/>
      <point x="310" y="765"/>
      <point x="305" y="770"/>
      <point x="299" y="770" type="curve" smooth="yes"/>
      <point x="243" y="770"/>
      <point x="116" y="770"/>
      <point x="60" y="770" type="curve"/>
      <point x="60" y="626" type="line" smooth="yes"/>
      <point x="60" y="620"/>
      <point x="65" y="615"/>
      <point x="71" y="615" type="curve" smooth="yes"/>
      <point x="127" y="615"/>
      <point x="254" y="615"/>
    </contour>
  </outline>
</glyph>
<glyph name="l" format="1">
  <advance width="300"/>
  <unicode hex="006C"/>
  <outline>
    <contour>
      <point x="35" y="591" type="curve"/>
      <point x="35" y="139" type="line" smooth="yes"/>
      <point x="35" y="74"/>
      <point x="101" y="67"/>
      <point x="260" y="67" type="curve"/>
      <point x="260" y="116"/>
      <point x="260" y="172"/>
      <point x="260" y="221" type="curve" smooth="yes"/>
      <point x="260" y="739" type="line" smooth="yes"/>
      <point x="260" y="742"/>
      <point x="259" y="745"/>
      <point x="257" y="747" type="curve" smooth="yes"/>
      <point x="255" y="749"/>
      <point x="252" y="750"/>
      <point x="249" y="750" type="curve" smooth="yes"/>
      <point x="178" y="750"/>
      <point x="106" y="750"/>
      <point x="35" y="750" type="curve"/>
      <point x="35" y="697"/>
      <point x="35" y="644"/>
    </contour>
    <contour>
      <point x="295" y="210" type="curve"/>
      <point x="285" y="210" type="line"/>
      <point x="283" y="210"/>
      <point x="274" y="210"/>
      <point x="271" y="210" type="curve" smooth="yes"/>
      <point x="264" y="210"/>
      <point x="260" y="214"/>
      <point x="260" y="221" type="curve"/>
      <point x="74" y="192"/>
      <point x="35" y="164"/>
      <point x="35" y="139" type="curve" smooth="yes"/>
      <point x="35" y="47"/>
      <point x="102" y="0"/>
      <point x="186" y="0" type="curve" smooth="yes"/>
      <point x="284" y="0" type="line" smooth="yes"/>
      <point x="287" y="0"/>
      <point x="290" y="1"/>
      <point x="292" y="3" type="curve" smooth="yes"/>
      <point x="294" y="5"/>
      <point x="295" y="8"/>
      <point x="295" y="11" type="curve" smooth="yes"/>
      <point x="295" y="56"/>
      <point x="295" y="165"/>
    </contour>
    <contour>
      <point x="315" y="711" type="move" name="caronslovak"/>
    </contour>
    <contour>
      <point x="150" y="730" type="move" name="top"/>
    </contour>
    <contour>
      <point x="315" y="400" type="move" name="dot"/>
    </contour>
    <contour>
      <point x="165" y="-1" type="move" name="bottom"/>
    </contour>
  </outline>
</glyph>
<glyph name="m" format="1">
  <advance width="850"/>
  <unicode hex="006D"/>
  <outline>
    <contour>
      <point x="240" y="0" type="curve"/>
      <point x="240" y="539" type="line" smooth="yes"/>
      <point x="240" y="542"/>
      <point x="239" y="545"/>
      <point x="237" y="547" type="curve" smooth="yes"/>
      <point x="235" y="549"/>
      <point x="232" y="550"/>
      <point x="229" y="550" type="curve" smooth="yes"/>
      <point x="185" y="550"/>
      <point x="88" y="550"/>
      <point x="35" y="550" type="curve"/>
      <point x="35" y="522"/>
      <point x="35" y="488"/>
      <point x="35" y="452" type="curve" smooth="yes"/>
      <point x="35" y="11" type="line" smooth="yes"/>
      <point x="35" y="5"/>
      <point x="40" y="0"/>
      <point x="46" y="0" type="curve" smooth="yes"/>
      <point x="94" y="0"/>
      <point x="191" y="0"/>
    </contour>
    <contour>
      <point x="388" y="560" type="curve" smooth="yes"/>
      <point x="321" y="560"/>
      <point x="270" y="506"/>
      <point x="235" y="454" type="curve" smooth="yes"/>
      <point x="215" y="424"/>
      <point x="206" y="377"/>
      <point x="223" y="332" type="curve"/>
      <point x="247" y="347"/>
      <point x="275" y="355"/>
      <point x="304" y="355" type="curve" smooth="yes"/>
      <point x="320" y="355"/>
      <point x="328" y="346"/>
      <point x="328" y="331" type="curve"/>
      <point x="476" y="331"/>
      <point x="522" y="369"/>
      <point x="522" y="392" type="curve" smooth="yes"/>
      <point x="522" y="507"/>
      <point x="459" y="560"/>
    </contour>
    <contour>
      <point x="522" y="0" type="curve"/>
      <point x="522" y="392" type="line"/>
      <point x="522" y="422"/>
      <point x="398" y="449"/>
      <point x="328" y="449" type="curve"/>
      <point x="328" y="410"/>
      <point x="328" y="370"/>
      <point x="328" y="331" type="curve" smooth="yes"/>
      <point x="328" y="11" type="line" smooth="yes"/>
      <point x="328" y="5"/>
      <point x="333" y="0"/>
      <point x="339" y="0" type="curve" smooth="yes"/>
      <point x="400" y="0"/>
      <point x="461" y="0"/>
    </contour>
    <contour>
      <point x="671" y="560" type="curve" smooth="yes"/>
      <point x="604" y="560"/>
      <point x="540" y="512"/>
      <point x="496" y="446" type="curve" smooth="yes"/>
      <point x="477" y="417"/>
      <point x="485" y="377"/>
      <point x="502" y="332" type="curve"/>
      <point x="530" y="347"/>
      <point x="555" y="355"/>
      <point x="586" y="355" type="curve" smooth="yes"/>
      <point x="604" y="355"/>
      <point x="610" y="346"/>
      <point x="610" y="331" type="curve"/>
      <point x="756" y="331"/>
      <point x="815" y="369"/>
      <point x="815" y="392" type="curve" smooth="yes"/>
      <point x="815" y="507"/>
      <point x="751" y="560"/>
    </contour>
    <contour>
      <point x="815" y="0" type="curve"/>
      <point x="815" y="28"/>
      <point x="815" y="62"/>
      <point x="815" y="98" type="curve" smooth="yes"/>
      <point x="815" y="392" type="line"/>
      <point x="815" y="422"/>
      <point x="680" y="449"/>
      <point x="610" y="449" type="curve"/>
      <point x="610" y="409"/>
      <point x="610" y="370"/>
      <point x="610" y="331" type="curve" smooth="yes"/>
      <point x="610" y="11" type="line" smooth="yes"/>
      <point x="610" y="5"/>
      <point x="615" y="0"/>
      <point x="621" y="0" type="curve" smooth="yes"/>
      <point x="682" y="0"/>
      <point x="754" y="0"/>
    </contour>
  </outline>
</glyph>
<glyph name="o" format="1">
  <advance width="600"/>
  <unicode hex="006F"/>
  <outline>
    <contour>
      <point x="301" y="570" type="curve" smooth="yes"/>
      <point x="145" y="570"/>
      <point x="30" y="478"/>
      <point x="30" y="330" type="curve" smooth="yes"/>
      <point x="30" y="220" type="line" smooth="yes"/>
      <point x="30" y="61"/>
      <point x="126" y="-20"/>
      <point x="299" y="-20" type="curve" smooth="yes"/>
      <point x="333" y="-20"/>
      <point x="330" y="16"/>
      <point x="300" y="180" type="curve"/>
      <point x="265" y="180"/>
      <point x="253" y="194"/>
      <point x="253" y="230" type="curve" smooth="yes"/>
      <point x="253" y="320" type="line" smooth="yes"/>
      <point x="253" y="352"/>
      <point x="266" y="370"/>
      <point x="300" y="370" type="curve" smooth="yes"/>
      <point x="364" y="370"/>
      <point x="395" y="357"/>
      <point x="432" y="322" type="curve"/>
      <point x="503" y="451"/>
      <point x="418" y="570"/>
    </contour>
    <contour>
      <point x="299" y="-20" type="curve" smooth="yes"/>
      <point x="455" y="-20"/>
      <point x="570" y="72"/>
      <point x="570" y="220" type="curve" smooth="yes"/>
      <point x="570" y="330" type="line" smooth="yes"/>
      <point x="570" y="489"/>
      <point x="474" y="570"/>
      <point x="301" y="570" type="curve" smooth="yes"/>
      <point x="279" y="570"/>
      <point x="261" y="537"/>
      <point x="300" y="370" type="curve"/>
      <point x="324" y="370"/>
      <point x="347" y="360"/>
      <point x="347" y="320" type="curve" smooth="yes"/>
      <point x="347" y="230" type="line" smooth="yes"/>
      <point x="347" y="198"/>
      <point x="333" y="180"/>
      <point x="300" y="180" type="curve" smooth="yes"/>
      <point x="236" y="180"/>
      <point x="205" y="193"/>
      <point x="168" y="228" type="curve"/>
      <point x="97" y="99"/>
      <point x="182" y="-20"/>
    </contour>
    <contour>
      <point x="300" y="561" type="move" name="top"/>
    </contour>
    <contour>
      <point x="419" y="8" type="move" name="ogonek"/>
    </contour>
    <contour>
      <point x="300" y="-1" type="move" name="bottom"/>
    </contour>
  </outline>
</glyph>
<glyph name="q" format="1">
  <advance width="600"/>
  <unicode hex="0071"/>
  <outline>
    <contour>
      <point x="199" y="560" type="curve" smooth="yes"/>
      <point x="99" y="560"/>
      <point x="30" y="489"/>
      <point x="30" y="380" type="curve" smooth="yes"/>
      <point x="30" y="153" type="line" smooth="yes"/>
      <point x="30" y="80"/>
      <point x="97" y="61"/>
      <point x="150" y="61" type="curve" smooth="yes"/>
      <point x="211" y="61"/>
      <point x="253" y="73"/>
      <point x="253" y="100" type="curve"/>
      <point x="253" y="119"/>
      <point x="253" y="154"/>
      <point x="253" y="223" type="curve" smooth="yes"/>
      <point x="253" y="326" type="line" smooth="yes"/>
      <point x="253" y="365"/>
      <point x="268" y="380"/>
      <point x="297" y="380" type="curve" smooth="yes"/>
      <point x="333" y="380"/>
      <point x="352" y="365"/>
      <point x="373" y="333" type="curve"/>
      <point x="385" y="356"/>
      <point x="388" y="368"/>
      <point x="388" y="395" type="curve" smooth="yes"/>
      <point x="388" y="441"/>
      <point x="313" y="560"/>
    </contour>
    <contour>
      <point x="184" y="-10" type="curve" smooth="yes"/>
      <point x="235" y="-10"/>
      <point x="282" y="4"/>
      <point x="339" y="61" type="curve" smooth="yes"/>
      <point x="388" y="110"/>
      <point x="420" y="184"/>
      <point x="423" y="241" type="curve"/>
      <point x="374" y="201"/>
      <point x="349" y="184"/>
      <point x="297" y="184" type="curve" smooth="yes"/>
      <point x="265" y="184"/>
      <point x="253" y="195"/>
      <point x="253" y="223" type="curve"/>
      <point x="88" y="219"/>
      <point x="30" y="202"/>
      <point x="30" y="153" type="curve" smooth="yes"/>
      <point x="30" y="55"/>
      <point x="84" y="-10"/>
    </contour>
    <contour>
      <point x="565" y="-200" type="curve"/>
      <point x="565" y="401" type="line" smooth="yes"/>
      <point x="565" y="451"/>
      <point x="565" y="500"/>
      <point x="565" y="550" type="curve"/>
      <point x="494" y="550"/>
      <point x="422" y="550"/>
      <point x="351" y="550" type="curve" smooth="yes"/>
      <point x="348" y="550"/>
      <point x="345" y="549"/>
      <point x="343" y="547" type="curve" smooth="yes"/>
      <point x="341" y="545"/>
      <point x="340" y="542"/>
      <point x="340" y="539" type="curve" smooth="yes"/>
      <point x="340" y="-189" type="line" smooth="yes"/>
      <point x="340" y="-195"/>
      <point x="345" y="-200"/>
      <point x="351" y="-200" type="curve" smooth="yes"/>
      <point x="422" y="-200"/>
      <point x="494" y="-200"/>
    </contour>
  </outline>
</glyph>
<glyph name="t" format="1">
  <advance width="500"/>
  <unicode hex="0074"/>
  <outline>
    <contour>
      <point x="100" y="700" type="curve"/>
      <point x="100" y="235" type="line" smooth="yes"/>
      <point x="100" y="135"/>
      <point x="198" y="24"/>
      <point x="386" y="66" type="curve"/>
      <point x="339" y="114"/>
      <point x="325" y="173"/>
      <point x="325" y="252" type="curve" smooth="yes"/>
      <point x="325" y="689" type="line" smooth="yes"/>
      <point x="325" y="695"/>
      <point x="320" y="700"/>
      <point x="314" y="700" type="curve" smooth="yes"/>
      <point x="270" y="700"/>
      <point x="148" y="700"/>
    </contour>
    <contour>
      <point x="475" y="210" type="curve"/>
      <point x="455" y="210" type="line"/>
      <point x="430" y="210"/>
      <point x="405" y="210"/>
      <point x="374" y="210" type="curve" smooth="yes"/>
      <point x="340" y="210"/>
      <point x="325" y="223"/>
      <point x="325" y="252" type="curve"/>
      <point x="109" y="252"/>
      <point x="100" y="241"/>
      <point x="100" y="235" type="curve" smooth="yes"/>
      <point x="100" y="79"/>
      <point x="181" y="0"/>
      <point x="342" y="0" type="curve" smooth="yes"/>
      <point x="464" y="0" type="line" smooth="yes"/>
      <point x="467" y="0"/>
      <point x="470" y="1"/>
      <point x="472" y="3" type="curve" smooth="yes"/>
      <point x="474" y="5"/>
      <point x="475" y="8"/>
      <point x="475" y="11" type="curve" smooth="yes"/>
      <point x="475" y="57"/>
      <point x="475" y="164"/>
    </contour>
    <contour>
      <point x="20" y="550" type="line"/>
      <point x="20" y="504"/>
      <point x="20" y="397"/>
      <point x="20" y="351" type="curve" smooth="yes"/>
      <point x="20" y="348"/>
      <point x="21" y="345"/>
      <point x="23" y="343" type="curve" smooth="yes"/>
      <point x="25" y="341"/>
      <point x="28" y="340"/>
      <point x="31" y="340" type="curve"/>
      <point x="475" y="340" type="line"/>
      <point x="475" y="386"/>
      <point x="475" y="493"/>
      <point x="475" y="539" type="curve" smooth="yes"/>
      <point x="475" y="545"/>
      <point x="470" y="550"/>
      <point x="464" y="550" type="curve"/>
    </contour>
    <contour>
      <point x="427" y="711" type="move" name="caronslovak"/>
    </contour>
    <contour>
      <point x="302" y="-1" type="move" name="bottom"/>
    </contour>
  </outline>
</glyph>
<glyph name="v" format="1">
  <advance width="600"/>
  <unicode hex="0076"/>
  <outline>
    <contour>
      <point x="571" y="550" type="curve" smooth="yes"/>
      <point x="366" y="550" type="line"/>
      <point x="343" y="400"/>
      <point x="319" y="251"/>
      <point x="296" y="101" type="curve"/>
      <point x="286" y="42"/>
      <point x="246" y="16"/>
      <point x="206" y="0" type="curve"/>
      <point x="461" y="0" type="line"/>
      <point x="502" y="177"/>
      <point x="542" y="354"/>
      <point x="584" y="531" type="curve"/>
      <point x="586" y="541"/>
      <point x="582" y="550"/>
    </contour>
    <contour>
      <point x="220" y="550" type="curve" smooth="yes"/>
      <point x="12" y="550" type="line"/>
      <point x="53" y="372"/>
      <point x="94" y="193"/>
      <point x="135" y="15" type="curve"/>
      <point x="137" y="5"/>
      <point x="146" y="0"/>
      <point x="156" y="0" type="curve" smooth="yes"/>
      <point x="236" y="0" type="line" smooth="yes"/>
      <point x="314" y="0"/>
      <point x="397" y="100"/>
      <point x="397" y="186" type="curve"/>
      <point x="359" y="186"/>
      <point x="329" y="186"/>
      <point x="301" y="186" type="curve" smooth="yes"/>
      <point x="294" y="186"/>
      <point x="290" y="190"/>
      <point x="288" y="198" type="curve"/>
      <point x="271" y="310"/>
      <point x="255" y="421"/>
      <point x="237" y="533" type="curve"/>
      <point x="235" y="544"/>
      <point x="229" y="550"/>
    </contour>
  </outline>
</glyph>
<glyph name="w" format="1">
  <advance width="800"/>
  <unicode hex="0077"/>
  <outline>
    <contour>
      <point x="15" y="550" type="curve"/>
      <point x="43" y="372"/>
      <point x="70" y="193"/>
      <point x="98" y="15" type="curve"/>
      <point x="100" y="5"/>
      <point x="105" y="0"/>
      <point x="115" y="0" type="curve"/>
      <point x="181" y="0" type="line" smooth="yes"/>
      <point x="214" y="0"/>
      <point x="244" y="11"/>
      <point x="259" y="33" type="curve"/>
      <point x="246" y="199"/>
      <point x="234" y="366"/>
      <point x="221" y="532" type="curve"/>
      <point x="220" y="542"/>
      <point x="219" y="545"/>
      <point x="217" y="547" type="curve" smooth="yes"/>
      <point x="215" y="549"/>
      <point x="212" y="550"/>
      <point x="208" y="550" type="curve"/>
      <point x="152" y="550"/>
      <point x="66" y="550"/>
    </contour>
    <contour>
      <point x="330" y="550" type="curve"/>
      <point x="294" y="400"/>
      <point x="257" y="251"/>
      <point x="221" y="101" type="curve"/>
      <point x="203" y="32"/>
      <point x="192" y="18"/>
      <point x="156" y="0" type="curve"/>
      <point x="333" y="0" type="line"/>
      <point x="370" y="141"/>
      <point x="406" y="281"/>
      <point x="457" y="481" type="curve"/>
      <point x="468" y="530"/>
      <point x="466" y="550"/>
      <point x="460" y="550" type="curve" smooth="yes"/>
      <point x="415" y="550"/>
      <point x="375" y="550"/>
    </contour>
    <contour>
      <point x="344" y="485" type="curve"/>
      <point x="383" y="328"/>
      <point x="422" y="170"/>
      <point x="461" y="13" type="curve"/>
      <point x="464" y="2"/>
      <point x="467" y="0"/>
      <point x="475" y="0" type="curve"/>
      <point x="539" y="0" type="line" smooth="yes"/>
      <point x="552" y="0"/>
      <point x="594" y="11"/>
      <point x="598" y="25" type="curve"/>
      <point x="556" y="196"/>
      <point x="514" y="368"/>
      <point x="472" y="539" type="curve"/>
      <point x="470" y="546"/>
      <point x="466" y="550"/>
      <point x="460" y="550" type="curve" smooth="yes"/>
      <point x="411" y="550"/>
      <point x="374" y="537"/>
    </contour>
    <contour>
      <point x="580" y="550" type="curve"/>
      <point x="569" y="400"/>
      <point x="558" y="251"/>
      <point x="547" y="101" type="curve"/>
      <point x="539" y="42"/>
      <point x="508" y="19"/>
      <point x="499" y="0" type="curve"/>
      <point x="701" y="0" type="line"/>
      <point x="728" y="179"/>
      <point x="755" y="358"/>
      <point x="782" y="537" type="curve"/>
      <point x="783" y="543"/>
      <point x="782" y="545"/>
      <point x="780" y="547" type="curve" smooth="yes"/>
      <point x="778" y="549"/>
      <point x="775" y="550"/>
      <point x="771" y="550" type="curve"/>
      <point x="717" y="550"/>
      <point x="633" y="550"/>
    </contour>
    <contour>
      <point x="398" y="561" type="move" name="top"/>
    </contour>
  </outline>
</glyph>
<glyph name="z" format="1">
  <advance width="550"/>
  <unicode hex="007A"/>
  <outline>
    <contour>
      <point x="30" y="550" type="line"/>
      <point x="30" y="482"/>
      <point x="30" y="414"/>
      <point x="30" y="346" type="curve" smooth="yes"/>
      <point x="30" y="343"/>
      <point x="31" y="340"/>
      <point x="33" y="338" type="curve" smooth="yes"/>
      <point x="35" y="336"/>
      <point x="38" y="335"/>
      <point x="41" y="335" type="curve" smooth="yes"/>
      <point x="335" y="335" type="line" smooth="yes"/>
      <point x="448" y="335"/>
      <point x="451" y="341"/>
      <point x="520" y="360" type="curve"/>
      <point x="520" y="539" type="line" smooth="yes"/>
      <point x="520" y="542"/>
      <point x="519" y="545"/>
      <point x="517" y="547" type="curve" smooth="yes"/>
      <point x="515" y="549"/>
      <point x="512" y="550"/>
      <point x="509" y="550" type="curve" smooth="yes"/>
    </contour>
    <contour>
      <point x="360" y="426" type="curve"/>
      <point x="250" y="344"/>
      <point x="140" y="262"/>
      <point x="30" y="180" type="curve"/>
      <point x="30" y="133"/>
      <point x="63" y="127"/>
      <point x="196" y="127" type="curve" smooth="yes"/>
      <point x="452" y="309"/>
      <point x="520" y="357"/>
      <point x="520" y="360" type="curve"/>
      <point x="520" y="409"/>
      <point x="477" y="426"/>
    </contour>
    <contour>
      <point x="520" y="0" type="line"/>
      <point x="520" y="68"/>
      <point x="520" y="136"/>
      <point x="520" y="204" type="curve"/>
      <point x="520" y="210"/>
      <point x="515" y="215"/>
      <point x="509" y="215" type="curve" smooth="yes"/>
      <point x="269" y="215" type="line" smooth="yes"/>
      <point x="156" y="215"/>
      <point x="105" y="208"/>
      <point x="30" y="180" type="curve"/>
      <point x="30" y="11" type="line" smooth="yes"/>
      <point x="30" y="8"/>
      <point x="31" y="5"/>
      <point x="33" y="3" type="curve" smooth="yes"/>
      <point x="35" y="1"/>
      <point x="38" y="0"/>
      <point x="41" y="0" type="curve" smooth="yes"/>
    </contour>
    <contour>
      <point x="275" y="561" type="move" name="top"/>
    </contour>
  </outline>
</glyph>
<glyph name="braceleft" format="1">
  <advance width="500"/>
  <unicode hex="007B"/>
  <outline>
    <contour>
      <point x="384" y="577" type="curve" smooth="yes"/>
      <point x="414" y="577"/>
      <point x="440" y="577"/>
      <point x="470" y="577" type="curve"/>
      <point x="490" y="577" type="line"/>
      <point x="490" y="637"/>
      <point x="490" y="689"/>
      <point x="490" y="749" type="curve"/>
      <point x="490" y="756"/>
      <point x="486" y="760"/>
      <point x="479" y="760" type="curve" smooth="yes"/>
      <point x="273" y="760" type="line" smooth="yes"/>
      <point x="196" y="760"/>
      <point x="153" y="717"/>
      <point x="153" y="640" type="curve" smooth="yes"/>
      <point x="153" y="630" type="line" smooth="yes"/>
      <point x="153" y="581"/>
      <point x="232" y="577"/>
      <point x="245" y="577" type="curve"/>
      <point x="282" y="577"/>
      <point x="347" y="577"/>
    </contour>
    <contour>
      <point x="388" y="425" type="curve" smooth="yes"/>
      <point x="388" y="496"/>
      <point x="356" y="520"/>
      <point x="356" y="577" type="curve" smooth="yes"/>
      <point x="356" y="601"/>
      <point x="356" y="657"/>
      <point x="356" y="653" type="curve"/>
      <point x="164" y="653"/>
      <point x="153" y="647"/>
      <point x="153" y="630" type="curve" smooth="yes"/>
      <point x="153" y="622" type="line" smooth="yes"/>
      <point x="153" y="539"/>
      <point x="192" y="504"/>
      <point x="192" y="450" type="curve" smooth="yes"/>
      <point x="192" y="418"/>
      <point x="161" y="400"/>
      <point x="110" y="400" type="curve" smooth="yes"/>
      <point x="20" y="400" type="line"/>
      <point x="20" y="284" type="line" smooth="yes"/>
      <point x="20" y="276"/>
      <point x="24" y="273"/>
      <point x="31" y="273" type="curve" smooth="yes"/>
      <point x="102" y="273" type="line" smooth="yes"/>
      <point x="225" y="273"/>
      <point x="388" y="308"/>
    </contour>
    <contour>
      <point x="388" y="175" type="curve" smooth="yes"/>
      <point x="388" y="290"/>
      <point x="226" y="327"/>
      <point x="102" y="327" type="curve" smooth="yes"/>
      <point x="75" y="327"/>
      <point x="47" y="327"/>
      <point x="20" y="327" type="curve"/>
      <point x="20" y="211" type="line" smooth="yes"/>
      <point x="20" y="203"/>
      <point x="24" y="200"/>
      <point x="31" y="200" type="curve" smooth="yes"/>
      <point x="109" y="200" type="line" smooth="yes"/>
      <point x="161" y="200"/>
      <point x="192" y="177"/>
      <point x="192" y="149" type="curve" smooth="yes"/>
      <point x="192" y="90"/>
      <point x="153" y="64"/>
      <point x="153" y="-26" type="curve" smooth="yes"/>
      <point x="153" y="-30" type="line" smooth="yes"/>
      <point x="153" y="-54"/>
      <point x="169" y="-54"/>
      <point x="356" y="-54" type="curve"/>
      <point x="356" y="-18"/>
      <point x="356" y="16"/>
      <point x="356" y="22" type="curve" smooth="yes"/>
      <point x="356" y="78"/>
      <point x="388" y="107"/>
    </contour>
    <contour>
      <point x="384" y="22" type="curve" smooth="yes"/>
      <point x="347" y="22"/>
      <point x="282" y="22"/>
      <point x="245" y="22" type="curve"/>
      <point x="207" y="22"/>
      <point x="153" y="16"/>
      <point x="153" y="-30" type="curve" smooth="yes"/>
      <point x="153" y="-41" type="line" smooth="yes"/>
      <point x="153" y="-118"/>
      <point x="196" y="-161"/>
      <point x="273" y="-161" type="curve" smooth="yes"/>
      <point x="479" y="-161" type="line" smooth="yes"/>
      <point x="486" y="-161"/>
      <point x="490" y="-157"/>
      <point x="490" y="-150" type="curve"/>
      <point x="490" y="22" type="line"/>
      <point x="470" y="22" type="line"/>
      <point x="440" y="22"/>
      <point x="414" y="22"/>
    </contour>
  </outline>
</glyph>
<glyph name="braceright" format="1">
  <advance width="500"/>
  <unicode hex="007D"/>
  <outline>
    <contour>
      <point x="116" y="22" type="curve" smooth="yes"/>
      <point x="86" y="22"/>
      <point x="60" y="22"/>
      <point x="30" y="22" type="curve"/>
      <point x="10" y="22" type="line"/>
      <point x="10" y="-38"/>
      <point x="10" y="-90"/>
      <point x="10" y="-150" type="curve"/>
      <point x="10" y="-157"/>
      <point x="14" y="-161"/>
      <point x="21" y="-161" type="curve" smooth="yes"/>
      <point x="227" y="-161" type="line" smooth="yes"/>
      <point x="304" y="-161"/>
      <point x="347" y="-118"/>
      <point x="347" y="-41" type="curve" smooth="yes"/>
      <point x="347" y="-31" type="line" smooth="yes"/>
      <point x="347" y="18"/>
      <point x="268" y="22"/>
      <point x="255" y="22" type="curve"/>
      <point x="218" y="22"/>
      <point x="153" y="22"/>
    </contour>
    <contour>
      <point x="112" y="174" type="curve" smooth="yes"/>
      <point x="112" y="103"/>
      <point x="144" y="79"/>
      <point x="144" y="22" type="curve" smooth="yes"/>
      <point x="144" y="-2"/>
      <point x="144" y="-58"/>
      <point x="144" y="-54" type="curve"/>
      <point x="336" y="-54"/>
      <point x="347" y="-48"/>
      <point x="347" y="-31" type="curve" smooth="yes"/>
      <point x="347" y="-23" type="line" smooth="yes"/>
      <point x="347" y="60"/>
      <point x="308" y="95"/>
      <point x="308" y="149" type="curve" smooth="yes"/>
      <point x="308" y="181"/>
      <point x="339" y="199"/>
      <point x="390" y="199" type="curve" smooth="yes"/>
      <point x="480" y="199" type="line"/>
      <point x="480" y="315" type="line" smooth="yes"/>
      <point x="480" y="323"/>
      <point x="476" y="326"/>
      <point x="469" y="326" type="curve" smooth="yes"/>
      <point x="398" y="326" type="line" smooth="yes"/>
      <point x="275" y="326"/>
      <point x="112" y="291"/>
    </contour>
    <contour>
      <point x="112" y="424" type="curve" smooth="yes"/>
      <point x="112" y="309"/>
      <point x="274" y="272"/>
      <point x="398" y="272" type="curve" smooth="yes"/>
      <point x="425" y="272"/>
      <point x="453" y="272"/>
      <point x="480" y="272" type="curve"/>
      <point x="480" y="388" type="line" smooth="yes"/>
      <point x="480" y="396"/>
      <point x="476" y="399"/>
      <point x="469" y="399" type="curve" smooth="yes"/>
      <point x="391" y="399" type="line" smooth="yes"/>
      <point x="339" y="399"/>
      <point x="308" y="422"/>
      <point x="308" y="450" type="curve" smooth="yes"/>
      <point x="308" y="509"/>
      <point x="347" y="535"/>
      <point x="347" y="625" type="curve" smooth="yes"/>
      <point x="347" y="629" type="line" smooth="yes"/>
      <point x="347" y="653"/>
      <point x="331" y="653"/>
      <point x="144" y="653" type="curve"/>
      <point x="144" y="617"/>
      <point x="144" y="583"/>
      <point x="144" y="577" type="curve" smooth="yes"/>
      <point x="144" y="521"/>
      <point x="112" y="492"/>
    </contour>
    <contour>
      <point x="116" y="577" type="curve" smooth="yes"/>
      <point x="153" y="577"/>
      <point x="218" y="577"/>
      <point x="255" y="577" type="curve"/>
      <point x="293" y="577"/>
      <point x="347" y="583"/>
      <point x="347" y="629" type="curve" smooth="yes"/>
      <point x="347" y="640" type="line" smooth="yes"/>
      <point x="347" y="717"/>
      <point x="304" y="760"/>
      <point x="227" y="760" type="curve" smooth="yes"/>
      <point x="21" y="760" type="line" smooth="yes"/>
      <point x="14" y="760"/>
      <point x="10" y="756"/>
      <point x="10" y="749" type="curve"/>
      <point x="10" y="577" type="line"/>
      <point x="30" y="577" type="line"/>
      <point x="60" y="577"/>
      <point x="86" y="577"/>
    </contour>
  </outline>
</glyph>
<glyph name="exclamdown" format="1">
  <advance width="400"/>
  <unicode hex="00A1"/>
  <outline>
    <contour>
      <point x="352" y="228" type="line"/>
      <point x="335" y="167"/>
      <point x="318" y="108"/>
      <point x="301" y="47" type="curve"/>
      <point x="301" y="-140" type="line" smooth="yes"/>
      <point x="301" y="-147"/>
      <point x="306" y="-151"/>
      <point x="312" y="-151" type="curve" smooth="yes"/>
      <point x="416" y="-151"/>
      <point x="495" y="-151"/>
      <point x="549" y="-151" type="curve"/>
      <point x="549" y="-113"/>
      <point x="549" y="-78"/>
      <point x="549" y="-41" type="curve" smooth="yes"/>
      <point x="549" y="47" type="line"/>
      <point x="502" y="222"/>
      <point x="501" y="221"/>
      <point x="497" y="225" type="curve" smooth="yes"/>
      <point x="495" y="227"/>
      <point x="493" y="228"/>
      <point x="489" y="228" type="curve"/>
    </contour>
    <contour>
      <point x="301" y="562" type="curve"/>
      <point x="301" y="323" type="line" smooth="yes"/>
      <point x="301" y="317"/>
      <point x="306" y="312"/>
      <point x="312" y="312" type="curve" smooth="yes"/>
      <point x="396" y="312"/>
      <point x="465" y="312"/>
      <point x="549" y="312" type="curve"/>
      <point x="549" y="551" type="line" smooth="yes"/>
      <point x="549" y="557"/>
      <point x="544" y="562"/>
      <point x="538" y="562" type="curve" smooth="yes"/>
      <point x="454" y="562"/>
      <point x="385" y="562"/>
    </contour>
  </outline>
</glyph>
<glyph name="yen" format="1">
  <advance width="600"/>
  <unicode hex="00A5"/>
  <outline>
    <contour>
      <point x="10" y="500" type="line"/>
      <point x="10" y="454"/>
      <point x="10" y="395"/>
      <point x="10" y="349" type="curve" smooth="yes"/>
      <point x="10" y="346"/>
      <point x="11" y="343"/>
      <point x="13" y="341" type="curve" smooth="yes"/>
      <point x="15" y="339"/>
      <point x="18" y="338"/>
      <point x="21" y="338" type="curve"/>
      <point x="210" y="338" type="line"/>
      <point x="210" y="384"/>
      <point x="210" y="443"/>
      <point x="210" y="489" type="curve" smooth="yes"/>
      <point x="210" y="495"/>
      <point x="205" y="500"/>
      <point x="199" y="500" type="curve"/>
    </contour>
    <contour>
      <point x="390" y="500" type="line"/>
      <point x="390" y="454"/>
      <point x="390" y="395"/>
      <point x="390" y="349" type="curve" smooth="yes"/>
      <point x="390" y="343"/>
      <point x="395" y="338"/>
      <point x="401" y="338" type="curve"/>
      <point x="590" y="338" type="line"/>
      <point x="590" y="384"/>
      <point x="590" y="443"/>
      <point x="590" y="489" type="curve" smooth="yes"/>
      <point x="590" y="495"/>
      <point x="585" y="500"/>
      <point x="579" y="500" type="curve"/>
    </contour>
    <contour>
      <point x="590" y="98" type="line"/>
      <point x="590" y="144"/>
      <point x="590" y="203"/>
      <point x="590" y="249" type="curve" smooth="yes"/>
      <point x="590" y="252"/>
      <point x="589" y="255"/>
      <point x="587" y="257" type="curve" smooth="yes"/>
      <point x="585" y="259"/>
      <point x="582" y="260"/>
      <point x="579" y="260" type="curve"/>
      <point x="10" y="260" type="line"/>
      <point x="10" y="214"/>
      <point x="10" y="155"/>
      <point x="10" y="109" type="curve" smooth="yes"/>
      <point x="10" y="103"/>
      <point x="15" y="98"/>
      <point x="21" y="98" type="curve"/>
    </contour>
    <contour>
      <point x="15" y="700" type="line"/>
      <point x="75" y="527"/>
      <point x="136" y="353"/>
      <point x="196" y="180" type="curve"/>
      <point x="199" y="170"/>
      <point x="207" y="165"/>
      <point x="217" y="165" type="curve"/>
      <point x="281" y="165"/>
      <point x="323" y="277"/>
      <point x="308" y="364" type="curve"/>
      <point x="288" y="472"/>
      <point x="268" y="579"/>
      <point x="248" y="687" type="curve"/>
      <point x="246" y="697"/>
      <point x="241" y="700"/>
      <point x="232" y="700" type="curve" smooth="yes"/>
    </contour>
    <contour>
      <point x="357" y="700" type="line"/>
      <point x="335" y="588"/>
      <point x="314" y="477"/>
      <point x="292" y="365" type="curve"/>
      <point x="263" y="264"/>
      <point x="238" y="191"/>
      <point x="217" y="165" type="curve"/>
      <point x="398" y="165" type="line"/>
      <point x="458" y="337"/>
      <point x="518" y="509"/>
      <point x="578" y="681" type="curve"/>
      <point x="581" y="691"/>
      <point x="576" y="700"/>
      <point x="565" y="700" type="curve"/>
    </contour>
    <contour>
      <point x="413" y="0" type="curve"/>
      <point x="413" y="31"/>
      <point x="413" y="65"/>
      <point x="413" y="101" type="curve" smooth="yes"/>
      <point x="413" y="289" type="line" smooth="yes"/>
      <point x="413" y="295"/>
      <point x="408" y="300"/>
      <point x="187" y="300" type="curve"/>
      <point x="187" y="11" type="line" smooth="yes"/>
      <point x="187" y="8"/>
      <point x="188" y="5"/>
      <point x="190" y="3" type="curve" smooth="yes"/>
      <point x="192" y="1"/>
      <point x="195" y="0"/>
      <point x="198" y="0" type="curve" smooth="yes"/>
      <point x="270" y="0"/>
      <point x="341" y="0"/>
    </contour>
  </outline>
</glyph>
<glyph name="dieresis" format="1">
  <advance width="600"/>
  <unicode hex="00A8"/>
  <outline>
    <contour>
      <point x="268" y="611" type="curve"/>
      <point x="268" y="757" type="line" smooth="yes"/>
      <point x="268" y="763"/>
      <point x="263" y="768"/>
      <point x="257" y="768" type="curve" smooth="yes"/>
      <point x="209" y="768"/>
      <point x="140" y="768"/>
      <point x="92" y="768" type="curve"/>
      <point x="92" y="622" type="line" smooth="yes"/>
      <point x="92" y="616"/>
      <point x="97" y="611"/>
      <point x="103" y="611" type="curve" smooth="yes"/>
      <point x="151" y="611"/>
      <point x="220" y="611"/>
    </contour>
    <contour>
      <point x="508" y="611" type="curve"/>
      <point x="508" y="757" type="line" smooth="yes"/>
      <point x="508" y="763"/>
      <point x="503" y="768"/>
      <point x="497" y="768" type="curve" smooth="yes"/>
      <point x="449" y="768"/>
      <point x="380" y="768"/>
      <point x="332" y="768" type="curve"/>
      <point x="332" y="622" type="line" smooth="yes"/>
      <point x="332" y="616"/>
      <point x="337" y="611"/>
      <point x="343" y="611" type="curve" smooth="yes"/>
      <point x="391" y="611"/>
      <point x="460" y="611"/>
    </contour>
  </outline>
</glyph>
<glyph name="registered" format="1">
  <advance width="600"/>
  <unicode hex="00AE"/>
  <outline>
    <contour>
      <point x="280" y="327" type="curve"/>
      <point x="280" y="352"/>
      <point x="280" y="376"/>
      <point x="280" y="401" type="curve"/>
      <point x="280" y="602" type="line"/>
      <point x="280" y="603"/>
      <point x="280" y="608"/>
      <point x="183" y="608" type="curve"/>
      <point x="183" y="338" type="line" smooth="yes"/>
      <point x="183" y="331"/>
      <point x="187" y="327"/>
      <point x="194" y="327" type="curve" smooth="yes"/>
      <point x="223" y="327"/>
      <point x="251" y="327"/>
    </contour>
    <contour>
      <point x="163" y="635" type="curve"/>
      <point x="163" y="611"/>
      <point x="163" y="591"/>
      <point x="163" y="567" type="curve"/>
      <point x="163" y="560"/>
      <point x="167" y="556"/>
      <point x="174" y="556" type="curve"/>
      <point x="180" y="556"/>
      <point x="190" y="556"/>
      <point x="196" y="556" type="curve" smooth="yes"/>
      <point x="232" y="556"/>
      <point x="278" y="556"/>
      <point x="313" y="556" type="curve" smooth="yes"/>
      <point x="352" y="556"/>
      <point x="372" y="556"/>
      <point x="393" y="556" type="curve"/>
      <point x="393" y="604"/>
      <point x="367" y="635"/>
      <point x="324" y="635" type="curve" smooth="yes"/>
      <point x="277" y="635"/>
      <point x="209" y="635"/>
    </contour>
    <contour>
      <point x="433" y="506" type="curve" smooth="yes"/>
      <point x="433" y="545" type="line" smooth="yes"/>
      <point x="433" y="604"/>
      <point x="396" y="635"/>
      <point x="324" y="635" type="curve"/>
      <point x="306" y="635"/>
      <point x="301" y="639"/>
      <point x="313" y="556" type="curve"/>
      <point x="331" y="556"/>
      <point x="340" y="549"/>
      <point x="340" y="532" type="curve" smooth="yes"/>
      <point x="340" y="519" type="line" smooth="yes"/>
      <point x="340" y="504"/>
      <point x="329" y="494"/>
      <point x="314" y="494" type="curve" smooth="yes"/>
      <point x="296" y="494"/>
      <point x="253" y="494"/>
      <point x="239" y="494" type="curve"/>
      <point x="239" y="471"/>
      <point x="239" y="451"/>
      <point x="239" y="423" type="curve" smooth="yes"/>
      <point x="239" y="420"/>
      <point x="242" y="417"/>
      <point x="245" y="417" type="curve" smooth="yes"/>
      <point x="344" y="417" type="line" smooth="yes"/>
      <point x="400" y="417"/>
      <point x="433" y="455"/>
    </contour>
    <contour>
      <point x="370" y="477" type="line"/>
      <point x="316" y="477"/>
      <point x="291" y="448"/>
      <point x="296" y="434" type="curve" smooth="yes"/>
      <point x="319" y="372" type="line" smooth="yes"/>
      <point x="332" y="336"/>
      <point x="355" y="324"/>
      <point x="399" y="324" type="curve" smooth="yes"/>
      <point x="422" y="324" type="line" smooth="yes"/>
      <point x="430" y="324"/>
      <point x="433" y="328"/>
      <point x="433" y="335" type="curve"/>
      <point x="433" y="351"/>
      <point x="433" y="379"/>
      <point x="433" y="401" type="curve"/>
      <point x="430" y="401" type="line"/>
      <point x="426" y="401"/>
      <point x="420" y="401"/>
      <point x="414" y="401" type="curve"/>
      <point x="402" y="401"/>
      <point x="399" y="403"/>
      <point x="395" y="413" type="curve" smooth="yes"/>
    </contour>
    <contour>
      <point x="300" y="760" type="curve" smooth="yes"/>
      <point x="76" y="760"/>
      <point x="19" y="685"/>
      <point x="19" y="543" type="curve" smooth="yes"/>
      <point x="19" y="417" type="line" smooth="yes"/>
      <point x="19" y="275"/>
      <point x="76" y="200"/>
      <point x="300" y="200" type="curve" smooth="yes"/>
      <point x="300" y="200"/>
      <point x="317" y="219"/>
      <point x="300" y="277" type="curve"/>
      <point x="119" y="277"/>
      <point x="105" y="330"/>
      <point x="105" y="411" type="curve" smooth="yes"/>
      <point x="105" y="551" type="line" smooth="yes"/>
      <point x="105" y="631"/>
      <point x="119" y="683"/>
      <point x="300" y="683" type="curve" smooth="yes"/>
      <point x="359" y="683"/>
      <point x="395" y="683"/>
      <point x="447" y="683" type="curve"/>
      <point x="447" y="724"/>
      <point x="409" y="760"/>
    </contour>
    <contour>
      <point x="300" y="200" type="curve" smooth="yes"/>
      <point x="530" y="200"/>
      <point x="581" y="275"/>
      <point x="581" y="417" type="curve" smooth="yes"/>
      <point x="581" y="543" type="line" smooth="yes"/>
      <point x="581" y="685"/>
      <point x="530" y="760"/>
      <point x="300" y="760" type="curve" smooth="yes"/>
      <point x="300" y="760"/>
      <point x="284" y="739"/>
      <point x="300" y="683" type="curve"/>
      <point x="487" y="683"/>
      <point x="495" y="630"/>
      <point x="495" y="549" type="curve" smooth="yes"/>
      <point x="495" y="409" type="line" smooth="yes"/>
      <point x="495" y="329"/>
      <point x="487" y="277"/>
      <point x="300" y="277" type="curve" smooth="yes"/>
      <point x="241" y="277"/>
      <point x="205" y="277"/>
      <point x="153" y="277" type="curve"/>
      <point x="153" y="236"/>
      <point x="191" y="200"/>
    </contour>
  </outline>
</glyph>
<glyph name="questiondown" format="1">
  <advance width="600"/>
  <unicode hex="00BF"/>
  <outline>
    <contour>
      <point x="300" y="-171" type="curve" smooth="yes"/>
      <point x="412" y="-171"/>
      <point x="512" y="-150"/>
      <point x="520" y="-141" type="curve" smooth="yes"/>
      <point x="523" y="-138"/>
      <point x="524" y="-134"/>
      <point x="524" y="-129" type="curve" smooth="yes"/>
      <point x="524" y="-53"/>
      <point x="524" y="22"/>
      <point x="524" y="58" type="curve"/>
      <point x="499" y="58" type="line"/>
      <point x="445" y="40"/>
      <point x="371" y="31"/>
      <point x="333" y="31" type="curve" smooth="yes"/>
      <point x="276" y="31"/>
      <point x="267" y="35"/>
      <point x="267" y="50" type="curve" smooth="yes"/>
      <point x="267" y="59"/>
      <point x="267" y="77"/>
      <point x="267" y="85" type="curve"/>
      <point x="177" y="85"/>
      <point x="54" y="65"/>
      <point x="54" y="1" type="curve" smooth="yes"/>
      <point x="54" y="-98"/>
      <point x="115" y="-171"/>
    </contour>
    <contour>
      <point x="267" y="-27" type="curve"/>
      <point x="267" y="-7"/>
      <point x="267" y="23"/>
      <point x="267" y="54" type="curve" smooth="yes"/>
      <point x="267" y="64"/>
      <point x="269" y="70"/>
      <point x="301" y="91" type="curve" smooth="yes"/>
      <point x="359" y="127" type="line" smooth="yes"/>
      <point x="416" y="165"/>
      <point x="428" y="195"/>
      <point x="428" y="246" type="curve" smooth="yes"/>
      <point x="428" y="276" type="line" smooth="yes"/>
      <point x="428" y="286"/>
      <point x="425" y="287"/>
      <point x="417" y="287" type="curve" smooth="yes"/>
      <point x="212" y="287" type="line"/>
      <point x="212" y="283" type="line" smooth="yes"/>
      <point x="212" y="264"/>
      <point x="208" y="256"/>
      <point x="187" y="243" type="curve" smooth="yes"/>
      <point x="140" y="214" type="line" smooth="yes"/>
      <point x="74" y="173"/>
      <point x="54" y="136"/>
      <point x="54" y="58" type="curve" smooth="yes"/>
      <point x="54" y="1" type="line" smooth="yes"/>
      <point x="54" y="-21"/>
      <point x="74" y="-27"/>
    </contour>
    <contour>
      <point x="200" y="562" type="curve"/>
      <point x="200" y="339" type="line" smooth="yes"/>
      <point x="200" y="333"/>
      <point x="205" y="328"/>
      <point x="211" y="328" type="curve" smooth="yes"/>
      <point x="294" y="328"/>
      <point x="364" y="328"/>
      <point x="447" y="328" type="curve"/>
      <point x="447" y="551" type="line" smooth="yes"/>
      <point x="447" y="557"/>
      <point x="442" y="562"/>
      <point x="436" y="562" type="curve" smooth="yes"/>
      <point x="353" y="562"/>
      <point x="283" y="562"/>
    </contour>
  </outline>
</glyph>
<glyph name="Atilde" format="1">
  <advance width="600"/>
  <unicode hex="00C3"/>
  <outline>
    <contour>
      <point x="210" y="0" type="curve"/>
      <point x="240" y="189"/>
      <point x="270" y="379"/>
      <point x="300" y="568" type="curve"/>
      <point x="316" y="660"/>
      <point x="348" y="678"/>
      <point x="454" y="700" type="curve"/>
      <point x="136" y="700" type="line"/>
      <point x="93" y="471"/>
      <point x="50" y="242"/>
      <point x="7" y="13" type="curve"/>
      <point x="5" y="3"/>
      <point x="11" y="0"/>
      <point x="15" y="0" type="curve" smooth="yes"/>
      <point x="80" y="0"/>
      <point x="145" y="0"/>
    </contour>
    <contour>
      <point x="596" y="0" type="curve"/>
      <point x="553" y="229"/>
      <point x="509" y="460"/>
      <point x="466" y="689" type="curve"/>
      <point x="465" y="694"/>
      <point x="464" y="695"/>
      <point x="462" y="697" type="curve" smooth="yes"/>
      <point x="459" y="700"/>
      <point x="458" y="700"/>
      <point x="454" y="700" type="curve"/>
      <point x="284" y="700"/>
      <point x="250" y="686"/>
      <point x="250" y="515" type="curve"/>
      <point x="266" y="515"/>
      <point x="289" y="515"/>
      <point x="301" y="515" type="curve" smooth="yes"/>
      <point x="305" y="515"/>
      <point x="308" y="514"/>
      <point x="309" y="509" type="curve"/>
      <point x="335" y="343"/>
      <point x="362" y="177"/>
      <point x="388" y="11" type="curve"/>
      <point x="389" y="6"/>
      <point x="390" y="4"/>
      <point x="391" y="3" type="curve" smooth="yes"/>
      <point x="393" y="1"/>
      <point x="395" y="0"/>
      <point x="399" y="0" type="curve" smooth="yes"/>
      <point x="465" y="0"/>
      <point x="530" y="0"/>
    </contour>
    <contour>
      <point x="140" y="290" type="line"/>
      <point x="140" y="111" type="line" smooth="yes"/>
      <point x="140" y="108"/>
      <point x="141" y="105"/>
      <point x="143" y="103" type="curve" smooth="yes"/>
      <point x="145" y="101"/>
      <point x="148" y="100"/>
      <point x="151" y="100" type="curve"/>
      <point x="460" y="100" type="line"/>
      <point x="460" y="279"/>
      <point x="455" y="290"/>
      <point x="449" y="290" type="curve" smooth="yes"/>
    </contour>
    <contour>
      <point x="410" y="922" type="curve" smooth="yes"/>
      <point x="337" y="922"/>
      <point x="286" y="964"/>
      <point x="196" y="964" type="curve" smooth="yes"/>
      <point x="151" y="964"/>
      <point x="121" y="950"/>
      <point x="100" y="927" type="curve" smooth="yes"/>
      <point x="93" y="919"/>
      <point x="93" y="915"/>
      <point x="93" y="904" type="curve" smooth="yes"/>
      <point x="93" y="869"/>
      <point x="93" y="801"/>
      <point x="93" y="768" type="curve"/>
      <point x="110" y="768" type="line"/>
      <point x="133" y="786"/>
      <point x="159" y="795"/>
      <point x="190" y="795" type="curve" smooth="yes"/>
      <point x="263" y="795"/>
      <point x="314" y="753"/>
      <point x="404" y="753" type="curve" smooth="yes"/>
      <point x="449" y="753"/>
      <point x="479" y="767"/>
      <point x="500" y="790" type="curve" smooth="yes"/>
      <point x="507" y="797"/>
      <point x="507" y="801"/>
      <point x="507" y="813" type="curve" smooth="yes"/>
      <point x="507" y="846"/>
      <point x="507" y="916"/>
      <point x="507" y="949" type="curve"/>
      <point x="490" y="949" type="line"/>
      <point x="467" y="931"/>
      <point x="441" y="922"/>
    </contour>
  </outline>
</glyph>
<glyph name="Egrave" format="1">
  <advance width="550"/>
  <unicode hex="00C8"/>
  <outline>
    <contour>
      <point x="9" y="700" type="line"/>
      <point x="9" y="640"/>
      <point x="9" y="581"/>
      <point x="9" y="521" type="curve" smooth="yes"/>
      <point x="9" y="518"/>
      <point x="10" y="515"/>
      <point x="12" y="513" type="curve" smooth="yes"/>
      <point x="14" y="511"/>
      <point x="17" y="510"/>
      <point x="20" y="510" type="curve" smooth="yes"/>
      <point x="520" y="510" type="line"/>
      <point x="520" y="570"/>
      <point x="520" y="629"/>
      <point x="520" y="689" type="curve" smooth="yes"/>
      <point x="520" y="692"/>
      <point x="519" y="695"/>
      <point x="517" y="697" type="curve" smooth="yes"/>
      <point x="515" y="699"/>
      <point x="512" y="700"/>
      <point x="509" y="700" type="curve" smooth="yes"/>
    </contour>
    <contour>
      <point x="264" y="100" type="curve"/>
      <point x="264" y="639" type="line" smooth="yes"/>
      <point x="264" y="645"/>
      <point x="259" y="650"/>
      <point x="39" y="650" type="curve"/>
      <point x="39" y="111" type="line"/>
      <point x="39" y="105"/>
      <point x="44" y="100"/>
    </contour>
    <contour>
      <point x="39" y="190" type="line"/>
      <point x="39" y="11" type="line" smooth="yes"/>
      <point x="39" y="5"/>
      <point x="44" y="0"/>
      <point x="50" y="0" type="curve" smooth="yes"/>
      <point x="520" y="0" type="line"/>
      <point x="520" y="60"/>
      <point x="520" y="119"/>
      <point x="520" y="179" type="curve" smooth="yes"/>
      <point x="520" y="185"/>
      <point x="515" y="190"/>
      <point x="509" y="190" type="curve" smooth="yes"/>
    </contour>
    <contour>
      <point x="149" y="435" type="line"/>
      <point x="149" y="269"/>
      <point x="154" y="265"/>
      <point x="160" y="265" type="curve" smooth="yes"/>
      <point x="460" y="265" type="line"/>
      <point x="460" y="318"/>
      <point x="460" y="371"/>
      <point x="460" y="424" type="curve" smooth="yes"/>
      <point x="460" y="427"/>
      <point x="459" y="430"/>
      <point x="457" y="432" type="curve" smooth="yes"/>
      <point x="455" y="434"/>
      <point x="452" y="435"/>
      <point x="449" y="435" type="curve" smooth="yes"/>
    </contour>
    <contour>
      <point x="357" y="775" type="curve"/>
      <point x="321" y="828"/>
      <point x="288" y="878"/>
      <point x="251" y="933" type="curve"/>
      <point x="177" y="933"/>
      <point x="107" y="933"/>
      <point x="35" y="933" type="curve" smooth="yes"/>
      <point x="27" y="933"/>
      <point x="22" y="924"/>
      <point x="29" y="917" type="curve" smooth="yes"/>
      <point x="83" y="868"/>
      <point x="116" y="837"/>
      <point x="176" y="782" type="curve" smooth="yes"/>
      <point x="181" y="777"/>
      <point x="187" y="775"/>
      <point x="198" y="775" type="curve" smooth="yes"/>
      <point x="249" y="775"/>
      <point x="310" y="775"/>
    </contour>
  </outline>
</glyph>
<glyph name="Eacute" format="1">
  <advance width="550"/>
  <unicode hex="00C9"/>
  <outline>
    <contour>
      <point x="9" y="700" type="line"/>
      <point x="9" y="640"/>
      <point x="9" y="581"/>
      <point x="9" y="521" type="curve" smooth="yes"/>
      <point x="9" y="518"/>
      <point x="10" y="515"/>
      <point x="12" y="513" type="curve" smooth="yes"/>
      <point x="14" y="511"/>
      <point x="17" y="510"/>
      <point x="20" y="510" type="curve" smooth="yes"/>
      <point x="520" y="510" type="line"/>
      <point x="520" y="570"/>
      <point x="520" y="629"/>
      <point x="520" y="689" type="curve" smooth="yes"/>
      <point x="520" y="692"/>
      <point x="519" y="695"/>
      <point x="517" y="697" type="curve" smooth="yes"/>
      <point x="515" y="699"/>
      <point x="512" y="700"/>
      <point x="509" y="700" type="curve" smooth="yes"/>
    </contour>
    <contour>
      <point x="264" y="100" type="curve"/>
      <point x="264" y="639" type="line" smooth="yes"/>
      <point x="264" y="645"/>
      <point x="259" y="650"/>
      <point x="39" y="650" type="curve"/>
      <point x="39" y="111" type="line"/>
      <point x="39" y="105"/>
      <point x="44" y="100"/>
    </contour>
    <contour>
      <point x="39" y="190" type="line"/>
      <point x="39" y="11" type="line" smooth="yes"/>
      <point x="39" y="5"/>
      <point x="44" y="0"/>
      <point x="50" y="0" type="curve" smooth="yes"/>
      <point x="520" y="0" type="line"/>
      <point x="520" y="60"/>
      <point x="520" y="119"/>
      <point x="520" y="179" type="curve" smooth="yes"/>
      <point x="520" y="185"/>
      <point x="515" y="190"/>
      <point x="509" y="190" type="curve" smooth="yes"/>
    </contour>
    <contour>
      <point x="149" y="435" type="line"/>
      <point x="149" y="269"/>
      <point x="154" y="265"/>
      <point x="160" y="265" type="curve" smooth="yes"/>
      <point x="460" y="265" type="line"/>
      <point x="460" y="318"/>
      <point x="460" y="371"/>
      <point x="460" y="424" type="curve" smooth="yes"/>
      <point x="460" y="427"/>
      <point x="459" y="430"/>
      <point x="457" y="432" type="curve" smooth="yes"/>
      <point x="455" y="434"/>
      <point x="452" y="435"/>
      <point x="449" y="435" type="curve" smooth="yes"/>
    </contour>
    <contour>
      <point x="330" y="775" type="curve" smooth="yes"/>
      <point x="341" y="775"/>
      <point x="347" y="777"/>
      <point x="353" y="782" type="curve" smooth="yes"/>
      <point x="413" y="837"/>
      <point x="445" y="866"/>
      <point x="499" y="915" type="curve" smooth="yes"/>
      <point x="506" y="922"/>
      <point x="501" y="933"/>
      <point x="493" y="933" type="curve" smooth="yes"/>
      <point x="421" y="933"/>
      <point x="351" y="933"/>
      <point x="277" y="933" type="curve"/>
      <point x="240" y="878"/>
      <point x="207" y="828"/>
      <point x="171" y="775" type="curve"/>
      <point x="218" y="775"/>
      <point x="279" y="775"/>
    </contour>
  </outline>
</glyph>
<glyph name="Ecircumflex" format="1">
  <advance width="550"/>
  <unicode hex="00CA"/>
  <outline>
    <contour>
      <point x="9" y="700" type="line"/>
      <point x="9" y="640"/>
      <point x="9" y="581"/>
      <point x="9" y="521" type="curve" smooth="yes"/>
      <point x="9" y="518"/>
      <point x="10" y="515"/>
      <point x="12" y="513" type="curve" smooth="yes"/>
      <point x="14" y="511"/>
      <point x="17" y="510"/>
      <point x="20" y="510" type="curve" smooth="yes"/>
      <point x="520" y="510" type="line"/>
      <point x="520" y="570"/>
      <point x="520" y="629"/>
      <point x="520" y="689" type="curve" smooth="yes"/>
      <point x="520" y="692"/>
      <point x="519" y="695"/>
      <point x="517" y="697" type="curve" smooth="yes"/>
      <point x="515" y="699"/>
      <point x="512" y="700"/>
      <point x="509" y="700" type="curve" smooth="yes"/>
    </contour>
    <contour>
      <point x="264" y="100" type="curve"/>
      <point x="264" y="639" type="line" smooth="yes"/>
      <point x="264" y="645"/>
      <point x="259" y="650"/>
      <point x="39" y="650" type="curve"/>
      <point x="39" y="111" type="line"/>
      <point x="39" y="105"/>
      <point x="44" y="100"/>
    </contour>
    <contour>
      <point x="39" y="190" type="line"/>
      <point x="39" y="11" type="line" smooth="yes"/>
      <point x="39" y="5"/>
      <point x="44" y="0"/>
      <point x="50" y="0" type="curve" smooth="yes"/>
      <point x="520" y="0" type="line"/>
      <point x="520" y="60"/>
      <point x="520" y="119"/>
      <point x="520" y="179" type="curve" smooth="yes"/>
      <point x="520" y="185"/>
      <point x="515" y="190"/>
      <point x="509" y="190" type="curve" smooth="yes"/>
    </contour>
    <contour>
      <point x="149" y="435" type="line"/>
      <point x="149" y="269"/>
      <point x="154" y="265"/>
      <point x="160" y="265" type="curve" smooth="yes"/>
      <point x="460" y="265" type="line"/>
      <point x="460" y="318"/>
      <point x="460" y="371"/>
      <point x="460" y="424" type="curve" smooth="yes"/>
      <point x="460" y="427"/>
      <point x="459" y="430"/>
      <point x="457" y="432" type="curve" smooth="yes"/>
      <point x="455" y="434"/>
      <point x="452" y="435"/>
      <point x="449" y="435" type="curve" smooth="yes"/>
    </contour>
    <contour>
      <point x="195" y="775" type="line"/>
      <point x="240" y="812"/>
      <point x="287" y="851"/>
      <point x="350" y="905" type="curve"/>
      <point x="296" y="949"/>
      <point x="258" y="947"/>
      <point x="249" y="947" type="curve"/>
      <point x="186" y="947" type="line"/>
      <point x="160" y="919"/>
      <point x="84" y="839"/>
      <point x="55" y="808" type="curve" smooth="yes"/>
      <point x="39" y="791"/>
      <point x="37" y="788"/>
      <point x="37" y="783" type="curve" smooth="yes"/>
      <point x="37" y="778"/>
      <point x="40" y="775"/>
      <point x="48" y="775" type="curve"/>
    </contour>
    <contour>
      <point x="501" y="775" type="curve"/>
      <point x="454" y="824"/>
      <point x="374" y="908"/>
      <point x="355" y="928" type="curve" smooth="yes"/>
      <point x="339" y="944"/>
      <point x="335" y="947"/>
      <point x="325" y="947" type="curve" smooth="yes"/>
      <point x="246" y="947" type="line"/>
      <point x="240" y="947"/>
      <point x="206" y="946"/>
      <point x="177" y="905" type="curve"/>
      <point x="241" y="851"/>
      <point x="299" y="802"/>
      <point x="320" y="784" type="curve" smooth="yes"/>
      <point x="329" y="777"/>
      <point x="334" y="775"/>
      <point x="349" y="775" type="curve" smooth="yes"/>
      <point x="405" y="775"/>
      <point x="471" y="775"/>
    </contour>
  </outline>
</glyph>
<glyph name="Edieresis" format="1">
  <advance width="550"/>
  <unicode hex="00CB"/>
  <outline>
    <contour>
      <point x="9" y="700" type="line"/>
      <point x="9" y="640"/>
      <point x="9" y="581"/>
      <point x="9" y="521" type="curve" smooth="yes"/>
      <point x="9" y="518"/>
      <point x="10" y="515"/>
      <point x="12" y="513" type="curve" smooth="yes"/>
      <point x="14" y="511"/>
      <point x="17" y="510"/>
      <point x="20" y="510" type="curve" smooth="yes"/>
      <point x="520" y="510" type="line"/>
      <point x="520" y="570"/>
      <point x="520" y="629"/>
      <point x="520" y="689" type="curve" smooth="yes"/>
      <point x="520" y="692"/>
      <point x="519" y="695"/>
      <point x="517" y="697" type="curve" smooth="yes"/>
      <point x="515" y="699"/>
      <point x="512" y="700"/>
      <point x="509" y="700" type="curve" smooth="yes"/>
    </contour>
    <contour>
      <point x="264" y="100" type="curve"/>
      <point x="264" y="639" type="line" smooth="yes"/>
      <point x="264" y="645"/>
      <point x="259" y="650"/>
      <point x="39" y="650" type="curve"/>
      <point x="39" y="111" type="line"/>
      <point x="39" y="105"/>
      <point x="44" y="100"/>
    </contour>
    <contour>
      <point x="39" y="190" type="line"/>
      <point x="39" y="11" type="line" smooth="yes"/>
      <point x="39" y="5"/>
      <point x="44" y="0"/>
      <point x="50" y="0" type="curve" smooth="yes"/>
      <point x="520" y="0" type="line"/>
      <point x="520" y="60"/>
      <point x="520" y="119"/>
      <point x="520" y="179" type="curve" smooth="yes"/>
      <point x="520" y="185"/>
      <point x="515" y="190"/>
      <point x="509" y="190" type="curve" smooth="yes"/>
    </contour>
    <contour>
      <point x="149" y="435" type="line"/>
      <point x="149" y="269"/>
      <point x="154" y="265"/>
      <point x="160" y="265" type="curve" smooth="yes"/>
      <point x="460" y="265" type="line"/>
      <point x="460" y="318"/>
      <point x="460" y="371"/>
      <point x="460" y="424" type="curve" smooth="yes"/>
      <point x="460" y="427"/>
      <point x="459" y="430"/>
      <point x="457" y="432" type="curve" smooth="yes"/>
      <point x="455" y="434"/>
      <point x="452" y="435"/>
      <point x="449" y="435" type="curve" smooth="yes"/>
    </contour>
    <contour>
      <point x="232" y="775" type="curve"/>
      <point x="232" y="921" type="line" smooth="yes"/>
      <point x="232" y="927"/>
      <point x="227" y="932"/>
      <point x="221" y="932" type="curve" smooth="yes"/>
      <point x="170" y="932"/>
      <point x="117" y="932"/>
      <point x="66" y="932" type="curve"/>
      <point x="66" y="786" type="line" smooth="yes"/>
      <point x="66" y="780"/>
      <point x="71" y="775"/>
      <point x="77" y="775" type="curve" smooth="yes"/>
      <point x="128" y="775"/>
      <point x="181" y="775"/>
    </contour>
    <contour>
      <point x="462" y="775" type="curve"/>
      <point x="462" y="921" type="line" smooth="yes"/>
      <point x="462" y="927"/>
      <point x="457" y="932"/>
      <point x="451" y="932" type="curve" smooth="yes"/>
      <point x="400" y="932"/>
      <point x="347" y="932"/>
      <point x="296" y="932" type="curve"/>
      <point x="296" y="786" type="line" smooth="yes"/>
      <point x="296" y="780"/>
      <point x="301" y="775"/>
      <point x="307" y="775" type="curve" smooth="yes"/>
      <point x="358" y="775"/>
      <point x="411" y="775"/>
    </contour>
  </outline>
</glyph>
<glyph name="Igrave" format="1">
  <advance width="500"/>
  <unicode hex="00CC"/>
  <outline>
    <contour>
      <point x="362" y="50" type="curve"/>
      <point x="362" y="639" type="line" smooth="yes"/>
      <point x="362" y="645"/>
      <point x="357" y="650"/>
      <point x="138" y="650" type="curve"/>
      <point x="138" y="61" type="line" smooth="yes"/>
      <point x="138" y="55"/>
      <point x="143" y="50"/>
    </contour>
    <contour>
      <point x="30" y="700" type="line"/>
      <point x="30" y="654"/>
      <point x="30" y="547"/>
      <point x="30" y="501" type="curve"/>
      <point x="30" y="498"/>
      <point x="31" y="495"/>
      <point x="33" y="493" type="curve" smooth="yes"/>
      <point x="35" y="491"/>
      <point x="38" y="490"/>
      <point x="41" y="490" type="curve" smooth="yes"/>
      <point x="470" y="490" type="line"/>
      <point x="470" y="536"/>
      <point x="470" y="643"/>
      <point x="470" y="689" type="curve" smooth="yes"/>
      <point x="470" y="695"/>
      <point x="465" y="700"/>
      <point x="459" y="700" type="curve" smooth="yes"/>
    </contour>
    <contour>
      <point x="30" y="210" type="line"/>
      <point x="30" y="164"/>
      <point x="30" y="57"/>
      <point x="30" y="11" type="curve"/>
      <point x="30" y="8"/>
      <point x="31" y="5"/>
      <point x="33" y="3" type="curve" smooth="yes"/>
      <point x="35" y="1"/>
      <point x="38" y="0"/>
      <point x="41" y="0" type="curve" smooth="yes"/>
      <point x="470" y="0" type="line"/>
      <point x="470" y="46"/>
      <point x="470" y="153"/>
      <point x="470" y="199" type="curve" smooth="yes"/>
      <point x="470" y="205"/>
      <point x="465" y="210"/>
      <point x="459" y="210" type="curve" smooth="yes"/>
    </contour>
    <contour>
      <point x="343" y="775" type="curve"/>
      <point x="307" y="828"/>
      <point x="274" y="878"/>
      <point x="237" y="933" type="curve"/>
      <point x="163" y="933"/>
      <point x="93" y="933"/>
      <point x="21" y="933" type="curve" smooth="yes"/>
      <point x="13" y="933"/>
      <point x="8" y="924"/>
      <point x="15" y="917" type="curve" smooth="yes"/>
      <point x="69" y="868"/>
      <point x="102" y="837"/>
      <point x="162" y="782" type="curve" smooth="yes"/>
      <point x="167" y="777"/>
      <point x="173" y="775"/>
      <point x="184" y="775" type="curve" smooth="yes"/>
      <point x="235" y="775"/>
      <point x="296" y="775"/>
    </contour>
  </outline>
</glyph>
<glyph name="Iacute" format="1">
  <advance width="500"/>
  <unicode hex="00CD"/>
  <outline>
    <contour>
      <point x="362" y="50" type="curve"/>
      <point x="362" y="639" type="line" smooth="yes"/>
      <point x="362" y="645"/>
      <point x="357" y="650"/>
      <point x="138" y="650" type="curve"/>
      <point x="138" y="61" type="line" smooth="yes"/>
      <point x="138" y="55"/>
      <point x="143" y="50"/>
    </contour>
    <contour>
      <point x="30" y="700" type="line"/>
      <point x="30" y="654"/>
      <point x="30" y="547"/>
      <point x="30" y="501" type="curve"/>
      <point x="30" y="498"/>
      <point x="31" y="495"/>
      <point x="33" y="493" type="curve" smooth="yes"/>
      <point x="35" y="491"/>
      <point x="38" y="490"/>
      <point x="41" y="490" type="curve" smooth="yes"/>
      <point x="470" y="490" type="line"/>
      <point x="470" y="536"/>
      <point x="470" y="643"/>
      <point x="470" y="689" type="curve" smooth="yes"/>
      <point x="470" y="695"/>
      <point x="465" y="700"/>
      <point x="459" y="700" type="curve" smooth="yes"/>
    </contour>
    <contour>
      <point x="30" y="210" type="line"/>
      <point x="30" y="164"/>
      <point x="30" y="57"/>
      <point x="30" y="11" type="curve"/>
      <point x="30" y="8"/>
      <point x="31" y="5"/>
      <point x="33" y="3" type="curve" smooth="yes"/>
      <point x="35" y="1"/>
      <point x="38" y="0"/>
      <point x="41" y="0" type="curve" smooth="yes"/>
      <point x="470" y="0" type="line"/>
      <point x="470" y="46"/>
      <point x="470" y="153"/>
      <point x="470" y="199" type="curve" smooth="yes"/>
      <point x="470" y="205"/>
      <point x="465" y="210"/>
      <point x="459" y="210" type="curve" smooth="yes"/>
    </contour>
    <contour>
      <point x="316" y="775" type="curve" smooth="yes"/>
      <point x="327" y="775"/>
      <point x="333" y="777"/>
      <point x="339" y="782" type="curve" smooth="yes"/>
      <point x="399" y="837"/>
      <point x="431" y="866"/>
      <point x="485" y="915" type="curve" smooth="yes"/>
      <point x="492" y="922"/>
      <point x="487" y="933"/>
      <point x="479" y="933" type="curve" smooth="yes"/>
      <point x="407" y="933"/>
      <point x="337" y="933"/>
      <point x="263" y="933" type="curve"/>
      <point x="226" y="878"/>
      <point x="193" y="828"/>
      <point x="157" y="775" type="curve"/>
      <point x="204" y="775"/>
      <point x="265" y="775"/>
    </contour>
  </outline>
</glyph>
<glyph name="Icircumflex" format="1">
  <advance width="500"/>
  <unicode hex="00CE"/>
  <outline>
    <contour>
      <point x="362" y="50" type="curve"/>
      <point x="362" y="639" type="line" smooth="yes"/>
      <point x="362" y="645"/>
      <point x="357" y="650"/>
      <point x="138" y="650" type="curve"/>
      <point x="138" y="61" type="line" smooth="yes"/>
      <point x="138" y="55"/>
      <point x="143" y="50"/>
    </contour>
    <contour>
      <point x="30" y="700" type="line"/>
      <point x="30" y="654"/>
      <point x="30" y="547"/>
      <point x="30" y="501" type="curve"/>
      <point x="30" y="498"/>
      <point x="31" y="495"/>
      <point x="33" y="493" type="curve" smooth="yes"/>
      <point x="35" y="491"/>
      <point x="38" y="490"/>
      <point x="41" y="490" type="curve" smooth="yes"/>
      <point x="470" y="490" type="line"/>
      <point x="470" y="536"/>
      <point x="470" y="643"/>
      <point x="470" y="689" type="curve" smooth="yes"/>
      <point x="470" y="695"/>
      <point x="465" y="700"/>
      <point x="459" y="700" type="curve" smooth="yes"/>
    </contour>
    <contour>
      <point x="30" y="210" type="line"/>
      <point x="30" y="164"/>
      <point x="30" y="57"/>
      <point x="30" y="11" type="curve"/>
      <point x="30" y="8"/>
      <point x="31" y="5"/>
      <point x="33" y="3" type="curve" smooth="yes"/>
      <point x="35" y="1"/>
      <point x="38" y="0"/>
      <point x="41" y="0" type="curve" smooth="yes"/>
      <point x="470" y="0" type="line"/>
      <point x="470" y="46"/>
      <point x="470" y="153"/>
      <point x="470" y="199" type="curve" smooth="yes"/>
      <point x="470" y="205"/>
      <point x="465" y="210"/>
      <point x="459" y="210" type="curve" smooth="yes"/>
    </contour>
    <contour>
      <point x="181" y="775" type="line"/>
      <point x="226" y="812"/>
      <point x="273" y="851"/>
      <point x="336" y="905" type="curve"/>
      <point x="282" y="949"/>
      <point x="244" y="947"/>
      <point x="235" y="947" type="curve"/>
      <point x="172" y="947" type="line"/>
      <point x="146" y="919"/>
      <point x="70" y="839"/>
      <point x="41" y="808" type="curve" smooth="yes"/>
      <point x="25" y="791"/>
      <point x="23" y="788"/>
      <point x="23" y="783" type="curve" smooth="yes"/>
      <point x="23" y="778"/>
      <point x="26" y="775"/>
      <point x="34" y="775" type="curve"/>
    </contour>
    <contour>
      <point x="487" y="775" type="curve"/>
      <point x="440" y="824"/>
      <point x="360" y="908"/>
      <point x="341" y="928" type="curve" smooth="yes"/>
      <point x="325" y="944"/>
      <point x="321" y="947"/>
      <point x="311" y="947" type="curve" smooth="yes"/>
      <point x="232" y="947" type="line"/>
      <point x="226" y="947"/>
      <point x="192" y="946"/>
      <point x="163" y="905" type="curve"/>
      <point x="227" y="851"/>
      <point x="285" y="802"/>
      <point x="306" y="784" type="curve" smooth="yes"/>
      <point x="315" y="777"/>
      <point x="320" y="775"/>
      <point x="335" y="775" type="curve" smooth="yes"/>
      <point x="391" y="775"/>
      <point x="457" y="775"/>
    </contour>
  </outline>
</glyph>
<glyph name="Idieresis" format="1">
  <advance width="500"/>
  <unicode hex="00CF"/>
  <outline>
    <contour>
      <point x="362" y="50" type="curve"/>
      <point x="362" y="639" type="line" smooth="yes"/>
      <point x="362" y="645"/>
      <point x="357" y="650"/>
      <point x="138" y="650" type="curve"/>
      <point x="138" y="61" type="line" smooth="yes"/>
      <point x="138" y="55"/>
      <point x="143" y="50"/>
    </contour>
    <contour>
      <point x="30" y="700" type="line"/>
      <point x="30" y="654"/>
      <point x="30" y="547"/>
      <point x="30" y="501" type="curve"/>
      <point x="30" y="498"/>
      <point x="31" y="495"/>
      <point x="33" y="493" type="curve" smooth="yes"/>
      <point x="35" y="491"/>
      <point x="38" y="490"/>
      <point x="41" y="490" type="curve" smooth="yes"/>
      <point x="470" y="490" type="line"/>
      <point x="470" y="536"/>
      <point x="470" y="643"/>
      <point x="470" y="689" type="curve" smooth="yes"/>
      <point x="470" y="695"/>
      <point x="465" y="700"/>
      <point x="459" y="700" type="curve" smooth="yes"/>
    </contour>
    <contour>
      <point x="30" y="210" type="line"/>
      <point x="30" y="164"/>
      <point x="30" y="57"/>
      <point x="30" y="11" type="curve"/>
      <point x="30" y="8"/>
      <point x="31" y="5"/>
      <point x="33" y="3" type="curve" smooth="yes"/>
      <point x="35" y="1"/>
      <point x="38" y="0"/>
      <point x="41" y="0" type="curve" smooth="yes"/>
      <point x="470" y="0" type="line"/>
      <point x="470" y="46"/>
      <point x="470" y="153"/>
      <point x="470" y="199" type="curve" smooth="yes"/>
      <point x="470" y="205"/>
      <point x="465" y="210"/>
      <point x="459" y="210" type="curve" smooth="yes"/>
    </contour>
    <contour>
      <point x="218" y="775" type="curve"/>
      <point x="218" y="921" type="line" smooth="yes"/>
      <point x="218" y="927"/>
      <point x="213" y="932"/>
      <point x="207" y="932" type="curve" smooth="yes"/>
      <point x="156" y="932"/>
      <point x="103" y="932"/>
      <point x="52" y="932" type="curve"/>
      <point x="52" y="786" type="line" smooth="yes"/>
      <point x="52" y="780"/>
      <point x="57" y="775"/>
      <point x="63" y="775" type="curve" smooth="yes"/>
      <point x="114" y="775"/>
      <point x="167" y="775"/>
    </contour>
    <contour>
      <point x="448" y="775" type="curve"/>
      <point x="448" y="921" type="line" smooth="yes"/>
      <point x="448" y="927"/>
      <point x="443" y="932"/>
      <point x="437" y="932" type="curve" smooth="yes"/>
      <point x="386" y="932"/>
      <point x="333" y="932"/>
      <point x="282" y="932" type="curve"/>
      <point x="282" y="786" type="line" smooth="yes"/>
      <point x="282" y="780"/>
      <point x="287" y="775"/>
      <point x="293" y="775" type="curve" smooth="yes"/>
      <point x="344" y="775"/>
      <point x="397" y="775"/>
    </contour>
  </outline>
</glyph>
<glyph name="Ograve" format="1">
  <advance width="650"/>
  <unicode hex="00D2"/>
  <outline>
    <contour>
      <point x="325" y="720" type="curve" smooth="yes"/>
      <point x="141" y="720"/>
      <point x="30" y="616"/>
      <point x="30" y="446" type="curve" smooth="yes"/>
      <point x="30" y="254" type="line" smooth="yes"/>
      <point x="30" y="83"/>
      <point x="141" y="-20"/>
      <point x="325" y="-20" type="curve" smooth="yes"/>
      <point x="325" y="-20"/>
      <point x="358" y="11"/>
      <point x="325" y="180" type="curve"/>
      <point x="279" y="180"/>
      <point x="255" y="202"/>
      <point x="255" y="250" type="curve" smooth="yes"/>
      <point x="255" y="450" type="line" smooth="yes"/>
      <point x="255" y="492"/>
      <point x="283" y="520"/>
      <point x="325" y="520" type="curve" smooth="yes"/>
      <point x="390" y="520"/>
      <point x="447" y="520"/>
      <point x="482" y="520" type="curve"/>
      <point x="482" y="648"/>
      <point x="425" y="720"/>
    </contour>
    <contour>
      <point x="325" y="-20" type="curve" smooth="yes"/>
      <point x="509" y="-20"/>
      <point x="620" y="84"/>
      <point x="620" y="254" type="curve" smooth="yes"/>
      <point x="620" y="446" type="line" smooth="yes"/>
      <point x="620" y="617"/>
      <point x="509" y="720"/>
      <point x="325" y="720" type="curve" smooth="yes"/>
      <point x="325" y="720"/>
      <point x="292" y="689"/>
      <point x="325" y="520" type="curve"/>
      <point x="371" y="520"/>
      <point x="395" y="498"/>
      <point x="395" y="450" type="curve" smooth="yes"/>
      <point x="395" y="250" type="line" smooth="yes"/>
      <point x="395" y="208"/>
      <point x="367" y="180"/>
      <point x="325" y="180" type="curve" smooth="yes"/>
      <point x="260" y="180"/>
      <point x="203" y="180"/>
      <point x="168" y="180" type="curve"/>
      <point x="168" y="52"/>
      <point x="225" y="-20"/>
    </contour>
    <contour>
      <point x="418" y="775" type="curve"/>
      <point x="382" y="828"/>
      <point x="349" y="878"/>
      <point x="312" y="933" type="curve"/>
      <point x="238" y="933"/>
      <point x="168" y="933"/>
      <point x="96" y="933" type="curve" smooth="yes"/>
      <point x="88" y="933"/>
      <point x="83" y="924"/>
      <point x="90" y="917" type="curve" smooth="yes"/>
      <point x="144" y="868"/>
      <point x="177" y="837"/>
      <point x="237" y="782" type="curve" smooth="yes"/>
      <point x="242" y="777"/>
      <point x="248" y="775"/>
      <point x="259" y="775" type="curve" smooth="yes"/>
      <point x="310" y="775"/>
      <point x="371" y="775"/>
    </contour>
  </outline>
</glyph>
<glyph name="Ocircumflex" format="1">
  <advance width="650"/>
  <unicode hex="00D4"/>
  <outline>
    <contour>
      <point x="325" y="720" type="curve" smooth="yes"/>
      <point x="141" y="720"/>
      <point x="30" y="616"/>
      <point x="30" y="446" type="curve" smooth="yes"/>
      <point x="30" y="254" type="line" smooth="yes"/>
      <point x="30" y="83"/>
      <point x="141" y="-20"/>
      <point x="325" y="-20" type="curve" smooth="yes"/>
      <point x="325" y="-20"/>
      <point x="358" y="11"/>
      <point x="325" y="180" type="curve"/>
      <point x="279" y="180"/>
      <point x="255" y="202"/>
      <point x="255" y="250" type="curve" smooth="yes"/>
      <point x="255" y="450" type="line" smooth="yes"/>
      <point x="255" y="492"/>
      <point x="283" y="520"/>
      <point x="325" y="520" type="curve" smooth="yes"/>
      <point x="390" y="520"/>
      <point x="447" y="520"/>
      <point x="482" y="520" type="curve"/>
      <point x="482" y="648"/>
      <point x="425" y="720"/>
    </contour>
    <contour>
      <point x="325" y="-20" type="curve" smooth="yes"/>
      <point x="509" y="-20"/>
      <point x="620" y="84"/>
      <point x="620" y="254" type="curve" smooth="yes"/>
      <point x="620" y="446" type="line" smooth="yes"/>
      <point x="620" y="617"/>
      <point x="509" y="720"/>
      <point x="325" y="720" type="curve" smooth="yes"/>
      <point x="325" y="720"/>
      <point x="292" y="689"/>
      <point x="325" y="520" type="curve"/>
      <point x="371" y="520"/>
      <point x="395" y="498"/>
      <point x="395" y="450" type="curve" smooth="yes"/>
      <point x="395" y="250" type="line" smooth="yes"/>
      <point x="395" y="208"/>
      <point x="367" y="180"/>
      <point x="325" y="180" type="curve" smooth="yes"/>
      <point x="260" y="180"/>
      <point x="203" y="180"/>
      <point x="168" y="180" type="curve"/>
      <point x="168" y="52"/>
      <point x="225" y="-20"/>
    </contour>
    <contour>
      <point x="256" y="775" type="line"/>
      <point x="301" y="812"/>
      <point x="348" y="851"/>
      <point x="411" y="905" type="curve"/>
      <point x="357" y="949"/>
      <point x="319" y="947"/>
      <point x="310" y="947" type="curve"/>
      <point x="247" y="947" type="line"/>
      <point x="221" y="919"/>
      <point x="145" y="839"/>
      <point x="116" y="808" type="curve" smooth="yes"/>
      <point x="100" y="791"/>
      <point x="98" y="788"/>
      <point x="98" y="783" type="curve" smooth="yes"/>
      <point x="98" y="778"/>
      <point x="101" y="775"/>
      <point x="109" y="775" type="curve"/>
    </contour>
    <contour>
      <point x="562" y="775" type="curve"/>
      <point x="515" y="824"/>
      <point x="435" y="908"/>
      <point x="416" y="928" type="curve" smooth="yes"/>
      <point x="400" y="944"/>
      <point x="396" y="947"/>
      <point x="386" y="947" type="curve" smooth="yes"/>
      <point x="307" y="947" type="line"/>
      <point x="301" y="947"/>
      <point x="267" y="946"/>
      <point x="238" y="905" type="curve"/>
      <point x="302" y="851"/>
      <point x="360" y="802"/>
      <point x="381" y="784" type="curve" smooth="yes"/>
      <point x="390" y="777"/>
      <point x="395" y="775"/>
      <point x="410" y="775" type="curve" smooth="yes"/>
      <point x="466" y="775"/>
      <point x="532" y="775"/>
    </contour>
  </outline>
</glyph>
<glyph name="Otilde" format="1">
  <advance width="650"/>
  <unicode hex="00D5"/>
  <outline>
    <contour>
      <point x="325" y="720" type="curve" smooth="yes"/>
      <point x="141" y="720"/>
      <point x="30" y="616"/>
      <point x="30" y="446" type="curve" smooth="yes"/>
      <point x="30" y="254" type="line" smooth="yes"/>
      <point x="30" y="83"/>
      <point x="141" y="-20"/>
      <point x="325" y="-20" type="curve" smooth="yes"/>
      <point x="325" y="-20"/>
      <point x="358" y="11"/>
      <point x="325" y="180" type="curve"/>
      <point x="279" y="180"/>
      <point x="255" y="202"/>
      <point x="255" y="250" type="curve" smooth="yes"/>
      <point x="255" y="450" type="line" smooth="yes"/>
      <point x="255" y="492"/>
      <point x="283" y="520"/>
      <point x="325" y="520" type="curve" smooth="yes"/>
      <point x="390" y="520"/>
      <point x="447" y="520"/>
      <point x="482" y="520" type="curve"/>
      <point x="482" y="648"/>
      <point x="425" y="720"/>
    </contour>
    <contour>
      <point x="325" y="-20" type="curve" smooth="yes"/>
      <point x="509" y="-20"/>
      <point x="620" y="84"/>
      <point x="620" y="254" type="curve" smooth="yes"/>
      <point x="620" y="446" type="line" smooth="yes"/>
      <point x="620" y="617"/>
      <point x="509" y="720"/>
      <point x="325" y="720" type="curve" smooth="yes"/>
      <point x="325" y="720"/>
      <point x="292" y="689"/>
      <point x="325" y="520" type="curve"/>
      <point x="371" y="520"/>
      <point x="395" y="498"/>
      <point x="395" y="450" type="curve" smooth="yes"/>
      <point x="395" y="250" type="line" smooth="yes"/>
      <point x="395" y="208"/>
      <point x="367" y="180"/>
      <point x="325" y="180" type="curve" smooth="yes"/>
      <point x="260" y="180"/>
      <point x="203" y="180"/>
      <point x="168" y="180" type="curve"/>
      <point x="168" y="52"/>
      <point x="225" y="-20"/>
    </contour>
    <contour>
      <point x="435" y="922" type="curve" smooth="yes"/>
      <point x="362" y="922"/>
      <point x="311" y="964"/>
      <point x="221" y="964" type="curve" smooth="yes"/>
      <point x="176" y="964"/>
      <point x="146" y="950"/>
      <point x="125" y="927" type="curve" smooth="yes"/>
      <point x="118" y="919"/>
      <point x="118" y="915"/>
      <point x="118" y="904" type="curve" smooth="yes"/>
      <point x="118" y="869"/>
      <point x="118" y="801"/>
      <point x="118" y="768" type="curve"/>
      <point x="135" y="768" type="line"/>
      <point x="158" y="786"/>
      <point x="184" y="795"/>
      <point x="215" y="795" type="curve" smooth="yes"/>
      <point x="288" y="795"/>
      <point x="339" y="753"/>
      <point x="429" y="753" type="curve" smooth="yes"/>
      <point x="474" y="753"/>
      <point x="504" y="767"/>
      <point x="525" y="790" type="curve" smooth="yes"/>
      <point x="532" y="797"/>
      <point x="532" y="801"/>
      <point x="532" y="813" type="curve" smooth="yes"/>
      <point x="532" y="846"/>
      <point x="532" y="916"/>
      <point x="532" y="949" type="curve"/>
      <point x="515" y="949" type="line"/>
      <point x="492" y="931"/>
      <point x="466" y="922"/>
    </contour>
  </outline>
</glyph>
<glyph name="Odieresis" format="1">
  <advance width="650"/>
  <unicode hex="00D6"/>
  <outline>
    <contour>
      <point x="325" y="720" type="curve" smooth="yes"/>
      <point x="141" y="720"/>
      <point x="30" y="616"/>
      <point x="30" y="446" type="curve" smooth="yes"/>
      <point x="30" y="254" type="line" smooth="yes"/>
      <point x="30" y="83"/>
      <point x="141" y="-20"/>
      <point x="325" y="-20" type="curve" smooth="yes"/>
      <point x="325" y="-20"/>
      <point x="358" y="11"/>
      <point x="325" y="180" type="curve"/>
      <point x="279" y="180"/>
      <point x="255" y="202"/>
      <point x="255" y="250" type="curve" smooth="yes"/>
      <point x="255" y="450" type="line" smooth="yes"/>
      <point x="255" y="492"/>
      <point x="283" y="520"/>
      <point x="325" y="520" type="curve" smooth="yes"/>
      <point x="390" y="520"/>
      <point x="447" y="520"/>
      <point x="482" y="520" type="curve"/>
      <point x="482" y="648"/>
      <point x="425" y="720"/>
    </contour>
    <contour>
      <point x="325" y="-20" type="curve" smooth="yes"/>
      <point x="509" y="-20"/>
      <point x="620" y="84"/>
      <point x="620" y="254" type="curve" smooth="yes"/>
      <point x="620" y="446" type="line" smooth="yes"/>
      <point x="620" y="617"/>
      <point x="509" y="720"/>
      <point x="325" y="720" type="curve" smooth="yes"/>
      <point x="325" y="720"/>
      <point x="292" y="689"/>
      <point x="325" y="520" type="curve"/>
      <point x="371" y="520"/>
      <point x="395" y="498"/>
      <point x="395" y="450" type="curve" smooth="yes"/>
      <point x="395" y="250" type="line" smooth="yes"/>
      <point x="395" y="208"/>
      <point x="367" y="180"/>
      <point x="325" y="180" type="curve" smooth="yes"/>
      <point x="260" y="180"/>
      <point x="203" y="180"/>
      <point x="168" y="180" type="curve"/>
      <point x="168" y="52"/>
      <point x="225" y="-20"/>
    </contour>
    <contour>
      <point x="293" y="775" type="curve"/>
      <point x="293" y="921" type="line" smooth="yes"/>
      <point x="293" y="927"/>
      <point x="288" y="932"/>
      <point x="282" y="932" type="curve" smooth="yes"/>
      <point x="231" y="932"/>
      <point x="178" y="932"/>
      <point x="127" y="932" type="curve"/>
      <point x="127" y="786" type="line" smooth="yes"/>
      <point x="127" y="780"/>
      <point x="132" y="775"/>
      <point x="138" y="775" type="curve" smooth="yes"/>
      <point x="189" y="775"/>
      <point x="242" y="775"/>
    </contour>
    <contour>
      <point x="523" y="775" type="curve"/>
      <point x="523" y="921" type="line" smooth="yes"/>
      <point x="523" y="927"/>
      <point x="518" y="932"/>
      <point x="512" y="932" type="curve" smooth="yes"/>
      <point x="461" y="932"/>
      <point x="408" y="932"/>
      <point x="357" y="932" type="curve"/>
      <point x="357" y="786" type="line" smooth="yes"/>
      <point x="357" y="780"/>
      <point x="362" y="775"/>
      <point x="368" y="775" type="curve" smooth="yes"/>
      <point x="419" y="775"/>
      <point x="472" y="775"/>
    </contour>
  </outline>
</glyph>
<glyph name="Ugrave" format="1">
  <advance width="650"/>
  <unicode hex="00D9"/>
  <outline>
    <contour>
      <point x="35" y="700" type="curve"/>
      <point x="35" y="672"/>
      <point x="35" y="638"/>
      <point x="35" y="602" type="curve" smooth="yes"/>
      <point x="35" y="164" type="line"/>
      <point x="35" y="134"/>
      <point x="52" y="128"/>
      <point x="260" y="101" type="curve"/>
      <point x="260" y="147"/>
      <point x="260" y="194"/>
      <point x="260" y="240" type="curve"/>
      <point x="260" y="689" type="line"/>
      <point x="260" y="695"/>
      <point x="255" y="700"/>
      <point x="249" y="700" type="curve"/>
      <point x="178" y="700"/>
      <point x="106" y="700"/>
    </contour>
    <contour>
      <point x="188" y="-10" type="curve" smooth="yes"/>
      <point x="300" y="-10"/>
      <point x="367" y="46"/>
      <point x="408" y="113" type="curve" smooth="yes"/>
      <point x="427" y="145"/>
      <point x="430" y="187"/>
      <point x="410" y="257" type="curve"/>
      <point x="384" y="216"/>
      <point x="344" y="200"/>
      <point x="298" y="200" type="curve" smooth="yes"/>
      <point x="271" y="200"/>
      <point x="260" y="210"/>
      <point x="260" y="240" type="curve"/>
      <point x="118" y="240"/>
      <point x="35" y="194"/>
      <point x="35" y="164" type="curve" smooth="yes"/>
      <point x="35" y="49"/>
      <point x="91" y="-10"/>
    </contour>
    <contour>
      <point x="615" y="0" type="curve"/>
      <point x="615" y="28"/>
      <point x="615" y="62"/>
      <point x="615" y="98" type="curve" smooth="yes"/>
      <point x="615" y="689" type="line" smooth="yes"/>
      <point x="615" y="695"/>
      <point x="610" y="700"/>
      <point x="604" y="700" type="curve" smooth="yes"/>
      <point x="551" y="700"/>
      <point x="444" y="700"/>
      <point x="390" y="700" type="curve"/>
      <point x="390" y="11" type="line" smooth="yes"/>
      <point x="390" y="8"/>
      <point x="391" y="5"/>
      <point x="393" y="3" type="curve" smooth="yes"/>
      <point x="395" y="1"/>
      <point x="398" y="0"/>
      <point x="401" y="0" type="curve" smooth="yes"/>
      <point x="450" y="0"/>
      <point x="556" y="0"/>
    </contour>
    <contour>
      <point x="418" y="775" type="curve"/>
      <point x="382" y="828"/>
      <point x="349" y="878"/>
      <point x="312" y="933" type="curve"/>
      <point x="238" y="933"/>
      <point x="168" y="933"/>
      <point x="96" y="933" type="curve" smooth="yes"/>
      <point x="88" y="933"/>
      <point x="83" y="924"/>
      <point x="90" y="917" type="curve" smooth="yes"/>
      <point x="144" y="868"/>
      <point x="177" y="837"/>
      <point x="237" y="782" type="curve" smooth="yes"/>
      <point x="242" y="777"/>
      <point x="248" y="775"/>
      <point x="259" y="775" type="curve" smooth="yes"/>
      <point x="310" y="775"/>
      <point x="371" y="775"/>
    </contour>
  </outline>
</glyph>
<glyph name="Uacute" format="1">
  <advance width="650"/>
  <unicode hex="00DA"/>
  <outline>
    <contour>
      <point x="35" y="700" type="curve"/>
      <point x="35" y="672"/>
      <point x="35" y="638"/>
      <point x="35" y="602" type="curve" smooth="yes"/>
      <point x="35" y="164" type="line"/>
      <point x="35" y="134"/>
      <point x="52" y="128"/>
      <point x="260" y="101" type="curve"/>
      <point x="260" y="147"/>
      <point x="260" y="194"/>
      <point x="260" y="240" type="curve"/>
      <point x="260" y="689" type="line"/>
      <point x="260" y="695"/>
      <point x="255" y="700"/>
      <point x="249" y="700" type="curve"/>
      <point x="178" y="700"/>
      <point x="106" y="700"/>
    </contour>
    <contour>
      <point x="188" y="-10" type="curve" smooth="yes"/>
      <point x="300" y="-10"/>
      <point x="367" y="46"/>
      <point x="408" y="113" type="curve" smooth="yes"/>
      <point x="427" y="145"/>
      <point x="430" y="187"/>
      <point x="410" y="257" type="curve"/>
      <point x="384" y="216"/>
      <point x="344" y="200"/>
      <point x="298" y="200" type="curve" smooth="yes"/>
      <point x="271" y="200"/>
      <point x="260" y="210"/>
      <point x="260" y="240" type="curve"/>
      <point x="118" y="240"/>
      <point x="35" y="194"/>
      <point x="35" y="164" type="curve" smooth="yes"/>
      <point x="35" y="49"/>
      <point x="91" y="-10"/>
    </contour>
    <contour>
      <point x="615" y="0" type="curve"/>
      <point x="615" y="28"/>
      <point x="615" y="62"/>
      <point x="615" y="98" type="curve" smooth="yes"/>
      <point x="615" y="689" type="line" smooth="yes"/>
      <point x="615" y="695"/>
      <point x="610" y="700"/>
      <point x="604" y="700" type="curve" smooth="yes"/>
      <point x="551" y="700"/>
      <point x="444" y="700"/>
      <point x="390" y="700" type="curve"/>
      <point x="390" y="11" type="line" smooth="yes"/>
      <point x="390" y="8"/>
      <point x="391" y="5"/>
      <point x="393" y="3" type="curve" smooth="yes"/>
      <point x="395" y="1"/>
      <point x="398" y="0"/>
      <point x="401" y="0" type="curve" smooth="yes"/>
      <point x="450" y="0"/>
      <point x="556" y="0"/>
    </contour>
    <contour>
      <point x="391" y="775" type="curve" smooth="yes"/>
      <point x="402" y="775"/>
      <point x="408" y="777"/>
      <point x="414" y="782" type="curve" smooth="yes"/>
      <point x="474" y="837"/>
      <point x="506" y="866"/>
      <point x="560" y="915" type="curve" smooth="yes"/>
      <point x="567" y="922"/>
      <point x="562" y="933"/>
      <point x="554" y="933" type="curve" smooth="yes"/>
      <point x="482" y="933"/>
      <point x="412" y="933"/>
      <point x="338" y="933" type="curve"/>
      <point x="301" y="878"/>
      <point x="268" y="828"/>
      <point x="232" y="775" type="curve"/>
      <point x="279" y="775"/>
      <point x="340" y="775"/>
    </contour>
  </outline>
</glyph>
<glyph name="Ucircumflex" format="1">
  <advance width="650"/>
  <unicode hex="00DB"/>
  <outline>
    <contour>
      <point x="35" y="700" type="curve"/>
      <point x="35" y="672"/>
      <point x="35" y="638"/>
      <point x="35" y="602" type="curve" smooth="yes"/>
      <point x="35" y="164" type="line"/>
      <point x="35" y="134"/>
      <point x="52" y="128"/>
      <point x="260" y="101" type="curve"/>
      <point x="260" y="147"/>
      <point x="260" y="194"/>
      <point x="260" y="240" type="curve"/>
      <point x="260" y="689" type="line"/>
      <point x="260" y="695"/>
      <point x="255" y="700"/>
      <point x="249" y="700" type="curve"/>
      <point x="178" y="700"/>
      <point x="106" y="700"/>
    </contour>
    <contour>
      <point x="188" y="-10" type="curve" smooth="yes"/>
      <point x="300" y="-10"/>
      <point x="367" y="46"/>
      <point x="408" y="113" type="curve" smooth="yes"/>
      <point x="427" y="145"/>
      <point x="430" y="187"/>
      <point x="410" y="257" type="curve"/>
      <point x="384" y="216"/>
      <point x="344" y="200"/>
      <point x="298" y="200" type="curve" smooth="yes"/>
      <point x="271" y="200"/>
      <point x="260" y="210"/>
      <point x="260" y="240" type="curve"/>
      <point x="118" y="240"/>
      <point x="35" y="194"/>
      <point x="35" y="164" type="curve" smooth="yes"/>
      <point x="35" y="49"/>
      <point x="91" y="-10"/>
    </contour>
    <contour>
      <point x="615" y="0" type="curve"/>
      <point x="615" y="28"/>
      <point x="615" y="62"/>
      <point x="615" y="98" type="curve" smooth="yes"/>
      <point x="615" y="689" type="line" smooth="yes"/>
      <point x="615" y="695"/>
      <point x="610" y="700"/>
      <point x="604" y="700" type="curve" smooth="yes"/>
      <point x="551" y="700"/>
      <point x="444" y="700"/>
      <point x="390" y="700" type="curve"/>
      <point x="390" y="11" type="line" smooth="yes"/>
      <point x="390" y="8"/>
      <point x="391" y="5"/>
      <point x="393" y="3" type="curve" smooth="yes"/>
      <point x="395" y="1"/>
      <point x="398" y="0"/>
      <point x="401" y="0" type="curve" smooth="yes"/>
      <point x="450" y="0"/>
      <point x="556" y="0"/>
    </contour>
    <contour>
      <point x="256" y="775" type="line"/>
      <point x="301" y="812"/>
      <point x="348" y="851"/>
      <point x="411" y="905" type="curve"/>
      <point x="357" y="949"/>
      <point x="319" y="947"/>
      <point x="310" y="947" type="curve"/>
      <point x="247" y="947" type="line"/>
      <point x="221" y="919"/>
      <point x="145" y="839"/>
      <point x="116" y="808" type="curve" smooth="yes"/>
      <point x="100" y="791"/>
      <point x="98" y="788"/>
      <point x="98" y="783" type="curve" smooth="yes"/>
      <point x="98" y="778"/>
      <point x="101" y="775"/>
      <point x="109" y="775" type="curve"/>
    </contour>
    <contour>
      <point x="562" y="775" type="curve"/>
      <point x="515" y="824"/>
      <point x="435" y="908"/>
      <point x="416" y="928" type="curve" smooth="yes"/>
      <point x="400" y="944"/>
      <point x="396" y="947"/>
      <point x="386" y="947" type="curve" smooth="yes"/>
      <point x="307" y="947" type="line"/>
      <point x="301" y="947"/>
      <point x="267" y="946"/>
      <point x="238" y="905" type="curve"/>
      <point x="302" y="851"/>
      <point x="360" y="802"/>
      <point x="381" y="784" type="curve" smooth="yes"/>
      <point x="390" y="777"/>
      <point x="395" y="775"/>
      <point x="410" y="775" type="curve" smooth="yes"/>
      <point x="466" y="775"/>
      <point x="532" y="775"/>
    </contour>
  </outline>
</glyph>
<glyph name="Udieresis" format="1">
  <advance width="650"/>
  <unicode hex="00DC"/>
  <outline>
    <contour>
      <point x="35" y="700" type="curve"/>
      <point x="35" y="672"/>
      <point x="35" y="638"/>
      <point x="35" y="602" type="curve" smooth="yes"/>
      <point x="35" y="164" type="line"/>
      <point x="35" y="134"/>
      <point x="52" y="128"/>
      <point x="260" y="101" type="curve"/>
      <point x="260" y="147"/>
      <point x="260" y="194"/>
      <point x="260" y="240" type="curve"/>
      <point x="260" y="689" type="line"/>
      <point x="260" y="695"/>
      <point x="255" y="700"/>
      <point x="249" y="700" type="curve"/>
      <point x="178" y="700"/>
      <point x="106" y="700"/>
    </contour>
    <contour>
      <point x="188" y="-10" type="curve" smooth="yes"/>
      <point x="300" y="-10"/>
      <point x="367" y="46"/>
      <point x="408" y="113" type="curve" smooth="yes"/>
      <point x="427" y="145"/>
      <point x="430" y="187"/>
      <point x="410" y="257" type="curve"/>
      <point x="384" y="216"/>
      <point x="344" y="200"/>
      <point x="298" y="200" type="curve" smooth="yes"/>
      <point x="271" y="200"/>
      <point x="260" y="210"/>
      <point x="260" y="240" type="curve"/>
      <point x="118" y="240"/>
      <point x="35" y="194"/>
      <point x="35" y="164" type="curve" smooth="yes"/>
      <point x="35" y="49"/>
      <point x="91" y="-10"/>
    </contour>
    <contour>
      <point x="615" y="0" type="curve"/>
      <point x="615" y="28"/>
      <point x="615" y="62"/>
      <point x="615" y="98" type="curve" smooth="yes"/>
      <point x="615" y="689" type="line" smooth="yes"/>
      <point x="615" y="695"/>
      <point x="610" y="700"/>
      <point x="604" y="700" type="curve" smooth="yes"/>
      <point x="551" y="700"/>
      <point x="444" y="700"/>
      <point x="390" y="700" type="curve"/>
      <point x="390" y="11" type="line" smooth="yes"/>
      <point x="390" y="8"/>
      <point x="391" y="5"/>
      <point x="393" y="3" type="curve" smooth="yes"/>
      <point x="395" y="1"/>
      <point x="398" y="0"/>
      <point x="401" y="0" type="curve" smooth="yes"/>
      <point x="450" y="0"/>
      <point x="556" y="0"/>
    </contour>
    <contour>
      <point x="293" y="775" type="curve"/>
      <point x="293" y="921" type="line" smooth="yes"/>
      <point x="293" y="927"/>
      <point x="288" y="932"/>
      <point x="282" y="932" type="curve" smooth="yes"/>
      <point x="231" y="932"/>
      <point x="178" y="932"/>
      <point x="127" y="932" type="curve"/>
      <point x="127" y="786" type="line" smooth="yes"/>
      <point x="127" y="780"/>
      <point x="132" y="775"/>
      <point x="138" y="775" type="curve" smooth="yes"/>
      <point x="189" y="775"/>
      <point x="242" y="775"/>
    </contour>
    <contour>
      <point x="523" y="775" type="curve"/>
      <point x="523" y="921" type="line" smooth="yes"/>
      <point x="523" y="927"/>
      <point x="518" y="932"/>
      <point x="512" y="932" type="curve" smooth="yes"/>
      <point x="461" y="932"/>
      <point x="408" y="932"/>
      <point x="357" y="932" type="curve"/>
      <point x="357" y="786" type="line" smooth="yes"/>
      <point x="357" y="780"/>
      <point x="362" y="775"/>
      <point x="368" y="775" type="curve" smooth="yes"/>
      <point x="419" y="775"/>
      <point x="472" y="775"/>
    </contour>
  </outline>
</glyph>
<glyph name="acircumflex" format="1">
  <advance width="600"/>
  <unicode hex="00E2"/>
  <outline>
    <contour>
      <point x="253" y="565" type="curve" smooth="yes"/>
      <point x="152" y="565"/>
      <point x="64" y="548"/>
      <point x="53" y="537" type="curve" smooth="yes"/>
      <point x="51" y="535"/>
      <point x="50" y="532"/>
      <point x="50" y="527" type="curve" smooth="yes"/>
      <point x="50" y="488"/>
      <point x="50" y="405"/>
      <point x="50" y="365" type="curve"/>
      <point x="70" y="365" type="line"/>
      <point x="129" y="379"/>
      <point x="176" y="385"/>
      <point x="242" y="385" type="curve" smooth="yes"/>
      <point x="301" y="385"/>
      <point x="337" y="375"/>
      <point x="337" y="344" type="curve"/>
      <point x="537" y="341"/>
      <point x="552" y="344"/>
      <point x="552" y="360" type="curve"/>
      <point x="552" y="495"/>
      <point x="488" y="565"/>
    </contour>
    <contour>
      <point x="337" y="415" type="curve"/>
      <point x="337" y="313"/>
      <point x="337" y="342"/>
      <point x="337" y="282" type="curve" smooth="yes"/>
      <point x="337" y="241"/>
      <point x="337" y="177"/>
      <point x="337" y="145" type="curve" smooth="yes"/>
      <point x="337" y="63"/>
      <point x="511" y="16"/>
      <point x="552" y="38" type="curve"/>
      <point x="552" y="84"/>
      <point x="552" y="121"/>
      <point x="552" y="175" type="curve" smooth="yes"/>
      <point x="552" y="236"/>
      <point x="552" y="290"/>
      <point x="552" y="360" type="curve" smooth="yes"/>
      <point x="552" y="386"/>
      <point x="442" y="415"/>
    </contour>
    <contour>
      <point x="590" y="187" type="line"/>
      <point x="570" y="187" type="line"/>
      <point x="568" y="187"/>
      <point x="567" y="187"/>
      <point x="565" y="187" type="curve" smooth="yes"/>
      <point x="555" y="187"/>
      <point x="552" y="194"/>
      <point x="552" y="203" type="curve"/>
      <point x="349" y="181"/>
      <point x="337" y="169"/>
      <point x="337" y="145" type="curve" smooth="yes"/>
      <point x="337" y="40"/>
      <point x="425" y="-5"/>
      <point x="517" y="-5" type="curve" smooth="yes"/>
      <point x="579" y="-5" type="line" smooth="yes"/>
      <point x="586" y="-5"/>
      <point x="590" y="-1"/>
      <point x="590" y="6" type="curve"/>
    </contour>
    <contour>
      <point x="245" y="171" type="curve" smooth="yes"/>
      <point x="245" y="184" type="line" smooth="yes"/>
      <point x="245" y="214"/>
      <point x="245" y="244"/>
      <point x="245" y="268" type="curve"/>
      <point x="71" y="268"/>
      <point x="30" y="210"/>
      <point x="30" y="177" type="curve" smooth="yes"/>
      <point x="30" y="144" type="line" smooth="yes"/>
      <point x="30" y="50"/>
      <point x="93" y="-10"/>
      <point x="193" y="-10" type="curve" smooth="yes"/>
      <point x="285" y="-10"/>
      <point x="337" y="27"/>
      <point x="387" y="97" type="curve" smooth="yes"/>
      <point x="399" y="114"/>
      <point x="401" y="160"/>
      <point x="389" y="188" type="curve"/>
      <point x="345" y="150"/>
      <point x="322" y="140"/>
      <point x="280" y="140" type="curve" smooth="yes"/>
      <point x="276" y="140" type="line" smooth="yes"/>
      <point x="257" y="140"/>
      <point x="245" y="152"/>
    </contour>
    <contour>
      <point x="370" y="299" type="curve" smooth="yes"/>
      <point x="344" y="315"/>
      <point x="288" y="330"/>
      <point x="200" y="330" type="curve" smooth="yes"/>
      <point x="91" y="330"/>
      <point x="30" y="274"/>
      <point x="30" y="177" type="curve" smooth="yes"/>
      <point x="30" y="172"/>
      <point x="48" y="146"/>
      <point x="245" y="184" type="curve"/>
      <point x="245" y="206"/>
      <point x="256" y="217"/>
      <point x="278" y="217" type="curve" smooth="yes"/>
      <point x="308" y="217"/>
      <point x="372" y="217"/>
      <point x="396" y="217" type="curve"/>
      <point x="396" y="256"/>
      <point x="397" y="283"/>
    </contour>
    <contour>
      <point x="231" y="630" type="line"/>
      <point x="276" y="674"/>
      <point x="323" y="720"/>
      <point x="386" y="783" type="curve"/>
      <point x="335" y="831"/>
      <point x="303" y="832"/>
      <point x="295" y="832" type="curve"/>
      <point x="236" y="832" type="line"/>
      <point x="210" y="800"/>
      <point x="130" y="703"/>
      <point x="101" y="667" type="curve" smooth="yes"/>
      <point x="85" y="647"/>
      <point x="83" y="645"/>
      <point x="83" y="639" type="curve" smooth="yes"/>
      <point x="83" y="634"/>
      <point x="86" y="630"/>
      <point x="94" y="630" type="curve"/>
    </contour>
    <contour>
      <point x="547" y="630" type="curve"/>
      <point x="500" y="688"/>
      <point x="419" y="787"/>
      <point x="400" y="810" type="curve" smooth="yes"/>
      <point x="384" y="829"/>
      <point x="380" y="832"/>
      <point x="370" y="832" type="curve" smooth="yes"/>
      <point x="292" y="832" type="line"/>
      <point x="287" y="832"/>
      <point x="260" y="829"/>
      <point x="233" y="783" type="curve"/>
      <point x="297" y="719"/>
      <point x="355" y="662"/>
      <point x="376" y="641" type="curve" smooth="yes"/>
      <point x="385" y="632"/>
      <point x="390" y="630"/>
      <point x="405" y="630" type="curve" smooth="yes"/>
      <point x="457" y="630"/>
      <point x="519" y="630"/>
    </contour>
  </outline>
</glyph>
<glyph name="ae" format="1">
  <advance width="850"/>
  <unicode hex="00E6"/>
  <outline>
    <contour>
      <point x="231" y="562" type="curve" smooth="yes"/>
      <point x="139" y="562"/>
      <point x="69" y="545"/>
      <point x="53" y="529" type="curve" smooth="yes"/>
      <point x="51" y="527"/>
      <point x="50" y="524"/>
      <point x="50" y="521" type="curve" smooth="yes"/>
      <point x="50" y="468"/>
      <point x="50" y="412"/>
      <point x="50" y="360" type="curve"/>
      <point x="70" y="360" type="line"/>
      <point x="128" y="379"/>
      <point x="170" y="385"/>
      <point x="232" y="385" type="curve" smooth="yes"/>
      <point x="296" y="385"/>
      <point x="318" y="376"/>
      <point x="318" y="336" type="curve" smooth="yes"/>
      <point x="318" y="156" type="line"/>
      <point x="318" y="133"/>
      <point x="348" y="161"/>
      <point x="485" y="250" type="curve"/>
      <point x="485" y="280" type="line" smooth="yes"/>
      <point x="485" y="448"/>
      <point x="409" y="562"/>
    </contour>
    <contour>
      <point x="224" y="184" type="curve" smooth="yes"/>
      <point x="224" y="190" type="line" smooth="yes"/>
      <point x="224" y="223"/>
      <point x="224" y="250"/>
      <point x="224" y="276" type="curve"/>
      <point x="96" y="276"/>
      <point x="30" y="243"/>
      <point x="30" y="190" type="curve" smooth="yes"/>
      <point x="30" y="134" type="line" smooth="yes"/>
      <point x="30" y="51"/>
      <point x="88" y="-10"/>
      <point x="225" y="-10" type="curve" smooth="yes"/>
      <point x="385" y="-10"/>
      <point x="485" y="93"/>
      <point x="485" y="250" type="curve" smooth="yes"/>
      <point x="485" y="257"/>
      <point x="460" y="236"/>
      <point x="318" y="192" type="curve"/>
      <point x="318" y="161"/>
      <point x="299" y="144"/>
      <point x="264" y="144" type="curve" smooth="yes"/>
      <point x="261" y="144" type="line" smooth="yes"/>
      <point x="237" y="144"/>
      <point x="224" y="157"/>
    </contour>
    <contour>
      <point x="376" y="281" type="curve" smooth="yes"/>
      <point x="358" y="299"/>
      <point x="298" y="329"/>
      <point x="183" y="329" type="curve" smooth="yes"/>
      <point x="92" y="329"/>
      <point x="30" y="272"/>
      <point x="30" y="190" type="curve" smooth="yes"/>
      <point x="30" y="168"/>
      <point x="34" y="159"/>
      <point x="224" y="190" type="curve"/>
      <point x="224" y="212"/>
      <point x="239" y="229"/>
      <point x="266" y="229" type="curve" smooth="yes"/>
      <point x="303" y="229"/>
      <point x="364" y="229"/>
      <point x="387" y="229" type="curve"/>
      <point x="387" y="246"/>
      <point x="385" y="272"/>
    </contour>
    <contour>
      <point x="810" y="229" type="line" smooth="yes"/>
      <point x="816" y="229"/>
      <point x="820" y="233"/>
      <point x="820" y="239" type="curve" smooth="yes"/>
      <point x="820" y="350" type="line" smooth="yes"/>
      <point x="820" y="489"/>
      <point x="741" y="562"/>
      <point x="605" y="562" type="curve" smooth="yes"/>
      <point x="591" y="562"/>
      <point x="574" y="541"/>
      <point x="574" y="395" type="curve"/>
      <point x="614" y="395"/>
      <point x="626" y="378"/>
      <point x="626" y="337" type="curve" smooth="yes"/>
      <point x="626" y="330" type="line" smooth="yes"/>
      <point x="626" y="329"/>
      <point x="626" y="329"/>
      <point x="625" y="329" type="curve" smooth="yes"/>
      <point x="513" y="329"/>
      <point x="508" y="329"/>
      <point x="437" y="329" type="curve"/>
      <point x="437" y="286"/>
      <point x="442" y="258"/>
      <point x="458" y="242" type="curve" smooth="yes"/>
      <point x="468" y="232"/>
      <point x="484" y="229"/>
      <point x="502" y="229" type="curve" smooth="yes"/>
    </contour>
    <contour>
      <point x="574" y="395" type="curve" smooth="yes"/>
      <point x="609" y="395"/>
      <point x="621" y="395"/>
      <point x="651" y="395" type="curve"/>
      <point x="651" y="475"/>
      <point x="639" y="562"/>
      <point x="605" y="562" type="curve"/>
      <point x="447" y="562"/>
      <point x="354" y="429"/>
      <point x="354" y="280" type="curve" smooth="yes"/>
      <point x="354" y="248" type="line" smooth="yes"/>
      <point x="354" y="106"/>
      <point x="459" y="-12"/>
      <point x="644" y="-12" type="curve" smooth="yes"/>
      <point x="654" y="-12"/>
      <point x="679" y="2"/>
      <point x="636" y="155" type="curve"/>
      <point x="566" y="155"/>
      <point x="520" y="176"/>
      <point x="520" y="247" type="curve" smooth="yes"/>
      <point x="520" y="337" type="line" smooth="yes"/>
      <point x="520" y="378"/>
      <point x="534" y="395"/>
    </contour>
    <contour>
      <point x="803" y="25" type="curve" smooth="yes"/>
      <point x="806" y="28"/>
      <point x="807" y="31"/>
      <point x="807" y="34" type="curve" smooth="yes"/>
      <point x="807" y="85"/>
      <point x="807" y="143"/>
      <point x="807" y="187" type="curve"/>
      <point x="787" y="187" type="line"/>
      <point x="746" y="167"/>
      <point x="703" y="155"/>
      <point x="636" y="155" type="curve" smooth="yes"/>
      <point x="572" y="155"/>
      <point x="545" y="155"/>
      <point x="511" y="155" type="curve"/>
      <point x="511" y="57"/>
      <point x="566" y="-12"/>
      <point x="644" y="-12" type="curve" smooth="yes"/>
      <point x="734" y="-12"/>
      <point x="788" y="10"/>
    </contour>
    <contour>
      <point x="425" y="561" type="move" name="top"/>
    </contour>
  </outline>
</glyph>
<glyph name="ccedilla" format="1">
  <advance width="500"/>
  <unicode hex="00E7"/>
  <outline>
    <contour>
      <point x="319" y="568" type="curve" smooth="yes"/>
      <point x="114" y="568"/>
      <point x="20" y="464"/>
      <point x="20" y="328" type="curve" smooth="yes"/>
      <point x="20" y="223" type="line" smooth="yes"/>
      <point x="20" y="63"/>
      <point x="127" y="-17"/>
      <point x="319" y="-17" type="curve" smooth="yes"/>
      <point x="350" y="-17"/>
      <point x="358" y="3"/>
      <point x="327" y="183" type="curve"/>
      <point x="270" y="183"/>
      <point x="245" y="210"/>
      <point x="245" y="253" type="curve" smooth="yes"/>
      <point x="245" y="298" type="line" smooth="yes"/>
      <point x="245" y="345"/>
      <point x="271" y="368"/>
      <point x="327" y="368" type="curve" smooth="yes"/>
      <point x="382" y="368"/>
      <point x="416" y="359"/>
      <point x="460" y="344" type="curve"/>
      <point x="480" y="344" type="line"/>
      <point x="480" y="406"/>
      <point x="480" y="467"/>
      <point x="480" y="529" type="curve"/>
      <point x="480" y="532"/>
      <point x="479" y="535"/>
      <point x="477" y="537" type="curve" smooth="yes"/>
      <point x="462" y="552"/>
      <point x="387" y="568"/>
    </contour>
    <contour>
      <point x="319" y="-17" type="curve" smooth="yes"/>
      <point x="387" y="-17"/>
      <point x="463" y="-1"/>
      <point x="477" y="13" type="curve" smooth="yes"/>
      <point x="479" y="15"/>
      <point x="480" y="18"/>
      <point x="480" y="21" type="curve"/>
      <point x="480" y="82"/>
      <point x="480" y="144"/>
      <point x="480" y="206" type="curve"/>
      <point x="460" y="206" type="line"/>
      <point x="416" y="191"/>
      <point x="382" y="183"/>
      <point x="327" y="183" type="curve" smooth="yes"/>
      <point x="250" y="183"/>
      <point x="211" y="191"/>
      <point x="168" y="221" type="curve"/>
      <point x="109" y="69"/>
      <point x="195" y="-17"/>
    </contour>
    <contour>
      <point x="419" y="-115" type="curve" smooth="yes"/>
      <point x="419" y="-31"/>
      <point x="328" y="42"/>
      <point x="284" y="54" type="curve"/>
      <point x="288" y="73"/>
      <point x="292" y="91"/>
      <point x="296" y="110" type="curve"/>
      <point x="218" y="110"/>
      <point x="227" y="106"/>
      <point x="224" y="99" type="curve" smooth="yes"/>
      <point x="219" y="85"/>
      <point x="214" y="74"/>
      <point x="207" y="56" type="curve" smooth="yes"/>
      <point x="204" y="49"/>
      <point x="205" y="43"/>
      <point x="215" y="35" type="curve" smooth="yes"/>
      <point x="252" y="13"/>
      <point x="264" y="-14"/>
      <point x="264" y="-48" type="curve" smooth="yes"/>
      <point x="264" y="-78"/>
      <point x="244" y="-92"/>
      <point x="210" y="-92" type="curve" smooth="yes"/>
      <point x="184" y="-92"/>
      <point x="168" y="-88"/>
      <point x="152" y="-79" type="curve"/>
      <point x="140" y="-79" type="line"/>
      <point x="140" y="-127"/>
      <point x="140" y="-170"/>
      <point x="140" y="-221" type="curve" smooth="yes"/>
      <point x="140" y="-232"/>
      <point x="167" y="-255"/>
      <point x="245" y="-255" type="curve" smooth="yes"/>
      <point x="371" y="-255"/>
      <point x="419" y="-184"/>
    </contour>
  </outline>
</glyph>
<glyph name="ecircumflex" format="1">
  <advance width="600"/>
  <unicode hex="00EA"/>
  <outline>
    <contour>
      <point x="308" y="395" type="curve" smooth="yes"/>
      <point x="363" y="395"/>
      <point x="381" y="393"/>
      <point x="433" y="351" type="curve"/>
      <point x="458" y="376"/>
      <point x="472" y="408"/>
      <point x="472" y="442" type="curve"/>
      <point x="472" y="519"/>
      <point x="394" y="570"/>
      <point x="312" y="570" type="curve"/>
      <point x="142" y="570"/>
      <point x="35" y="470"/>
      <point x="35" y="327" type="curve" smooth="yes"/>
      <point x="35" y="223" type="line" smooth="yes"/>
      <point x="35" y="63"/>
      <point x="141" y="-20"/>
      <point x="341" y="-20" type="curve" smooth="yes"/>
      <point x="365" y="-20"/>
      <point x="383" y="0"/>
      <point x="340" y="155" type="curve"/>
      <point x="267" y="154"/>
      <point x="255" y="180"/>
      <point x="255" y="220" type="curve" smooth="yes"/>
      <point x="255" y="339" type="line" smooth="yes"/>
      <point x="255" y="372"/>
      <point x="273" y="395"/>
    </contour>
    <contour>
      <point x="552" y="15" type="curve" smooth="yes"/>
      <point x="554" y="17"/>
      <point x="555" y="20"/>
      <point x="555" y="23" type="curve" smooth="yes"/>
      <point x="555" y="78"/>
      <point x="555" y="130"/>
      <point x="555" y="181" type="curve"/>
      <point x="535" y="181" type="line"/>
      <point x="472" y="162"/>
      <point x="425" y="155"/>
      <point x="340" y="155" type="curve" smooth="yes"/>
      <point x="253" y="155"/>
      <point x="213" y="160"/>
      <point x="150" y="190" type="curve"/>
      <point x="155" y="72"/>
      <point x="215" y="-20"/>
      <point x="341" y="-20" type="curve" smooth="yes"/>
      <point x="440" y="-20"/>
      <point x="532" y="-5"/>
    </contour>
    <contour>
      <point x="559" y="220" type="line" smooth="yes"/>
      <point x="565" y="220"/>
      <point x="570" y="225"/>
      <point x="570" y="231" type="curve" smooth="yes"/>
      <point x="570" y="329" type="line" smooth="yes"/>
      <point x="570" y="474"/>
      <point x="462" y="570"/>
      <point x="312" y="570" type="curve" smooth="yes"/>
      <point x="284" y="570"/>
      <point x="288" y="551"/>
      <point x="308" y="395" type="curve"/>
      <point x="346" y="395"/>
      <point x="360" y="374"/>
      <point x="360" y="339" type="curve" smooth="yes"/>
      <point x="360" y="331" type="line" smooth="yes"/>
      <point x="360" y="324"/>
      <point x="356" y="320"/>
      <point x="349" y="320" type="curve" smooth="yes"/>
      <point x="305" y="320"/>
      <point x="277" y="320"/>
      <point x="205" y="320" type="curve"/>
      <point x="205" y="298"/>
      <point x="205" y="255"/>
      <point x="205" y="229" type="curve" smooth="yes"/>
      <point x="205" y="223"/>
      <point x="208" y="220"/>
      <point x="215" y="220" type="curve" smooth="yes"/>
    </contour>
    <contour>
      <point x="223" y="630" type="line"/>
      <point x="268" y="674"/>
      <point x="315" y="720"/>
      <point x="378" y="783" type="curve"/>
      <point x="327" y="831"/>
      <point x="295" y="832"/>
      <point x="287" y="832" type="curve"/>
      <point x="228" y="832" type="line"/>
      <point x="202" y="800"/>
      <point x="122" y="703"/>
      <point x="93" y="667" type="curve" smooth="yes"/>
      <point x="77" y="647"/>
      <point x="75" y="645"/>
      <point x="75" y="639" type="curve" smooth="yes"/>
      <point x="75" y="634"/>
      <point x="78" y="630"/>
      <point x="86" y="630" type="curve"/>
    </contour>
    <contour>
      <point x="539" y="630" type="curve"/>
      <point x="492" y="688"/>
      <point x="411" y="787"/>
      <point x="392" y="810" type="curve" smooth="yes"/>
      <point x="376" y="829"/>
      <point x="372" y="832"/>
      <point x="362" y="832" type="curve" smooth="yes"/>
      <point x="284" y="832" type="line"/>
      <point x="279" y="832"/>
      <point x="252" y="829"/>
      <point x="225" y="783" type="curve"/>
      <point x="289" y="719"/>
      <point x="347" y="662"/>
      <point x="368" y="641" type="curve" smooth="yes"/>
      <point x="377" y="632"/>
      <point x="382" y="630"/>
      <point x="397" y="630" type="curve" smooth="yes"/>
      <point x="449" y="630"/>
      <point x="511" y="630"/>
    </contour>
  </outline>
</glyph>
<glyph name="igrave" format="1">
  <advance width="350"/>
  <unicode hex="00EC"/>
  <outline>
    <contour>
      <point x="20" y="550" type="curve"/>
      <point x="20" y="504"/>
      <point x="20" y="392"/>
      <point x="20" y="346" type="curve" smooth="yes"/>
      <point x="20" y="340"/>
      <point x="25" y="335"/>
      <point x="31" y="335" type="curve" smooth="yes"/>
      <point x="82" y="335"/>
      <point x="144" y="335"/>
      <point x="195" y="335" type="curve"/>
      <point x="195" y="394"/>
      <point x="173" y="550"/>
      <point x="120" y="550" type="curve" smooth="yes"/>
      <point x="90" y="550"/>
      <point x="50" y="550"/>
    </contour>
    <contour>
      <point x="310" y="0" type="curve"/>
      <point x="310" y="54"/>
      <point x="310" y="108"/>
      <point x="310" y="162" type="curve" smooth="yes"/>
      <point x="310" y="539" type="line" smooth="yes"/>
      <point x="310" y="545"/>
      <point x="305" y="550"/>
      <point x="299" y="550" type="curve" smooth="yes"/>
      <point x="85" y="550" type="line"/>
      <point x="85" y="11" type="line" smooth="yes"/>
      <point x="85" y="5"/>
      <point x="90" y="0"/>
      <point x="96" y="0" type="curve" smooth="yes"/>
      <point x="167" y="0"/>
      <point x="239" y="0"/>
    </contour>
    <contour>
      <point x="280" y="629" type="curve"/>
      <point x="245" y="691"/>
      <point x="210" y="753"/>
      <point x="174" y="817" type="curve"/>
      <point x="100" y="817"/>
      <point x="30" y="817"/>
      <point x="-42" y="817" type="curve" smooth="yes"/>
      <point x="-50" y="817"/>
      <point x="-55" y="808"/>
      <point x="-49" y="801" type="curve"/>
      <point x="2" y="744"/>
      <point x="41" y="701"/>
      <point x="100" y="636" type="curve" smooth="yes"/>
      <point x="104" y="631"/>
      <point x="110" y="629"/>
      <point x="121" y="629" type="curve" smooth="yes"/>
      <point x="172" y="629"/>
      <point x="233" y="629"/>
    </contour>
  </outline>
</glyph>
<glyph name="icircumflex" format="1">
  <advance width="350"/>
  <unicode hex="00EE"/>
  <outline>
    <contour>
      <point x="20" y="550" type="curve"/>
      <point x="20" y="504"/>
      <point x="20" y="392"/>
      <point x="20" y="346" type="curve" smooth="yes"/>
      <point x="20" y="340"/>
      <point x="25" y="335"/>
      <point x="31" y="335" type="curve" smooth="yes"/>
      <point x="82" y="335"/>
      <point x="144" y="335"/>
      <point x="195" y="335" type="curve"/>
      <point x="195" y="394"/>
      <point x="173" y="550"/>
      <point x="120" y="550" type="curve" smooth="yes"/>
      <point x="90" y="550"/>
      <point x="50" y="550"/>
    </contour>
    <contour>
      <point x="310" y="0" type="curve"/>
      <point x="310" y="54"/>
      <point x="310" y="108"/>
      <point x="310" y="162" type="curve" smooth="yes"/>
      <point x="310" y="539" type="line" smooth="yes"/>
      <point x="310" y="545"/>
      <point x="305" y="550"/>
      <point x="299" y="550" type="curve" smooth="yes"/>
      <point x="85" y="550" type="line"/>
      <point x="85" y="11" type="line" smooth="yes"/>
      <point x="85" y="5"/>
      <point x="90" y="0"/>
      <point x="96" y="0" type="curve" smooth="yes"/>
      <point x="167" y="0"/>
      <point x="239" y="0"/>
    </contour>
    <contour>
      <point x="108" y="630" type="line"/>
      <point x="153" y="674"/>
      <point x="200" y="720"/>
      <point x="263" y="783" type="curve"/>
      <point x="212" y="831"/>
      <point x="180" y="832"/>
      <point x="172" y="832" type="curve"/>
      <point x="113" y="832" type="line"/>
      <point x="87" y="800"/>
      <point x="7" y="703"/>
      <point x="-22" y="667" type="curve" smooth="yes"/>
      <point x="-38" y="647"/>
      <point x="-40" y="645"/>
      <point x="-40" y="639" type="curve" smooth="yes"/>
      <point x="-40" y="634"/>
      <point x="-37" y="630"/>
      <point x="-29" y="630" type="curve"/>
    </contour>
    <contour>
      <point x="424" y="630" type="curve"/>
      <point x="377" y="688"/>
      <point x="296" y="787"/>
      <point x="277" y="810" type="curve" smooth="yes"/>
      <point x="261" y="829"/>
      <point x="257" y="832"/>
      <point x="247" y="832" type="curve" smooth="yes"/>
      <point x="169" y="832" type="line"/>
      <point x="164" y="832"/>
      <point x="137" y="829"/>
      <point x="110" y="783" type="curve"/>
      <point x="174" y="719"/>
      <point x="232" y="662"/>
      <point x="253" y="641" type="curve" smooth="yes"/>
      <point x="262" y="632"/>
      <point x="267" y="630"/>
      <point x="282" y="630" type="curve" smooth="yes"/>
      <point x="334" y="630"/>
      <point x="396" y="630"/>
    </contour>
  </outline>
</glyph>
